<?xml version="1.0" encoding="UTF-8"?>
<svg width="397px" height="290px" viewBox="0 0 397 290" version="1.1" xmlns="http://www.w3.org/2000/svg" xmlns:xlink="http://www.w3.org/1999/xlink">
    <!-- Generator: Sketch 51.2 (57519) - http://www.bohemiancoding.com/sketch -->
    <title>ByteBuffer</title>
    <desc>Created with Sketch.</desc>
    <defs></defs>
    <g id="ByteBuffer" stroke="none" stroke-width="1" fill="none" fill-rule="evenodd">
        <g id="Interface" transform="translate(223.000000, 0.000000)">
            <rect id="Rectangle" stroke="#979797" fill="#4A90E2" x="0.5" y="0.5" width="172" height="53" rx="8"></rect>
            <text id="Buffer" font-family="Arial-BoldMT, Arial" font-size="12" font-weight="bold" fill="#000000">
                <tspan x="69.8339844" y="23">Buffer</tspan>
            </text>
            <text id="&lt;&lt;interface&gt;&gt;" font-family="ArialMT, Arial" font-size="12" font-weight="normal" fill="#000000">
                <tspan x="49.4716797" y="40">&lt;&lt;interface&gt;&gt;</tspan>
            </text>
        </g>
        <g id="Interface" transform="translate(224.000000, 76.000000)">
            <rect id="Rectangle" stroke="#979797" fill="#4A90E2" x="0.5" y="0.5" width="172" height="53" rx="8"></rect>
            <text id="ByteBuffer" font-family="Arial-BoldMT, Arial" font-size="12" font-weight="bold" fill="#000000">
                <tspan x="54.8291016" y="23">ByteBuffer</tspan>
            </text>
            <text id="&lt;&lt;interface&gt;&gt;" font-family="ArialMT, Arial" font-size="12" font-weight="normal" fill="#000000">
                <tspan x="47.4716797" y="40">&lt;&lt;interface&gt;&gt;</tspan>
            </text>
        </g>
        <g id="Interface" transform="translate(223.000000, 153.000000)">
            <rect id="Rectangle" stroke="#979797" fill="#4A90E2" x="0.5" y="0.5" width="172" height="53" rx="8"></rect>
            <text id="MappedByteBuffer" font-family="Arial-BoldMT, Arial" font-size="12" font-weight="bold" fill="#000000">
                <tspan x="32.1621094" y="23">MappedByteBuffer</tspan>
            </text>
            <text id="&lt;&lt;interface&gt;&gt;" font-family="ArialMT, Arial" font-size="12" font-weight="normal" fill="#000000">
                <tspan x="47.4716797" y="40">&lt;&lt;interface&gt;&gt;</tspan>
            </text>
        </g>
        <g id="Class" transform="translate(225.000000, 239.000000)">
            <rect id="Rectangle-3" stroke="#979797" fill="#B8E986" x="0.5" y="0.5" width="171" height="50" rx="8"></rect>
            <text id="DirectByteBuffer" font-family="Arial-BoldMT, Arial" font-size="12" font-weight="bold" fill="#000000">
                <tspan x="38.3222656" y="29">DirectByteBuffer</tspan>
            </text>
        </g>
        <g id="Class" transform="translate(0.000000, 189.000000)">
            <rect id="Rectangle-3" stroke="#979797" fill="#B8E986" x="0.5" y="0.5" width="171" height="50" rx="8"></rect>
            <text id="DirectByteBuffer" font-family="Arial-BoldMT, Arial" font-size="12" font-weight="bold" fill="#000000">
                <tspan x="38.3222656" y="29">DirectByteBuffer</tspan>
            </text>
        </g>
        <path id="Line-2" d="M224.980719,101.362489 L215.09018,99.5112111 L217.565373,108.164154 L224.980719,101.362489 Z M88.9704402,187.66937 C89.4256752,186.404911 89.8919319,185.160371 90.3692084,183.93575 L90.5507735,183.469881 L89.6190351,183.106751 L89.43747,183.57262 C88.9570228,184.805377 88.48772,186.058047 88.0295598,187.33063 L87.8601903,187.801071 L88.8010706,188.13981 L88.9704402,187.66937 Z M91.8680375,180.241175 C92.3905991,179.003411 92.9252024,177.787423 93.4718452,176.593212 L93.679951,176.138578 L92.7706833,175.722366 L92.5625774,176.177 C92.0117775,177.380293 91.4731773,178.605372 90.9467746,179.852235 L90.7523044,180.312866 L91.6735673,180.701807 L91.8680375,180.241175 Z M95.1905517,172.989977 C95.788112,171.7876 96.3988385,170.609049 97.0227286,169.454321 L97.2604024,169.014422 L96.3806044,168.539074 L96.1429305,168.978973 C95.5136018,170.143767 94.8976413,171.332419 94.2950462,172.544927 L94.072521,172.992679 L94.9680264,173.43773 L95.1905517,172.989977 Z M98.9782124,165.986206 C99.6587286,164.829726 100.353633,163.699294 101.062922,162.594907 L101.333119,162.174201 L100.491708,161.633807 L100.22151,162.054513 C99.505151,163.169908 98.8034332,164.311424 98.1163543,165.479057 L97.8627795,165.909986 L98.7246376,166.417135 L98.9782124,165.986206 Z M103.289366,159.280944 C104.060016,158.184603 104.846315,157.116599 105.648263,156.076925 L105.953645,155.681018 L105.161831,155.070256 L104.856449,155.466163 C104.045429,156.517598 103.250367,157.597504 102.471262,158.705874 L102.183727,159.114927 L103.001832,159.689996 L103.289366,159.280944 Z M108.143226,152.993174 C109.008672,151.973802 109.89098,150.984944 110.790149,150.026591 L111.132264,149.661958 L110.402997,148.977728 L110.060882,149.342361 C109.150343,150.312832 108.257019,151.314038 107.38091,152.345969 L107.057308,152.727127 L107.819623,153.374332 L108.143226,152.993174 Z M113.590146,147.193162 C114.551995,146.269743 115.531754,145.378692 116.529427,144.519998 L116.908389,144.193827 L116.256046,143.435903 L115.877084,143.762074 C114.865637,144.632623 113.872473,145.535865 112.897597,146.471791 L112.536911,146.818065 L113.22946,147.539436 L113.590146,147.193162 Z M119.628212,142.001055 C120.6827,141.192523 121.755836,140.417615 122.847626,139.676321 L123.261287,139.395457 L122.699559,138.568135 L122.285898,138.848999 C121.178177,139.601109 120.089455,140.387273 119.019738,141.207481 L118.622951,141.511719 L119.231425,142.305292 L119.628212,142.001055 Z M126.215025,137.530281 C127.293239,136.884442 128.445726,136.228784 129.67245,135.563354 L130.111952,135.324948 L129.635141,134.445943 L129.195638,134.684349 C127.956723,135.356392 126.791911,136.019062 125.701167,136.672405 L125.272229,136.929334 L125.786087,137.787209 L126.215025,137.530281 Z M133.20787,133.721452 C134.35176,133.147619 135.547924,132.566959 136.796351,131.979483 L137.248763,131.76659 L136.822977,130.861766 L136.370565,131.074659 C135.114693,131.665638 133.911001,132.249953 132.759477,132.827616 L132.312559,133.051812 L132.760952,133.945649 L133.20787,133.721452 Z M140.422921,130.319244 C141.602988,129.792996 142.823197,129.261531 144.083542,128.724852 L144.543572,128.528963 L144.151794,127.608903 L143.691764,127.804793 C142.426304,128.343649 141.20093,128.877364 140.015637,129.405942 L139.558986,129.609585 L139.96627,130.522886 L140.422921,130.319244 Z M147.773892,127.185421 C148.976892,126.693423 150.212396,126.197211 151.480403,125.696787 L151.945494,125.513237 L151.578394,124.583055 L151.113303,124.766605 C149.841517,125.268521 148.602201,125.766264 147.39535,126.259836 L146.932558,126.449107 L147.311099,127.374691 L147.773892,127.185421 Z M155.199247,124.252663 C156.418658,123.786491 157.665378,123.316784 158.939408,122.843541 L159.408116,122.669437 L159.059909,121.73202 L158.5912,121.906123 C157.314235,122.380457 156.064555,122.85128 154.842159,123.318592 L154.375124,123.497136 L154.732212,124.431207 L155.199247,124.252663 Z M162.687087,121.469751 C163.91793,121.024333 165.172279,120.575874 166.450133,120.124374 L166.921571,119.957803 L166.588427,119.014926 L166.116989,119.181498 C164.836772,119.633833 163.580044,120.083143 162.346803,120.529429 L161.876641,120.699571 L162.216926,121.639894 L162.687087,121.469751 Z M170.229665,118.803783 C171.469405,118.375305 172.729768,117.944159 174.010754,117.510347 L174.484334,117.349967 L174.163574,116.402807 L173.689994,116.563187 C172.407054,116.99766 171.144724,117.429478 169.903005,117.858641 L169.430434,118.021971 L169.757094,118.967113 L170.229665,118.803783 Z M177.80029,116.239214 C179.047832,115.824646 180.313764,115.407701 181.598086,114.98838 L182.073394,114.833195 L181.763024,113.882579 L181.287716,114.037764 C180.001744,114.457624 178.734151,114.875116 177.484938,115.290239 L177.010451,115.447915 L177.325802,116.39689 L177.80029,116.239214 Z M185.402759,113.756502 C186.655893,113.354069 187.925594,112.949496 189.211864,112.542782 L189.6886,112.392039 L189.387115,111.438568 L188.91038,111.58931 C187.622692,111.996473 186.351565,112.401501 185.096998,112.804394 L184.620944,112.957274 L184.926705,113.909383 L185.402759,113.756502 Z M193.015367,111.348933 C194.273383,110.956907 195.546481,110.562933 196.834659,110.16701 L197.312594,110.020116 L197.018807,109.064245 L196.540871,109.211139 C195.251458,109.607442 193.977119,110.0018 192.717855,110.394215 L192.240496,110.542971 L192.538007,111.497689 L193.015367,111.348933 Z M200.661892,108.998434 C201.924023,108.615556 203.199988,108.230892 204.489788,107.84444 L204.968751,107.700933 L204.681736,106.743007 L204.202773,106.886514 C202.911885,107.273292 201.634827,107.658286 200.371598,108.041496 L199.893129,108.186644 L200.183424,109.143581 L200.661892,108.998434 Z M208.327026,106.701535 C209.592736,106.326749 210.871224,105.950313 212.16249,105.572227 L212.642343,105.431725 L212.361338,104.472018 L211.881485,104.612521 C210.589251,104.99089 209.309791,105.367613 208.043104,105.742687 L207.563681,105.884648 L207.847602,106.843496 L208.327026,106.701535 Z M215.994333,104.456273 C216.315192,104.363324 216.63681,104.270276 216.959187,104.17713 L217.439538,104.03834 L217.161958,103.077638 L216.681607,103.216428 C216.359007,103.309638 216.037165,103.40275 215.716083,103.495764 L215.235829,103.634889 L215.514079,104.595398 L215.994333,104.456273 Z" fill="#000000" fill-rule="nonzero"></path>
        <path id="Line-2" d="M311.5,205 L307,214 L316,214 L311.5,205 Z M312,239.5 L312,235.5 L312,235 L311,235 L311,235.5 L311,239.5 L311,240 L312,240 L312,239.5 Z M312,231.5 L312,227.5 L312,227 L311,227 L311,227.5 L311,231.5 L311,232 L312,232 L312,231.5 Z M312,223.5 L312,219.5 L312,219 L311,219 L311,219.5 L311,223.5 L311,224 L312,224 L312,223.5 Z M312,215.5 L312,213.5 L312,213 L311,213 L311,213.5 L311,215.5 L311,216 L312,216 L312,215.5 Z" fill="#000000" fill-rule="nonzero"></path>
        <path id="Line-5" d="M310.5,53 L306,62 L315,62 L310.5,53 Z M311,75.5 L311,61.5 L311,61 L310,61 L310,61.5 L310,75.5 L310,76 L311,76 L311,75.5 Z" fill="#000000" fill-rule="nonzero"></path>
        <path id="Line-5" d="M312.5,128 L308,137 L317,137 L312.5,128 Z M313,152.5 L313,136.5 L313,136 L312,136 L312,136.5 L312,152.5 L312,153 L313,153 L313,152.5 Z" fill="#000000" fill-rule="nonzero"></path>
    </g>
</svg>