<?xml version="1.0" encoding="UTF-8"?>
<svg width="824px" height="364px" viewBox="0 0 824 364" version="1.1" xmlns="http://www.w3.org/2000/svg" xmlns:xlink="http://www.w3.org/1999/xlink">
    <!-- Generator: Sketch 51.2 (57519) - http://www.bohemiancoding.com/sketch -->
    <title>tinySubPageDirectCache</title>
    <desc>Created with Sketch.</desc>
    <defs></defs>
    <g id="tinySubPageDirectCache" stroke="none" stroke-width="1" fill="none" fill-rule="evenodd">
        <text id="tinySubPageDirectCac" font-family="Arial-BoldMT, Arial" font-size="12" font-weight="bold" fill="#000000">
            <tspan x="22" y="28">tinySubPageDirectCache</tspan>
            <tspan x="164.710938" y="28" font-family="PingFangSC-Semibold, PingFang SC" font-weight="500">数组</tspan>
            <tspan x="188.710938" y="28"></tspan>
            <tspan x="22" y="45">length</tspan>
            <tspan x="57.9941406" y="45" font-family="PingFangSC-Semibold, PingFang SC" font-weight="500">：</tspan>
            <tspan x="69.9941406" y="45">32</tspan>
        </text>
        <g id="Class" transform="translate(21.000000, 139.000000)">
            <path d="M8,0.5 C3.85786438,0.5 0.5,3.85786438 0.5,8 L0.5,49 C0.5,53.1421356 3.85786438,56.5 8,56.5 L62,56.5 C66.1421356,56.5 69.5,53.1421356 69.5,49 L69.5,8 C69.5,3.85786438 66.1421356,0.5 62,0.5 L8,0.5 Z" id="Rectangle-3" stroke="#979797" fill="#F8E71C"></path>
            <text id="1-16B" font-family="Arial-BoldMT, Arial" font-size="12" font-weight="bold" fill="#000000">
                <tspan x="31.6630859" y="25">1</tspan>
                <tspan x="23.9931641" y="39">16B</tspan>
            </text>
        </g>
        <g id="Class" transform="translate(421.000000, 94.000000)">
            <path d="M8,0.5 C3.85786438,0.5 0.5,3.85786438 0.5,8 L0.5,27 C0.5,31.1421356 3.85786438,34.5 8,34.5 L145,34.5 C149.142136,34.5 152.5,31.1421356 152.5,27 L152.5,8 C152.5,3.85786438 149.142136,0.5 145,0.5 L8,0.5 Z" id="Rectangle-3" stroke="#979797" fill="#B8E986"></path>
            <text id="MemoryRegionCache" font-family="Arial-BoldMT, Arial" font-size="12" font-weight="bold" fill="#000000">
                <tspan x="15.1523438" y="21">MemoryRegionCache</tspan>
            </text>
        </g>
        <g id="Class" transform="translate(161.000000, 150.000000)">
            <path d="M8,0.5 C3.85786438,0.5 0.5,3.85786438 0.5,8 L0.5,27 C0.5,31.1421356 3.85786438,34.5 8,34.5 L145,34.5 C149.142136,34.5 152.5,31.1421356 152.5,27 L152.5,8 C152.5,3.85786438 149.142136,0.5 145,0.5 L8,0.5 Z" id="Rectangle-3" stroke="#979797" fill="#B8E986"></path>
            <text id="MemoryRegionCache" font-family="Arial-BoldMT, Arial" font-size="12" font-weight="bold" fill="#000000">
                <tspan x="15.1523438" y="21">MemoryRegionCache</tspan>
            </text>
        </g>
        <path id="Line-12" d="M161,166.5 L152,162 L152,171 L161,166.5 Z M91.5,167 L152.5,167 L153,167 L153,166 L152.5,166 L91.5,166 L91,166 L91,167 L91.5,167 Z" fill="#979797" fill-rule="nonzero"></path>
        <g id="Class" transform="translate(21.000000, 83.000000)">
            <path d="M8,0.5 C3.85786438,0.5 0.5,3.85786438 0.5,8 L0.5,49 C0.5,53.1421356 3.85786438,56.5 8,56.5 L62,56.5 C66.1421356,56.5 69.5,53.1421356 69.5,49 L69.5,8 C69.5,3.85786438 66.1421356,0.5 62,0.5 L8,0.5 Z" id="Rectangle-3" stroke="#979797" fill="#F8E71C"></path>
            <text id="0" font-family="Arial-BoldMT, Arial" font-size="12" font-weight="bold" fill="#000000">
                <tspan x="32.1630859" y="33">0</tspan>
            </text>
        </g>
        <g id="Class" transform="translate(161.000000, 94.000000)">
            <path d="M8,0.5 C3.85786438,0.5 0.5,3.85786438 0.5,8 L0.5,27 C0.5,31.1421356 3.85786438,34.5 8,34.5 L145,34.5 C149.142136,34.5 152.5,31.1421356 152.5,27 L152.5,8 C152.5,3.85786438 149.142136,0.5 145,0.5 L8,0.5 Z" id="Rectangle-3" stroke="#979797" fill="#B8E986"></path>
            <text id="MemoryRegionCache" font-family="Arial-BoldMT, Arial" font-size="12" font-weight="bold" fill="#000000">
                <tspan x="15.1523438" y="21">MemoryRegionCache</tspan>
            </text>
        </g>
        <path id="Line-12" d="M161,110.5 L152,106 L152,115 L161,110.5 Z M91.5,111 L152.5,111 L153,111 L153,110 L152.5,110 L91.5,110 L91,110 L91,111 L91.5,111 Z" fill="#979797" fill-rule="nonzero"></path>
        <g id="Class" transform="translate(21.000000, 195.000000)">
            <path d="M8,0.5 C3.85786438,0.5 0.5,3.85786438 0.5,8 L0.5,49 C0.5,53.1421356 3.85786438,56.5 8,56.5 L62,56.5 C66.1421356,56.5 69.5,53.1421356 69.5,49 L69.5,8 C69.5,3.85786438 66.1421356,0.5 62,0.5 L8,0.5 Z" id="Rectangle-3" stroke="#979797" fill="#F8E71C"></path>
            <text id="2-32B" font-family="Arial-BoldMT, Arial" font-size="12" font-weight="bold" fill="#000000">
                <tspan x="31.6630859" y="25">2</tspan>
                <tspan x="23.9931641" y="39">32B</tspan>
            </text>
        </g>
        <g id="Class" transform="translate(161.000000, 206.000000)">
            <path d="M8,0.5 C3.85786438,0.5 0.5,3.85786438 0.5,8 L0.5,27 C0.5,31.1421356 3.85786438,34.5 8,34.5 L145,34.5 C149.142136,34.5 152.5,31.1421356 152.5,27 L152.5,8 C152.5,3.85786438 149.142136,0.5 145,0.5 L8,0.5 Z" id="Rectangle-3" stroke="#979797" fill="#B8E986"></path>
            <text id="MemoryRegionCache" font-family="Arial-BoldMT, Arial" font-size="12" font-weight="bold" fill="#000000">
                <tspan x="15.1523438" y="21">MemoryRegionCache</tspan>
            </text>
        </g>
        <path id="Line-12" d="M161,222.5 L152,218 L152,227 L161,222.5 Z M91.5,223 L152.5,223 L153,223 L153,222 L152.5,222 L91.5,222 L91,222 L91,223 L91.5,223 Z" fill="#979797" fill-rule="nonzero"></path>
        <g id="Class" transform="translate(21.000000, 251.000000)">
            <path d="M8,0.5 C3.85786438,0.5 0.5,3.85786438 0.5,8 L0.5,49 C0.5,53.1421356 3.85786438,56.5 8,56.5 L62,56.5 C66.1421356,56.5 69.5,53.1421356 69.5,49 L69.5,8 C69.5,3.85786438 66.1421356,0.5 62,0.5 L8,0.5 Z" id="Rectangle-3" stroke="#979797" fill="#F8E71C"></path>
            <text id="…" font-family="Arial-BoldMT, Arial" font-size="12" font-weight="bold" fill="#000000">
                <tspan x="31" y="29">…</tspan>
            </text>
        </g>
        <g id="Class" transform="translate(161.000000, 262.000000)">
            <path d="M8,0.5 C3.85786438,0.5 0.5,3.85786438 0.5,8 L0.5,27 C0.5,31.1421356 3.85786438,34.5 8,34.5 L145,34.5 C149.142136,34.5 152.5,31.1421356 152.5,27 L152.5,8 C152.5,3.85786438 149.142136,0.5 145,0.5 L8,0.5 Z" id="Rectangle-3" stroke="#979797" fill="#B8E986"></path>
            <text id="MemoryRegionCache" font-family="Arial-BoldMT, Arial" font-size="12" font-weight="bold" fill="#000000">
                <tspan x="15.1523438" y="21">MemoryRegionCache</tspan>
            </text>
        </g>
        <path id="Line-12" d="M161,278.5 L152,274 L152,283 L161,278.5 Z M91.5,279 L152.5,279 L153,279 L153,278 L152.5,278 L91.5,278 L91,278 L91,279 L91.5,279 Z" fill="#979797" fill-rule="nonzero"></path>
        <g id="Class" transform="translate(21.000000, 307.000000)">
            <path d="M8,0.5 C3.85786438,0.5 0.5,3.85786438 0.5,8 L0.5,49 C0.5,53.1421356 3.85786438,56.5 8,56.5 L62,56.5 C66.1421356,56.5 69.5,53.1421356 69.5,49 L69.5,8 C69.5,3.85786438 66.1421356,0.5 62,0.5 L8,0.5 Z" id="Rectangle-3" stroke="#979797" fill="#F8E71C"></path>
            <text id="31-496B" font-family="Arial-BoldMT, Arial" font-size="12" font-weight="bold" fill="#000000">
                <tspan x="28.3261719" y="25">31</tspan>
                <tspan x="20.65625" y="39">496B</tspan>
            </text>
        </g>
        <g id="Class" transform="translate(161.000000, 318.000000)">
            <path d="M8,0.5 C3.85786438,0.5 0.5,3.85786438 0.5,8 L0.5,27 C0.5,31.1421356 3.85786438,34.5 8,34.5 L145,34.5 C149.142136,34.5 152.5,31.1421356 152.5,27 L152.5,8 C152.5,3.85786438 149.142136,0.5 145,0.5 L8,0.5 Z" id="Rectangle-3" stroke="#979797" fill="#B8E986"></path>
            <text id="MemoryRegionCache" font-family="Arial-BoldMT, Arial" font-size="12" font-weight="bold" fill="#000000">
                <tspan x="15.1523438" y="21">MemoryRegionCache</tspan>
            </text>
        </g>
        <path id="Line-12" d="M161,334.5 L152,330 L152,339 L161,334.5 Z M91.5,335 L152.5,335 L153,335 L153,334 L152.5,334 L91.5,334 L91,334 L91,335 L91.5,335 Z" fill="#979797" fill-rule="nonzero"></path>
        <g id="Class" transform="translate(671.000000, 94.000000)">
            <path d="M8,0.5 C3.85786438,0.5 0.5,3.85786438 0.5,8 L0.5,27 C0.5,31.1421356 3.85786438,34.5 8,34.5 L145,34.5 C149.142136,34.5 152.5,31.1421356 152.5,27 L152.5,8 C152.5,3.85786438 149.142136,0.5 145,0.5 L8,0.5 Z" id="Rectangle-3" stroke="#979797" fill="#B8E986"></path>
            <text id="Queue&lt;Entry&gt;" font-family="Arial-BoldMT, Arial" font-size="12" font-weight="bold" fill="#000000">
                <tspan x="35.484375" y="21">Queue&lt;Entry&gt;</tspan>
            </text>
        </g>
        <path id="Line-13" d="M662.754869,107.435788 L670.754869,111.935788 L670.754869,111.064212 L662.754869,115.564212 L662.319082,115.809343 L662.809343,116.680918 L663.245131,116.435788 L671.245131,111.935788 L672.019864,111.5 L671.245131,111.064212 L663.245131,106.564212 L662.809343,106.319082 L662.319082,107.190657 L662.754869,107.435788 Z M573.5,112 L578.5,112 L579,112 L579,111 L578.5,111 L573.5,111 L573,111 L573,112 L573.5,112 Z M583.5,112 L588.5,112 L589,112 L589,111 L588.5,111 L583.5,111 L583,111 L583,112 L583.5,112 Z M593.5,112 L598.5,112 L599,112 L599,111 L598.5,111 L593.5,111 L593,111 L593,112 L593.5,112 Z M603.5,112 L608.5,112 L609,112 L609,111 L608.5,111 L603.5,111 L603,111 L603,112 L603.5,112 Z M613.5,112 L618.5,112 L619,112 L619,111 L618.5,111 L613.5,111 L613,111 L613,112 L613.5,112 Z M623.5,112 L628.5,112 L629,112 L629,111 L628.5,111 L623.5,111 L623,111 L623,112 L623.5,112 Z M633.5,112 L638.5,112 L639,112 L639,111 L638.5,111 L633.5,111 L633,111 L633,112 L633.5,112 Z M643.5,112 L648.5,112 L649,112 L649,111 L648.5,111 L643.5,111 L643,111 L643,112 L643.5,112 Z M653.5,112 L658.5,112 L659,112 L659,111 L658.5,111 L653.5,111 L653,111 L653,112 L653.5,112 Z M663.5,112 L668.5,112 L669,112 L669,111 L668.5,111 L663.5,111 L663,111 L663,112 L663.5,112 Z" fill="#979797" fill-rule="nonzero"></path>
        <text id="Queue:" font-family="Arial-BoldMT, Arial" font-size="14" font-weight="bold" fill="#000000">
            <tspan x="452.719238" y="228">Queue</tspan>
            <tspan x="496.284668" y="228" font-size="12">:</tspan>
        </text>
        <ellipse id="Oval" stroke="#979797" fill="#4A90E2" cx="596" cy="224" rx="83" ry="37"></ellipse>
        <text id="handle" font-family="Arial-BoldMT, Arial" font-size="12" font-weight="bold" fill="#000000">
            <tspan x="574.164062" y="238">handle</tspan>
        </text>
        <text id="Chunk" font-family="Arial-BoldMT, Arial" font-size="12" font-weight="bold" fill="#000000">
            <tspan x="574.834961" y="212">Chunk</tspan>
        </text>
    </g>
</svg>