<?xml version="1.0" encoding="UTF-8"?>
<svg width="857px" height="440px" viewBox="0 0 857 440" version="1.1" xmlns="http://www.w3.org/2000/svg" xmlns:xlink="http://www.w3.org/1999/xlink">
    <!-- Generator: Sketch 51.2 (57519) - http://www.bohemiancoding.com/sketch -->
    <title>NioServerSocketChannel</title>
    <desc>Created with Sketch.</desc>
    <defs></defs>
    <g id="NioServerSocketChannel" stroke="none" stroke-width="1" fill="none" fill-rule="evenodd">
        <g id="Interface" transform="translate(30.000000, 10.000000)">
            <rect id="Rectangle" stroke="#979797" fill="#4A90E2" x="0.5" y="0.5" width="172" height="53" rx="8"></rect>
            <text id="Channel" font-family="Arial-BoldMT, Arial" font-size="12" font-weight="bold" fill="#000000">
                <tspan x="63.8310547" y="23">Channel</tspan>
            </text>
            <text id="&lt;&lt;interface&gt;&gt;" font-family="ArialMT, Arial" font-size="12" font-weight="normal" fill="#000000">
                <tspan x="49.4716797" y="40">&lt;&lt;interface&gt;&gt;</tspan>
            </text>
        </g>
        <g id="Abstract" transform="translate(0.000000, 98.000000)">
            <rect id="Rectangle-3" stroke="#979797" fill="#D8D8D8" x="0.5" y="0.5" width="232" height="50" rx="8"></rect>
            <text id="AbstrachChannel" font-family="Arial-BoldItalicMT, Arial" font-size="12" font-style="italic" font-weight="bold" fill="#000000">
                <tspan x="63.8242188" y="29">AbstrachChannel</tspan>
            </text>
        </g>
        <g id="Package" transform="translate(566.000000, 0.000000)">
            <rect id="Rectangle-2" stroke="#979797" fill="#FFFFFF" x="0.5" y="0.5" width="290" height="439" rx="8"></rect>
            <text id="package:-JDK" font-family="ArialMT, Arial" font-size="12" font-weight="normal" fill="#000000">
                <tspan x="9.64648438" y="24">package: JDK</tspan>
            </text>
            <rect id="inner" stroke="#979797" fill="#FFFFFF" x="47.5" y="38.5" width="210" height="160" rx="8"></rect>
            <rect id="inner" stroke="#979797" fill="#FFFFFF" x="19.5" y="220.5" width="254" height="209" rx="8"></rect>
            <g id="Class" transform="translate(29.000000, 370.000000)">
                <rect id="Rectangle-3" stroke="#979797" fill="#B8E986" x="0.5" y="0.5" width="232" height="50" rx="8"></rect>
                <text id="NioEventLoop" font-family="Arial-BoldMT, Arial" font-size="12" font-weight="bold" fill="#000000">
                    <tspan x="72.8359375" y="29">NioEventLoop</tspan>
                </text>
            </g>
            <g id="Class" transform="translate(29.000000, 304.000000)">
                <rect id="Rectangle-3" stroke="#979797" fill="#B8E986" x="0.5" y="0.5" width="232" height="50" rx="8"></rect>
                <text id="NioEventLoop" font-family="Arial-BoldMT, Arial" font-size="12" font-weight="bold" fill="#000000">
                    <tspan x="72.8359375" y="29">NioEventLoop</tspan>
                </text>
            </g>
            <g id="Interface" transform="translate(59.000000, 234.000000)">
                <rect id="Rectangle" stroke="#979797" fill="#4A90E2" x="0.5" y="0.5" width="172" height="53" rx="8"></rect>
                <text id="SelectableChannel" font-family="Arial-BoldMT, Arial" font-size="12" font-weight="bold" fill="#000000">
                    <tspan x="34.1474609" y="23">SelectableChannel</tspan>
                </text>
                <text id="SelectableChannel" font-family="Arial-BoldMT, Arial" font-size="12" font-weight="bold" fill="#000000">
                    <tspan x="34.1474609" y="23">SelectableChannel</tspan>
                </text>
                <text id="&lt;&lt;interface&gt;&gt;" font-family="ArialMT, Arial" font-size="12" font-weight="normal" fill="#000000">
                    <tspan x="49.4716797" y="40">&lt;&lt;interface&gt;&gt;</tspan>
                </text>
            </g>
            <g id="Interface" transform="translate(66.000000, 129.000000)">
                <rect id="Rectangle" stroke="#979797" fill="#4A90E2" x="0.5" y="0.5" width="172" height="53" rx="8"></rect>
                <text id="Selector" font-family="Arial-BoldMT, Arial" font-size="12" font-weight="bold" fill="#000000">
                    <tspan x="64.3222656" y="23">Selector</tspan>
                </text>
                <text id="&lt;&lt;interface&gt;&gt;" font-family="ArialMT, Arial" font-size="12" font-weight="normal" fill="#000000">
                    <tspan x="49.4716797" y="40">&lt;&lt;interface&gt;&gt;</tspan>
                </text>
            </g>
            <g id="Interface" transform="translate(66.000000, 58.000000)">
                <rect id="Rectangle" stroke="#979797" fill="#4A90E2" x="0.5" y="0.5" width="172" height="53" rx="8"></rect>
                <text id="SelectorProvide" font-family="Arial-BoldMT, Arial" font-size="12" font-weight="bold" fill="#000000">
                    <tspan x="41.3144531" y="24">SelectorProvide</tspan>
                </text>
                <text id="&lt;&lt;interface&gt;&gt;" font-family="ArialMT, Arial" font-size="12" font-weight="normal" fill="#000000">
                    <tspan x="49.4716797" y="38">&lt;&lt;interface&gt;&gt;</tspan>
                </text>
            </g>
        </g>
        <g id="Abstract" transform="translate(0.000000, 183.000000)">
            <rect id="Rectangle-3" stroke="#979797" fill="#D8D8D8" x="0.5" y="0.5" width="232" height="50" rx="8"></rect>
            <text id="AbstrachNioChannel" font-family="Arial-BoldItalicMT, Arial" font-size="12" font-style="italic" font-weight="bold" fill="#000000">
                <tspan x="54.1591797" y="29">AbstrachNioChannel</tspan>
            </text>
        </g>
        <g id="Abstract" transform="translate(0.000000, 268.000000)">
            <rect id="Rectangle-3" stroke="#979797" fill="#D8D8D8" x="0.5" y="0.5" width="232" height="50" rx="8"></rect>
            <text id="AbstrachNioMessageCh" font-family="Arial-BoldItalicMT, Arial" font-size="12" font-style="italic" font-weight="bold" fill="#000000">
                <tspan x="29.3115234" y="29">AbstrachNioMessageChannel</tspan>
            </text>
        </g>
        <g id="Class" transform="translate(0.000000, 353.000000)">
            <rect id="Rectangle-3" stroke="#979797" fill="#B8E986" x="0.5" y="0.5" width="232" height="50" rx="8"></rect>
            <text id="ReflectiveChannelFac" font-family="Arial-BoldMT, Arial" font-size="12" font-weight="bold" fill="#000000">
                <tspan x="39.8095703" y="29">ReflectiveChannelFactory</tspan>
            </text>
        </g>
        <g id="Class" transform="translate(300.000000, 98.000000)">
            <rect id="Rectangle-3" stroke="#979797" fill="#B8E986" x="0.5" y="0.5" width="232" height="50" rx="8"></rect>
            <text id="NioEventLoop" font-family="Arial-BoldMT, Arial" font-size="12" font-weight="bold" fill="#000000">
                <tspan x="72.8359375" y="29">NioEventLoop</tspan>
            </text>
        </g>
        <path id="Line-2" d="M117.5,62 L113,71 L122,71 L117.5,62 Z M118,97.5 L118,93.5 L118,93 L117,93 L117,93.5 L117,97.5 L117,98 L118,98 L118,97.5 Z M118,89.5 L118,85.5 L118,85 L117,85 L117,85.5 L117,89.5 L117,90 L118,90 L118,89.5 Z M118,81.5 L118,77.5 L118,77 L117,77 L117,77.5 L117,81.5 L117,82 L118,82 L118,81.5 Z M118,73.5 L118,70.5 L118,70 L117,70 L117,70.5 L117,73.5 L117,74 L118,74 L118,73.5 Z" fill="#000000" fill-rule="nonzero"></path>
        <path id="Line-3" d="M116.730123,149.296886 C116.678175,149.192989 116.593929,149.108744 116.490032,149.056795 C116.224835,148.924197 115.902358,149.031689 115.769759,149.296886 L111.806678,157.223049 C111.769405,157.297595 111.75,157.379795 111.75,157.46314 C111.75,157.75964 111.99036,158 112.28686,158 L120.213023,158 C120.296367,158 120.378568,157.980595 120.453114,157.943322 C120.718311,157.810724 120.825803,157.488246 120.693205,157.223049 L116.730123,149.296886 Z M116.75,182.5 L116.75,157.5 L116.75,157 L115.75,157 L115.75,157.5 L115.75,182.5 L115.75,183 L116.75,183 L116.75,182.5 Z" fill="#000000" fill-rule="nonzero"></path>
        <path id="Line-3" d="M117.730123,235.296886 C117.678175,235.192989 117.593929,235.108744 117.490032,235.056795 C117.224835,234.924197 116.902358,235.031689 116.769759,235.296886 L112.806678,243.223049 C112.769405,243.297595 112.75,243.379795 112.75,243.46314 C112.75,243.75964 112.99036,244 113.28686,244 L121.213023,244 C121.296367,244 121.378568,243.980595 121.453114,243.943322 C121.718311,243.810724 121.825803,243.488246 121.693205,243.223049 L117.730123,235.296886 Z M117.75,267.5 L117.75,243.5 L117.75,243 L116.75,243 L116.75,243.5 L116.75,267.5 L116.75,268 L117.75,268 L117.75,267.5 Z" fill="#000000" fill-rule="nonzero"></path>
        <path id="Line-3" d="M115.730123,319.296886 C115.678175,319.192989 115.593929,319.108744 115.490032,319.056795 C115.224835,318.924197 114.902358,319.031689 114.769759,319.296886 L110.806678,327.223049 C110.769405,327.297595 110.75,327.379795 110.75,327.46314 C110.75,327.75964 110.99036,328 111.28686,328 L119.213023,328 C119.296367,328 119.378568,327.980595 119.453114,327.943322 C119.718311,327.810724 119.825803,327.488246 119.693205,327.223049 L115.730123,319.296886 Z M115.75,351.5 L115.75,327.5 L115.75,327 L114.75,327 L114.75,327.5 L114.75,351.5 L114.75,352 L115.75,352 L115.75,351.5 Z" fill="#000000" fill-rule="nonzero"></path>
        <path id="Line-7" d="M292.754869,120.435788 L300.754869,124.935788 L300.754869,124.064212 L292.754869,128.564212 L292.319082,128.809343 L292.809343,129.680918 L293.245131,129.435788 L301.245131,124.935788 L302.019864,124.5 L301.245131,124.064212 L293.245131,119.564212 L292.809343,119.319082 L292.319082,120.190657 L292.754869,120.435788 Z M234.5,125 L240.5,125 L241,125 L241,124 L240.5,124 L234.5,124 L234,124 L234,125 L234.5,125 Z M246.5,125 L252.5,125 L253,125 L253,124 L252.5,124 L246.5,124 L246,124 L246,125 L246.5,125 Z M258.5,125 L264.5,125 L265,125 L265,124 L264.5,124 L258.5,124 L258,124 L258,125 L258.5,125 Z M270.5,125 L276.5,125 L277,125 L277,124 L276.5,124 L270.5,124 L270,124 L270,125 L270.5,125 Z M282.5,125 L288.5,125 L289,125 L289,124 L288.5,124 L282.5,124 L282,124 L282,125 L282.5,125 Z M294.5,125 L300,125 L300.5,125 L300.5,124 L300,124 L294.5,124 L294,124 L294,125 L294.5,125 Z" fill="#000000" fill-rule="nonzero"></path>
        <path id="Line-7" d="M605.754869,117.435788 L613.754869,121.935788 L613.754869,121.064212 L605.754869,125.564212 L605.319082,125.809343 L605.809343,126.680918 L606.245131,126.435788 L614.245131,121.935788 L615.019864,121.5 L614.245131,121.064212 L606.245131,116.564212 L605.809343,116.319082 L605.319082,117.190657 L605.754869,117.435788 Z M534.5,122 L540.5,122 L541,122 L541,121 L540.5,121 L534.5,121 L534,121 L534,122 L534.5,122 Z M546.5,122 L552.5,122 L553,122 L553,121 L552.5,121 L546.5,121 L546,121 L546,122 L546.5,122 Z M558.5,122 L564.5,122 L565,122 L565,121 L564.5,121 L558.5,121 L558,121 L558,122 L558.5,122 Z M570.5,122 L576.5,122 L577,122 L577,121 L576.5,121 L570.5,121 L570,121 L570,122 L570.5,122 Z M582.5,122 L588.5,122 L589,122 L589,121 L588.5,121 L582.5,121 L582,121 L582,122 L582.5,122 Z M594.5,122 L600.5,122 L601,122 L601,121 L600.5,121 L594.5,121 L594,121 L594,122 L594.5,122 Z M606.5,122 L612.5,122 L613,122 L613,121 L612.5,121 L606.5,121 L606,121 L606,122 L606.5,122 Z" fill="#000000" fill-rule="nonzero"></path>
        <path id="Line-7" d="M576.133673,323.783933 L583.716391,328.956205 L583.791454,328.087868 L575.433621,331.882156 L574.978341,332.088844 L575.391717,332.999404 L575.846997,332.792716 L584.20483,328.998428 L585.014217,328.630983 L584.279894,328.130091 L576.697176,322.957819 L576.28412,322.676068 L575.720616,323.502181 L576.133673,323.783933 Z M234.147505,214.854609 C235.575866,216.274455 237.004494,217.677481 238.433389,219.063685 L238.792263,219.411836 L239.488567,218.694089 L239.129693,218.345937 C237.703719,216.962567 236.277986,215.562385 234.852495,214.145391 L234.497886,213.792896 L233.792896,214.502114 L234.147505,214.854609 Z M242.768892,223.217257 C244.231029,224.600375 245.693447,225.965893 247.156146,227.313812 L247.523832,227.652645 L248.201497,226.917274 L247.833811,226.578441 C246.374321,225.233479 244.915082,223.87093 243.456096,222.490792 L243.092863,222.14719 L242.40566,222.873655 L242.768892,223.217257 Z M251.607455,231.360711 C253.107103,232.705555 254.607046,234.031913 256.107286,235.339785 L256.484176,235.668349 L257.141303,234.914569 L256.764413,234.586005 C255.267709,233.281215 253.771268,231.957954 252.275091,230.616224 L251.902847,230.282406 L251.235211,231.026893 L251.607455,231.360711 Z M260.667446,239.25752 C262.206111,240.559958 263.745087,241.842968 265.284375,243.106549 L265.670841,243.423793 L266.30533,242.650862 L265.918864,242.333617 C264.383477,241.073239 262.848366,239.793451 261.313531,238.494254 L260.931898,238.171212 L260.285813,238.934478 L260.667446,239.25752 Z M269.949455,246.875804 C271.527312,248.130301 273.105498,249.3644 274.684012,250.5781 L275.08039,250.88287 L275.68993,250.090115 L275.293552,249.785345 C273.719343,248.574955 272.145423,247.344191 270.571791,246.093054 L270.180416,245.781886 L269.558079,246.564636 L269.949455,246.875804 Z M279.483686,254.204896 C281.102378,255.406588 282.721415,256.586848 284.340799,257.745677 L284.747413,258.036649 L285.329358,257.223421 L284.922744,256.932449 C283.308116,255.777024 281.69379,254.600198 280.079766,253.401971 L279.678303,253.103931 L279.082224,253.906856 L279.483686,254.204896 Z M289.256034,261.196462 C290.916248,262.339561 292.576826,263.460154 294.23777,264.558239 L294.65486,264.833986 L295.206353,263.999807 L294.789264,263.72406 C293.133572,262.629447 291.478196,261.512365 289.823136,260.372814 L289.411312,260.089263 L288.84421,260.912911 L289.256034,261.196462 Z M299.282007,267.823184 C300.984216,268.90138 302.686809,269.955956 304.389787,270.986914 L304.817513,271.245853 L305.335393,270.390399 L304.907666,270.13146 C303.210482,269.104009 301.513628,268.052988 299.817105,266.978394 L299.39471,266.710845 L298.859612,267.555635 L299.282007,267.823184 Z M309.569764,274.049269 C311.315389,275.056499 313.061417,276.038934 314.807848,276.996574 L315.246263,277.236974 L315.727064,276.360145 L315.288649,276.119744 C313.5486,275.165604 311.808896,274.186728 310.069539,273.183113 L309.636461,272.933226 L309.136686,273.799382 L309.569764,274.049269 Z M320.120075,279.832363 C321.908696,280.761216 323.697741,281.664085 325.487208,282.540967 L325.936199,282.760984 L326.376232,281.863002 L325.927241,281.642986 C324.144781,280.769537 322.362683,279.870174 320.580947,278.944897 L320.137214,278.71446 L319.676341,279.601927 L320.120075,279.832363 Z M330.92627,285.125617 C332.756495,285.968226 334.587162,286.783677 336.41827,287.571969 L336.877522,287.769676 L337.272937,286.851174 L336.813686,286.653466 C334.990233,285.86847 333.167159,285.056401 331.344465,284.21726 L330.890286,284.008162 L330.472091,284.91652 L330.92627,285.125617 Z M341.989085,289.885866 C343.859139,290.634315 345.729653,291.354465 347.600625,292.046312 L348.069589,292.219726 L348.416417,291.281797 L347.947452,291.108383 C346.084791,290.419609 344.222527,289.702636 342.360658,288.957462 L341.896457,288.771676 L341.524883,289.700079 L341.989085,289.885866 Z M353.234712,294.043668 C354.010398,294.306821 354.786163,294.565115 355.562006,294.818549 C356.669512,295.180313 357.801773,295.540234 358.96031,295.898801 L359.437956,296.046632 L359.733619,295.09134 L359.255973,294.943508 C358.102345,294.586461 356.975029,294.228112 355.872512,293.867977 C355.100269,293.61572 354.32809,293.35862 353.55598,293.09668 L353.082486,292.936045 L352.761218,293.883034 L353.234712,294.043668 Z M364.721342,297.608988 C366.593603,298.142695 368.525171,298.673202 370.516051,299.200514 L370.999384,299.328532 L371.25542,298.361864 L370.772086,298.233847 C368.787173,297.708115 366.861636,297.179264 364.995481,296.647298 L364.514636,296.510229 L364.240497,297.471919 L364.721342,297.608988 Z M376.335466,300.690942 C378.235103,301.161729 380.183143,301.629918 382.17959,302.095509 L382.666524,302.209067 L382.89364,301.235199 L382.406706,301.121641 C380.414695,300.657085 378.471131,300.189972 376.576019,299.720306 L376.090701,299.600029 L375.850148,300.570665 L376.335466,300.690942 Z M388.039387,303.423983 C389.955607,303.846506 391.912567,304.266847 393.910271,304.685007 L394.399664,304.787447 L394.604544,303.80866 L394.115151,303.70622 C392.1209,303.288783 390.16742,302.869189 388.254713,302.447441 L387.766442,302.339778 L387.551116,303.31632 L388.039387,303.423983 Z M399.78869,305.885749 C401.717193,306.270285 403.680859,306.652941 405.679689,307.033717 L406.170856,307.127285 L406.357991,306.14495 L405.866823,306.051383 C403.870777,305.671137 401.909914,305.289027 399.984236,304.905055 L399.493889,304.807281 L399.298343,305.787976 L399.78869,305.885749 Z M411.584867,308.134524 C413.522618,308.488091 415.491279,308.840008 417.490852,309.190274 L417.983353,309.276545 L418.155896,308.291543 L417.663395,308.205272 C415.666125,307.855409 413.699782,307.503907 411.764366,307.150766 L411.272487,307.061016 L411.092988,308.044775 L411.584867,308.134524 Z M423.411196,310.207305 C425.358332,310.535397 427.333096,310.862015 429.335489,311.187158 L429.829025,311.267297 L429.989303,310.280225 L429.495767,310.200086 C427.495322,309.875259 425.522518,309.548965 423.577354,309.221205 L423.084304,309.138127 L422.918147,310.124226 L423.411196,310.207305 Z M435.26004,312.132237 C437.212723,312.438292 439.190325,312.743017 441.192847,313.046414 L441.687205,313.121313 L441.837003,312.132596 L441.342644,312.057697 C439.341795,311.754554 437.365876,311.450088 435.414885,311.144299 L434.920916,311.066876 L434.766071,312.054815 L435.26004,312.132237 Z M447.131171,313.931507 C449.089119,314.218634 451.069774,314.504549 453.073137,314.789254 L453.568163,314.859604 L453.708863,313.869552 L453.213837,313.799202 C451.211931,313.514704 449.232741,313.229 447.276265,312.942089 L446.781557,312.869542 L446.636462,313.85896 L447.131171,313.931507 Z M459.021809,315.621885 C460.983416,315.892334 462.96586,316.161672 464.969141,316.4299 L465.464718,316.496255 L465.597428,315.5051 L465.101851,315.438745 C463.099853,315.170689 461.118699,314.901526 459.158388,314.631256 L458.663074,314.562966 L458.526495,315.553595 L459.021809,315.621885 Z M470.918061,317.215192 C472.883731,317.471033 474.868669,317.725848 476.872877,317.979636 L477.368916,318.042448 L477.494541,317.050371 L476.998502,316.987558 C474.995436,316.733915 473.011644,316.479247 471.047127,316.223556 L470.551309,316.159023 L470.422243,317.150659 L470.918061,317.215192 Z M482.818733,318.722564 C484.786248,318.965161 486.771653,319.206805 488.774948,319.447496 L489.271378,319.507141 L489.390668,318.514281 L488.894238,318.454636 C486.891966,318.214069 484.907589,317.97255 482.941107,317.73008 L482.444865,317.668893 L482.322491,318.661377 L482.818733,318.722564 Z M494.734343,320.154509 C496.704206,320.385288 498.690777,320.615178 500.694054,320.844179 L501.190819,320.900965 L501.304392,319.907435 L500.807627,319.850649 C498.805275,319.621755 496.819633,319.391972 494.850702,319.161301 L494.354099,319.103122 L494.237739,320.096329 L494.734343,320.154509 Z M506.669492,321.519079 C508.642001,321.739212 510.630188,321.958511 512.634054,322.176975 L513.131109,322.231164 L513.239488,321.237055 L512.742433,321.182865 C510.739408,320.964493 508.752065,320.745288 506.780404,320.525248 L506.283489,320.469792 L506.172577,321.463622 L506.669492,321.519079 Z M518.602169,322.820218 C520.57685,323.030635 522.566298,323.240265 524.570512,323.449109 L525.067819,323.50093 L525.171461,322.506315 L524.674153,322.454495 C522.670708,322.245731 520.682033,322.036181 518.708127,321.825847 L518.210941,321.772868 L518.104984,322.767239 L518.602169,322.820218 Z M530.531507,324.063503 C532.507847,324.264994 534.498138,324.465742 536.502381,324.665748 L536.99991,324.715396 L537.099208,323.720339 L536.601679,323.67069 C534.598143,323.470755 532.608561,323.270078 530.632933,323.06866 L530.135511,323.017947 L530.034086,324.01279 L530.531507,324.063503 Z M542.480099,325.256025 C544.458054,325.449302 546.449231,325.641876 548.45363,325.833745 L548.951355,325.881389 L549.046643,324.88594 L548.548918,324.838295 C546.545172,324.646488 544.55465,324.453978 542.577352,324.260765 L542.079722,324.212139 L541.982469,325.207399 L542.480099,325.256025 Z M554.420991,326.399222 C556.400265,326.5849 558.392102,326.769909 560.396503,326.95425 L560.894402,327.000041 L560.985983,326.004243 L560.488085,325.958452 C558.484288,325.774167 556.493058,325.589214 554.514393,325.403593 L554.016578,325.356893 L553.923177,326.352521 L554.420991,326.399222 Z M566.385735,327.499704 C568.366073,327.678307 570.358377,327.856273 572.362646,328.033601 L572.8607,328.077667 L572.948831,327.081558 L572.450777,327.037492 C570.44707,326.860213 568.455331,326.682298 566.475559,326.503746 L565.97758,326.458834 L565.887757,327.454792 L566.385735,327.499704 Z M578.334443,328.555413 L582.958796,328.955166 L583.456938,328.998228 L583.543062,328.001944 L583.04492,327.958882 L578.420567,327.559129 L577.922425,327.516067 L577.836301,328.512351 L578.334443,328.555413 Z" fill="#000000" fill-rule="nonzero"></path>
    </g>
</svg>