<?xml version="1.0" encoding="UTF-8"?>
<svg width="968px" height="602px" viewBox="0 0 968 602" version="1.1" xmlns="http://www.w3.org/2000/svg" xmlns:xlink="http://www.w3.org/1999/xlink">
    <!-- Generator: Sketch 51.2 (57519) - http://www.bohemiancoding.com/sketch -->
    <title>EventLoopGroup</title>
    <desc>Created with Sketch.</desc>
    <defs></defs>
    <g id="EventLoopGroup" stroke="none" stroke-width="1" fill="none" fill-rule="evenodd">
        <g id="Package" transform="translate(309.000000, 22.000000)">
            <rect id="Rectangle-2" stroke="#979797" fill="#FFFFFF" x="0.5" y="0.5" width="253" height="94" rx="8"></rect>
            <text id="package:-JDK" font-family="ArialMT, Arial" font-size="12" font-weight="normal" fill="#000000">
                <tspan x="9.64648438" y="17">package: JDK</tspan>
            </text>
            <g id="Interface" transform="translate(39.000000, 25.000000)">
                <rect id="Rectangle" stroke="#979797" fill="#4A90E2" x="0.5" y="0.5" width="172" height="53" rx="8"></rect>
                <text id="ScheduleExecutorServ" font-family="Arial-BoldMT, Arial" font-size="12" font-weight="bold" fill="#000000">
                    <tspan x="13.7978516" y="23">ScheduleExecutorService</tspan>
                </text>
                <text id="&lt;&lt;interface&gt;&gt;" font-family="ArialMT, Arial" font-size="12" font-weight="normal" fill="#000000">
                    <tspan x="49.4716797" y="40">&lt;&lt;interface&gt;&gt;</tspan>
                </text>
            </g>
        </g>
        <path id="Line" d="M433.5,101 L429,110 L438,110 L433.5,101 Z M434,132.5 L434,109.5 L434,109 L433,109 L433,109.5 L433,132.5 L433,133 L434,133 L434,132.5 Z" fill="#000000" fill-rule="nonzero"></path>
        <g id="Abstract" transform="translate(316.000000, 224.000000)">
            <rect id="Rectangle-3" stroke="#979797" fill="#D8D8D8" x="0.5" y="0.5" width="232" height="50" rx="8"></rect>
            <text id="AbstractEventExecuto" font-family="Arial-BoldItalicMT, Arial" font-size="12" font-style="italic" font-weight="bold" fill="#000000">
                <tspan x="29.1484375" y="29">AbstractEventExecutorGroup</tspan>
            </text>
        </g>
        <g id="Interface" transform="translate(348.000000, 132.000000)">
            <rect id="Rectangle" stroke="#979797" fill="#4A90E2" x="0.5" y="0.5" width="172" height="53" rx="8"></rect>
            <text id="EventExecutorGroup" font-family="Arial-BoldMT, Arial" font-size="12" font-weight="bold" fill="#000000">
                <tspan x="27.4882812" y="23">EventExecutorGroup</tspan>
            </text>
            <text id="&lt;&lt;interface&gt;&gt;" font-family="ArialMT, Arial" font-size="12" font-weight="normal" fill="#000000">
                <tspan x="49.4716797" y="40">&lt;&lt;interface&gt;&gt;</tspan>
            </text>
        </g>
        <path id="Line-2" d="M433.5,186 L429,195 L438,195 L433.5,186 Z M434,223.5 L434,219.5 L434,219 L433,219 L433,219.5 L433,223.5 L433,224 L434,224 L434,223.5 Z M434,215.5 L434,211.5 L434,211 L433,211 L433,211.5 L433,215.5 L433,216 L434,216 L434,215.5 Z M434,207.5 L434,203.5 L434,203 L433,203 L433,203.5 L433,207.5 L433,208 L434,208 L434,207.5 Z M434,199.5 L434,195.5 L434,195 L433,195 L433,195.5 L433,199.5 L433,200 L434,200 L434,199.5 Z" fill="#000000" fill-rule="nonzero"></path>
        <g id="Abstract" transform="translate(316.000000, 316.000000)">
            <rect id="Rectangle-3" stroke="#979797" fill="#D8D8D8" x="0.5" y="0.5" width="232" height="50" rx="8"></rect>
            <text id="MultithreadEventExec" font-family="Arial-BoldItalicMT, Arial" font-size="12" font-style="italic" font-weight="bold" fill="#000000">
                <tspan x="21.15625" y="29">MultithreadEventExecutorGroup</tspan>
            </text>
        </g>
        <g id="Abstract" transform="translate(586.000000, 316.000000)">
            <rect id="Rectangle-3" stroke="#979797" fill="#D8D8D8" x="0.5" y="0.5" width="232" height="50" rx="8"></rect>
            <text id="SingleThreadEventExe" font-family="Arial-BoldItalicMT, Arial" font-size="12" font-style="italic" font-weight="bold" fill="#000000">
                <tspan x="15.4814453" y="29">SingleThreadEventExecutorGroup</tspan>
            </text>
        </g>
        <path id="Line-3" d="M432.5,275 L428,284 L437,284 L432.5,275 Z M433,315.5 L433,283.5 L433,283 L432,283 L432,283.5 L432,315.5 L432,316 L433,316 L433,315.5 Z" fill="#000000" fill-rule="nonzero"></path>
        <g id="Class" transform="translate(314.000000, 437.000000)">
            <rect id="Rectangle-3" stroke="#979797" fill="#B8E986" x="0.5" y="0.5" width="232" height="50" rx="8"></rect>
            <text id="NioEventLoopGroup" font-family="Arial-BoldMT, Arial" font-size="12" font-weight="bold" fill="#000000">
                <tspan x="54.8388672" y="29">NioEventLoopGroup</tspan>
            </text>
        </g>
        <path id="Line-5" d="M431.5,366 L427,375 L436,375 L431.5,366 Z M432,436.5 L432,374.5 L432,374 L431,374 L431,374.5 L431,436.5 L431,437 L432,437 L432,436.5 Z" fill="#000000" fill-rule="nonzero"></path>
        <g id="Interface" transform="translate(616.000000, 388.000000)">
            <rect id="Rectangle" stroke="#979797" fill="#4A90E2" x="0.5" y="0.5" width="172" height="53" rx="8"></rect>
            <text id="EventLoopGroup" font-family="Arial-BoldMT, Arial" font-size="12" font-weight="bold" fill="#000000">
                <tspan x="38.5039062" y="23">EventLoopGroup</tspan>
            </text>
            <text id="&lt;&lt;interface&gt;&gt;" font-family="ArialMT, Arial" font-size="12" font-weight="normal" fill="#000000">
                <tspan x="49.4716797" y="40">&lt;&lt;interface&gt;&gt;</tspan>
            </text>
        </g>
        <path id="Line-6" d="M695.379237,441.530309 L694.23787,451.527673 L702.692307,448.441821 L695.379237,441.530309 Z M546.975795,466.471898 C548.656109,466.553336 550.32268,466.633131 551.97551,466.711284 L552.474952,466.7349 L552.522183,465.736016 L552.022741,465.7124 C550.370306,465.634266 548.704127,465.554489 547.024205,465.47307 L546.524791,465.448866 L546.476382,466.447693 L546.975795,466.471898 Z M556.959174,466.943872 C558.640795,467.021303 560.307699,467.096975 561.959888,467.170887 L562.459389,467.193233 L562.50408,466.194232 L562.00458,466.171887 C560.352828,466.097993 558.686358,466.022341 557.005171,465.94493 L556.5057,465.921932 L556.459703,466.920873 L556.959174,466.943872 Z M566.957163,467.391028 C568.638729,467.463933 570.304483,467.534947 571.954426,467.604072 L572.453988,467.625001 L572.495846,466.625878 L571.996284,466.604948 C570.346829,466.535844 568.681561,466.46485 567.000478,466.391966 L566.500947,466.370309 L566.457632,467.36937 L566.957163,467.391028 Z M576.952035,467.809618 C578.636178,467.877569 580.303184,467.943471 581.953053,468.007325 L582.452679,468.026661 L582.491352,467.027409 L581.991726,467.008073 C580.342407,466.944241 578.675948,466.87836 576.99235,466.810431 L576.492756,466.790274 L576.452442,467.789461 L576.952035,467.809618 Z M586.941044,468.196059 C588.624145,468.258258 590.288634,468.318231 591.93451,468.375979 L592.434203,468.393511 L592.469268,467.394126 L591.969575,467.376594 C590.324324,467.318868 588.660457,467.258917 586.977973,467.196741 L586.478314,467.178276 L586.441385,468.177594 L586.941044,468.196059 Z M596.938002,468.546577 C598.623075,468.602322 600.287703,468.655622 601.931884,468.706478 L602.431645,468.721936 L602.462561,467.722414 L601.9628,467.706956 C600.319339,467.656122 598.655427,467.602845 596.971065,467.547124 L596.471338,467.530592 L596.438275,468.530045 L596.938002,468.546577 Z M606.942596,468.855707 C608.630977,468.904 610.296652,468.949578 611.939621,468.992442 L612.43945,469.005482 L612.465531,468.005822 L611.965701,467.992782 C610.323575,467.94994 608.658737,467.904385 606.971187,467.856116 L606.471392,467.84182 L606.4428,468.841412 L606.942596,468.855707 Z M616.939017,469.116129 C618.631786,469.15566 620.299022,469.192138 621.940724,469.225562 L622.44062,469.23574 L622.460975,468.235947 L621.961079,468.22577 C620.320382,468.192365 618.654143,468.15591 616.962363,468.116402 L616.462499,468.104729 L616.439153,469.104456 L616.939017,469.116129 Z M626.93673,469.319202 C628.631946,469.348144 630.298106,469.373611 631.935209,469.395604 L632.435164,469.40232 L632.448596,468.40241 L631.948641,468.395694 C630.312762,468.373718 628.647814,468.348269 626.9538,468.319348 L626.453873,468.310813 L626.436803,469.310667 L626.93673,469.319202 Z M636.944221,469.452904 C638.646164,469.468849 640.314256,469.480745 641.948499,469.488592 L642.448493,469.490993 L642.453295,468.491005 L641.953301,468.488604 C640.320596,468.480764 638.654025,468.468878 636.953589,468.452948 L636.453611,468.448264 L636.444243,469.44822 L636.944221,469.452904 Z M646.944155,469.499937 C648.652342,469.499297 650.320143,469.493826 651.947561,469.483524 L652.447551,469.480359 L652.441221,468.480379 L651.941231,468.483544 C650.315823,468.493834 648.650005,468.499298 646.943781,468.499937 L646.443781,468.500124 L646.444155,469.500124 L646.944155,469.499937 Z M656.951881,469.434938 C658.66945,469.412141 660.336957,469.383351 661.954407,469.34857 L662.454292,469.33782 L662.432793,468.338052 L661.932908,468.348801 C660.318243,468.383523 658.653475,468.412265 656.938609,468.435026 L656.438653,468.441662 L656.451925,469.441574 L656.951881,469.434938 Z M666.960603,469.216777 C668.694395,469.162181 670.362283,469.099691 671.964278,469.029303 L672.463796,469.007356 L672.419901,468.00832 L671.920383,468.030267 C670.322612,468.100469 668.658858,468.162805 666.929129,468.217272 L666.429377,468.233009 L666.460851,469.232514 L666.960603,469.216777 Z M676.962455,468.771318 C678.724716,468.665493 680.390896,468.548132 681.961031,468.419225 L682.459354,468.378312 L682.37753,467.381666 L681.879206,467.422578 C680.316579,467.550869 678.65767,467.667718 676.902513,467.773116 L676.403412,467.803087 L676.463354,468.801289 L676.962455,468.771318 Z M686.95494,467.93351 C688.791221,467.722559 690.450861,467.4902 691.934135,467.236315 L692.426968,467.151959 L692.258256,466.166293 L691.765423,466.250649 C690.301293,466.501258 688.659664,466.731095 686.840811,466.940044 L686.344078,466.997109 L686.458207,467.990575 L686.95494,467.93351 Z M696.883371,466.103738 C698.930843,465.424554 700.393171,464.483085 701.314702,463.278588 L701.61852,462.88148 L700.824304,462.273844 L700.520486,462.670952 C699.732143,463.701363 698.438311,464.534353 696.568523,465.154596 L696.093952,465.31202 L696.4088,466.261162 L696.883371,466.103738 Z M702.373924,458.107794 C702.139802,456.671573 701.596303,455.103878 700.739318,453.240832 L700.530369,452.786585 L699.621875,453.204484 L699.830825,453.658731 C700.653461,455.447106 701.169766,456.93636 701.386951,458.268682 L701.467396,458.762169 L702.454368,458.60128 L702.373924,458.107794 Z" fill="#000000" fill-rule="nonzero"></path>
        <path id="Line-4" d="M549.500194,251.410839 L558.622099,255.658293 L558.371299,246.661788 L549.500194,251.410839 Z M705.448057,314.778089 C691.840514,287.303341 674.833232,269.365082 654.420281,260.98878 C635.165904,253.08789 603.020826,249.656095 557.959445,250.67483 L557.459573,250.686131 L557.482175,251.685876 L557.982047,251.674575 C602.916565,250.658707 634.944636,254.078011 654.040656,261.913921 C674.205397,270.188371 691.044469,287.949212 704.551943,315.221911 L704.773854,315.669969 L705.669969,315.226146 L705.448057,314.778089 Z" fill="#000000" fill-rule="nonzero"></path>
        <g id="Class" transform="translate(20.000000, 437.000000)">
            <rect id="Rectangle-3" stroke="#979797" fill="#B8E986" x="0.5" y="0.5" width="232" height="50" rx="8"></rect>
            <text id="NioEventLoopGroup" font-family="Arial-BoldMT, Arial" font-size="12" font-weight="bold" fill="#000000">
                <tspan x="54.8388672" y="29">NioEventLoopGroup</tspan>
            </text>
        </g>
        <path id="Line-7" d="M260.245131,467.314212 L252.245131,462.814212 L252.245131,463.685788 L260.245131,459.185788 L260.680918,458.940657 L260.190657,458.069082 L259.754869,458.314212 L251.754869,462.814212 L250.980136,463.25 L251.754869,463.685788 L259.754869,468.185788 L260.190657,468.430918 L260.680918,467.559343 L260.245131,467.314212 Z M313.5,462.75 L307.5,462.75 L307,462.75 L307,463.75 L307.5,463.75 L313.5,463.75 L314,463.75 L314,462.75 L313.5,462.75 Z M301.5,462.75 L295.5,462.75 L295,462.75 L295,463.75 L295.5,463.75 L301.5,463.75 L302,463.75 L302,462.75 L301.5,462.75 Z M289.5,462.75 L283.5,462.75 L283,462.75 L283,463.75 L283.5,463.75 L289.5,463.75 L290,463.75 L290,462.75 L289.5,462.75 Z M277.5,462.75 L271.5,462.75 L271,462.75 L271,463.75 L271.5,463.75 L277.5,463.75 L278,463.75 L278,462.75 L277.5,462.75 Z M265.5,462.75 L260,462.75 L259.5,462.75 L259,462.75 L259,463.75 L259.5,463.75 L260,463.75 L265.5,463.75 L266,463.75 L266,462.75 L265.5,462.75 Z M253.5,462.75 L253,462.75 L252.5,462.75 L252.5,463.75 L253,463.75 L253.5,463.75 L254,463.75 L254,462.75 L253.5,462.75 Z" fill="#000000" fill-rule="nonzero"></path>
        <path id="Line-7-Copy" d="M261.147415,378.564184 L252.11687,376.921244 L252.401298,377.745103 L258.494806,370.880764 L258.82674,370.506839 L258.078892,369.84297 L257.746957,370.216895 L251.653449,377.081234 L251.063343,377.745989 L251.937877,377.905094 L260.968422,379.548034 L261.460347,379.637531 L261.63934,378.653681 L261.147415,378.564184 Z M315.336831,355.027373 L309.665311,356.985398 L309.192685,357.148567 L309.519022,358.09382 L309.991649,357.930651 L315.663169,355.972627 L316.135795,355.809458 L315.809458,354.864205 L315.336831,355.027373 Z M303.993791,358.943423 L298.322271,360.901448 L297.849645,361.064616 L298.175982,362.00987 L298.648609,361.846701 L304.320129,359.888676 L304.792755,359.725507 L304.466418,358.780254 L303.993791,358.943423 Z M292.650751,362.859472 L286.979231,364.817497 L286.506605,364.980666 L286.832942,365.925919 L287.305569,365.76275 L292.977089,363.804726 L293.449715,363.641557 L293.123378,362.696304 L292.650751,362.859472 Z M281.307711,366.775522 L275.636191,368.733547 L275.163565,368.896715 L275.489902,369.841969 L275.962529,369.6788 L281.634049,367.720775 L282.106675,367.557606 L281.780338,366.612353 L281.307711,366.775522 Z M269.964671,370.691571 L264.293151,372.649596 L263.820525,372.812765 L264.146862,373.758018 L264.619489,373.59485 L270.291009,371.636825 L270.763635,371.473656 L270.437298,370.528403 L269.964671,370.691571 Z M258.621631,374.607621 L252.950111,376.565646 L252.477485,376.728814 L252.803822,377.674068 L253.276449,377.510899 L258.947969,375.552874 L259.420595,375.389706 L259.094258,374.444452 L258.621631,374.607621 Z" fill="#000000" fill-rule="nonzero"></path>
        <g id="Interface" transform="translate(80.000000, 262.000000)">
            <rect id="Rectangle" stroke="#979797" fill="#4A90E2" x="0.5" y="0.5" width="172" height="53" rx="8"></rect>
            <text id="EventExecutor" font-family="Arial-BoldMT, Arial" font-size="12" font-weight="bold" fill="#000000">
                <tspan x="45.4853516" y="23">EventExecutor</tspan>
            </text>
            <text id="&lt;&lt;interface&gt;&gt;" font-family="ArialMT, Arial" font-size="12" font-weight="normal" fill="#000000">
                <tspan x="49.4716797" y="40">&lt;&lt;interface&gt;&gt;</tspan>
            </text>
        </g>
        <g id="Class" transform="translate(20.000000, 351.000000)">
            <rect id="Rectangle-3" stroke="#979797" fill="#B8E986" x="0.5" y="0.5" width="232" height="50" rx="8"></rect>
            <text id="DefaultEventExecutor" font-family="Arial-BoldMT, Arial" font-size="12" font-weight="bold" fill="#000000">
                <tspan x="5.13964844" y="29">DefaultEventExecutorChooserFactory</tspan>
            </text>
        </g>
        <path id="Line-8" d="M312.235141,339.618725 L319.618725,344.764859 L324.764859,337.381275 L317.381275,332.235141 Z M252.214104,292.910199 L314.957169,336.640214 L315.367368,336.92611 L315.939161,336.105712 L315.528961,335.819816 L252.785896,292.089801 L252.375697,291.803905 L251.803905,292.624303 L252.214104,292.910199 Z" fill="#000000" fill-rule="nonzero"></path>
        <text id="1" font-family="Arial-BoldMT, Arial" font-size="12" font-weight="bold" fill="#000000">
            <tspan x="304.163086" y="321">1</tspan>
        </text>
        <text id="n" font-family="Arial-BoldMT, Arial" font-size="12" font-weight="bold" fill="#000000">
            <tspan x="262.834961" y="294">n</tspan>
        </text>
    </g>
</svg>