<?xml version="1.0" encoding="UTF-8"?>
<svg width="1024px" height="445px" viewBox="0 0 1024 445" version="1.1" xmlns="http://www.w3.org/2000/svg" xmlns:xlink="http://www.w3.org/1999/xlink">
    <!-- Generator: Sketch 51.2 (57519) - http://www.bohemiancoding.com/sketch -->
    <title>Future</title>
    <desc>Created with Sketch.</desc>
    <defs></defs>
    <g id="Future" stroke="none" stroke-width="1" fill="none" fill-rule="evenodd">
        <g id="Package" transform="translate(542.000000, 0.000000)">
            <rect id="Rectangle-2" stroke="#979797" fill="#FFFFFF" x="0.5" y="0.5" width="253" height="94" rx="8"></rect>
            <text id="package:-JDK" font-family="ArialMT, Arial" font-size="12" font-weight="normal" fill="#000000">
                <tspan x="9.64648438" y="17">package: JDK</tspan>
            </text>
            <g id="Interface" transform="translate(43.000000, 29.000000)">
                <rect id="Rectangle" stroke="#979797" fill="#4A90E2" x="0.5" y="0.5" width="172" height="53" rx="8"></rect>
                <text id="Future" font-family="Arial-BoldMT, Arial" font-size="12" font-weight="bold" fill="#000000">
                    <tspan x="69.3349609" y="23">Future</tspan>
                </text>
                <text id="&lt;&lt;interface&gt;&gt;" font-family="ArialMT, Arial" font-size="12" font-weight="normal" fill="#000000">
                    <tspan x="49.4716797" y="40">&lt;&lt;interface&gt;&gt;</tspan>
                </text>
            </g>
        </g>
        <g id="Interface" transform="translate(583.000000, 127.000000)">
            <rect id="Rectangle" stroke="#979797" fill="#4A90E2" x="0.5" y="0.5" width="172" height="53" rx="8"></rect>
            <text id="Future" font-family="Arial-BoldMT, Arial" font-size="12" font-weight="bold" fill="#000000">
                <tspan x="69.3349609" y="23">Future</tspan>
            </text>
            <text id="&lt;&lt;interface&gt;&gt;" font-family="ArialMT, Arial" font-size="12" font-weight="normal" fill="#000000">
                <tspan x="49.4716797" y="40">&lt;&lt;interface&gt;&gt;</tspan>
            </text>
        </g>
        <g id="Interface" transform="translate(583.000000, 261.000000)">
            <rect id="Rectangle" stroke="#979797" fill="#4A90E2" x="0.5" y="0.5" width="172" height="53" rx="8"></rect>
            <text id="Promise" font-family="Arial-BoldMT, Arial" font-size="12" font-weight="bold" fill="#000000">
                <tspan x="64.3222656" y="23">Promise</tspan>
            </text>
            <text id="&lt;&lt;interface&gt;&gt;" font-family="ArialMT, Arial" font-size="12" font-weight="normal" fill="#000000">
                <tspan x="49.4716797" y="40">&lt;&lt;interface&gt;&gt;</tspan>
            </text>
        </g>
        <g id="Interface" transform="translate(851.000000, 174.000000)">
            <rect id="Rectangle" stroke="#979797" fill="#4A90E2" x="0.5" y="0.5" width="172" height="53" rx="8"></rect>
            <text id="ChannelFuture" font-family="Arial-BoldMT, Arial" font-size="12" font-weight="bold" fill="#000000">
                <tspan x="45.6660156" y="23">ChannelFuture</tspan>
            </text>
            <text id="&lt;&lt;interface&gt;&gt;" font-family="ArialMT, Arial" font-size="12" font-weight="normal" fill="#000000">
                <tspan x="49.4716797" y="40">&lt;&lt;interface&gt;&gt;</tspan>
            </text>
        </g>
        <g id="Interface" transform="translate(851.000000, 261.000000)">
            <rect id="Rectangle" stroke="#979797" fill="#4A90E2" x="0.5" y="0.5" width="172" height="53" rx="8"></rect>
            <text id="ChannelPromise" font-family="Arial-BoldMT, Arial" font-size="12" font-weight="bold" fill="#000000">
                <tspan x="40.6533203" y="23">ChannelPromise</tspan>
            </text>
            <text id="&lt;&lt;interface&gt;&gt;" font-family="ArialMT, Arial" font-size="12" font-weight="normal" fill="#000000">
                <tspan x="49.4716797" y="40">&lt;&lt;interface&gt;&gt;</tspan>
            </text>
        </g>
        <path id="Line-3" d="M670.980123,83.2968864 C670.928175,83.1929893 670.843929,83.108744 670.740032,83.0567954 C670.474835,82.9241968 670.152358,83.0316892 670.019759,83.2968864 L666.056678,91.2230491 C666.019405,91.297595 666,91.3797953 666,91.4631401 C666,91.7596396 666.24036,92 666.53686,92 L674.463023,92 C674.546367,92 674.628568,91.9805952 674.703114,91.9433222 C674.968311,91.8107236 675.075803,91.4882463 674.943205,91.2230491 L670.980123,83.2968864 Z M671,128.5 L671,91.5 L671,91 L670,91 L670,91.5 L670,128.5 L670,129 L671,129 L671,128.5 Z" fill="#000000" fill-rule="nonzero"></path>
        <path id="Line-3" d="M670.980123,182.296886 C670.928175,182.192989 670.843929,182.108744 670.740032,182.056795 C670.474835,181.924197 670.152358,182.031689 670.019759,182.296886 L666.056678,190.223049 C666.019405,190.297595 666,190.379795 666,190.46314 C666,190.75964 666.24036,191 666.53686,191 L674.463023,191 C674.546367,191 674.628568,190.980595 674.703114,190.943322 C674.968311,190.810724 675.075803,190.488246 674.943205,190.223049 L670.980123,182.296886 Z M671,260.5 L671,190.5 L671,190 L670,190 L670,190.5 L670,260.5 L670,261 L671,261 L671,260.5 Z" fill="#000000" fill-rule="nonzero"></path>
        <path id="Line-3" d="M755.5243,155.979248 C755.408156,155.9812 755.295778,156.020769 755.204034,156.092017 C754.969857,156.273878 754.927447,156.611143 755.109307,156.845319 L760.54472,163.844345 C760.595841,163.910171 760.661585,163.963191 760.736747,163.999206 C761.004135,164.127329 761.32476,164.014433 761.452883,163.747045 L764.877938,156.599104 C764.913953,156.523943 764.931974,156.441428 764.930573,156.358095 C764.925591,156.061637 764.681225,155.82535 764.384768,155.830332 L755.5243,155.979248 Z M851.71606,202.049092 L762.879364,159.481508 L762.428456,159.265448 L761.996336,160.167264 L762.447244,160.383325 L851.28394,202.950908 L851.734848,203.166968 L852.166968,202.265152 L851.71606,202.049092 Z" fill="#000000" fill-rule="nonzero"></path>
        <path id="Line-3" d="M940.980123,228.296886 C940.928175,228.192989 940.843929,228.108744 940.740032,228.056795 C940.474835,227.924197 940.152358,228.031689 940.019759,228.296886 L936.056678,236.223049 C936.019405,236.297595 936,236.379795 936,236.46314 C936,236.75964 936.24036,237 936.53686,237 L944.463023,237 C944.546367,237 944.628568,236.980595 944.703114,236.943322 C944.968311,236.810724 945.075803,236.488246 944.943205,236.223049 L940.980123,228.296886 Z M941,261.5 L941,236.5 L941,236 L940,236 L940,236.5 L940,261.5 L940,262 L941,262 L941,261.5 Z" fill="#000000" fill-rule="nonzero"></path>
        <path id="Line-3" d="M755.296886,287.019877 C755.192989,287.071825 755.108744,287.156071 755.056795,287.259968 C754.924197,287.525165 755.031689,287.847642 755.296886,287.980241 L763.223049,291.943322 C763.297595,291.980595 763.379795,292 763.46314,292 C763.75964,292 764,291.75964 764,291.46314 L764,283.536977 C764,283.453633 763.980595,283.371432 763.943322,283.296886 C763.810724,283.031689 763.488246,282.924197 763.223049,283.056795 L755.296886,287.019877 Z M851.5,287 L763.5,287 L763,287 L763,288 L763.5,288 L851.5,288 L852,288 L852,287 L851.5,287 Z" fill="#000000" fill-rule="nonzero"></path>
        <g id="Class" transform="translate(273.000000, 262.000000)">
            <rect id="Rectangle-3" stroke="#979797" fill="#B8E986" x="0.5" y="0.5" width="232" height="50" rx="8"></rect>
            <text id="DefaultPromise" font-family="Arial-BoldMT, Arial" font-size="12" font-weight="bold" fill="#000000">
                <tspan x="69.4873047" y="29">DefaultPromise</tspan>
            </text>
        </g>
        <g id="Abstract" transform="translate(273.000000, 160.000000)">
            <rect id="Rectangle-3" stroke="#979797" fill="#D8D8D8" x="0.5" y="0.5" width="232" height="50" rx="8"></rect>
            <text id="AbstrachFuture" font-family="Arial-BoldItalicMT, Arial" font-size="12" font-style="italic" font-weight="bold" fill="#000000">
                <tspan x="69.328125" y="29">AbstrachFuture</tspan>
            </text>
        </g>
        <path id="Line-2" d="M583.324068,147.619238 L574.063979,151.556337 L580.917694,157.389569 L583.324068,147.619238 Z M507.578479,185.993803 C508.919157,185.780732 510.236028,185.565686 511.529093,185.348664 L512.022196,185.265904 L511.856676,184.279698 L511.363573,184.362458 C510.073385,184.578997 508.759368,184.793577 507.421521,185.006197 L506.927719,185.084676 L507.084676,186.072281 L507.578479,185.993803 Z M515.477203,184.666745 C516.818175,184.42832 518.131479,184.187596 519.417117,183.944572 L519.908416,183.851702 L519.722675,182.869103 L519.231376,182.961973 C517.949333,183.204318 516.63959,183.444389 515.302148,183.682186 L514.809869,183.769713 L514.984923,184.754272 L515.477203,184.666745 Z M523.34846,183.176869 C524.689076,182.906307 525.996732,182.633 527.271431,182.356945 L527.760103,182.251116 L527.548445,181.273772 L527.059773,181.379601 C525.789733,181.654647 524.486684,181.926992 523.15063,182.196632 L522.660512,182.295547 L522.858342,183.275784 L523.34846,183.176869 Z M531.183977,181.476823 C532.522966,181.163746 533.821318,180.847271 535.079041,180.527392 L535.563614,180.404149 L535.317129,179.435002 L534.832555,179.558245 C533.581182,179.876509 532.289095,180.191458 530.956302,180.503085 L530.469433,180.616923 L530.697108,181.59066 L531.183977,181.476823 Z M538.957263,179.494338 C540.293707,179.121064 541.57732,178.743336 542.808116,178.361142 L543.285623,178.212863 L542.989066,177.257848 L542.511559,177.406127 C541.290082,177.785427 540.015642,178.160456 538.688255,178.5312 L538.206686,178.665704 L538.475694,179.628842 L538.957263,179.494338 Z M546.624314,177.10255 C547.954277,176.635656 549.209467,176.162345 550.389926,175.682569 L550.85313,175.494308 L550.476608,174.5679 L550.013404,174.756161 C548.848298,175.229697 547.608174,175.697327 546.293075,176.159003 L545.821301,176.324623 L546.152541,177.26817 L546.624314,177.10255 Z M554.081593,174.042964 C554.182667,173.993631 554.283,173.944232 554.382592,173.894766 C555.461468,173.3589 556.546118,172.769216 557.636711,172.125659 L558.067327,171.871553 L557.559116,171.010321 L557.1285,171.264426 C556.058354,171.895917 554.994818,172.474123 553.937754,172.999155 C553.840234,173.047591 553.741969,173.095972 553.642961,173.144297 L553.193628,173.363613 L553.63226,174.26228 L554.081593,174.042964 Z M561.042121,169.954315 C562.121588,169.215321 563.206794,168.424725 564.297759,167.58254 L564.693547,167.277005 L564.082478,166.485428 L563.686689,166.790962 C562.610599,167.621666 561.540771,168.401059 560.477223,169.129155 L560.064643,169.411604 L560.629541,170.236764 L561.042121,169.954315 Z M567.422713,165.042559 C568.41855,164.192878 569.419137,163.301046 570.424486,162.367065 L570.790802,162.026753 L570.110178,161.29412 L569.743862,161.634432 C568.74871,162.558939 567.758632,163.441406 566.773638,164.281835 L566.393276,164.606372 L567.042351,165.367097 L567.422713,165.042559 Z M573.328668,159.565072 C574.255409,158.638064 575.186153,157.675867 576.120908,156.678481 L576.462821,156.313659 L575.733176,155.629833 L575.391263,155.994655 C574.463786,156.984276 573.540516,157.938746 572.62146,158.858066 L572.267957,159.211671 L572.975165,159.918676 L573.328668,159.565072 Z" fill="#000000" fill-rule="nonzero"></path>
        <g id="Class" transform="translate(273.000000, 356.000000)">
            <path d="M8,0.5 C3.85786438,0.5 0.5,3.85786438 0.5,8 L0.5,43 C0.5,47.1421356 3.85786438,50.5 8,50.5 L225,50.5 C229.142136,50.5 232.5,47.1421356 232.5,43 L232.5,8 C232.5,3.85786438 229.142136,0.5 225,0.5 L8,0.5 Z" id="Rectangle-3" stroke="#979797" fill="#B8E986"></path>
            <text id="DefaultChannelPromis" font-family="Arial-BoldMT, Arial" font-size="12" font-weight="bold" fill="#000000">
                <tspan x="48.8183594" y="29">DefaultChannelPromise</tspan>
            </text>
        </g>
        <path id="Line-3" d="M387.980123,211.296886 C387.928175,211.192989 387.843929,211.108744 387.740032,211.056795 C387.474835,210.924197 387.152358,211.031689 387.019759,211.296886 L383.056678,219.223049 C383.019405,219.297595 383,219.379795 383,219.46314 C383,219.75964 383.24036,220 383.53686,220 L391.463023,220 C391.546367,220 391.628568,219.980595 391.703114,219.943322 C391.968311,219.810724 392.075803,219.488246 391.943205,219.223049 L387.980123,211.296886 Z M388,262.5 L388,219.5 L388,219 L387,219 L387,219.5 L387,262.5 L387,263 L388,263 L388,262.5 Z" fill="#000000" fill-rule="nonzero"></path>
        <path id="Line-3" d="M387.730123,311.296886 C387.678175,311.192989 387.593929,311.108744 387.490032,311.056795 C387.224835,310.924197 386.902358,311.031689 386.769759,311.296886 L382.806678,319.223049 C382.769405,319.297595 382.75,319.379795 382.75,319.46314 C382.75,319.75964 382.99036,320 383.28686,320 L391.213023,320 C391.296367,320 391.378568,319.980595 391.453114,319.943322 C391.718311,319.810724 391.825803,319.488246 391.693205,319.223049 L387.730123,311.296886 Z M387.75,356.5 L387.75,319.5 L387.75,319 L386.75,319 L386.75,319.5 L386.75,356.5 L386.75,357 L387.75,357 L387.75,356.5 Z" fill="#000000" fill-rule="nonzero"></path>
        <g id="Class" transform="translate(0.000000, 394.000000)">
            <path d="M8,0.5 C3.85786438,0.5 0.5,3.85786438 0.5,8 L0.5,43 C0.5,47.1421356 3.85786438,50.5 8,50.5 L225,50.5 C229.142136,50.5 232.5,47.1421356 232.5,43 L232.5,8 C232.5,3.85786438 229.142136,0.5 225,0.5 L8,0.5 Z" id="Rectangle-3" stroke="#979797" fill="#B8E986"></path>
            <text id="VoidChannelPromise" font-family="Arial-BoldMT, Arial" font-size="12" font-weight="bold" fill="#000000">
                <tspan x="56.5996094" y="29">VoidChannelPromise</tspan>
            </text>
        </g>
        <path id="Line-3" d="M273.219762,185.972735 C273.321781,185.917189 273.403032,185.830052 273.451319,185.724403 C273.574573,185.454736 273.455881,185.13621 273.186213,185.012957 L265.126445,181.329181 C265.050643,181.294534 264.967815,181.278013 264.884521,181.280925 C264.588202,181.291282 264.356385,181.539892 264.366743,181.836211 L264.643629,189.757536 C264.646541,189.84083 264.668805,189.922302 264.708659,189.9955 C264.850441,190.255904 265.176477,190.352065 265.43688,190.210283 L273.219762,185.972735 Z M114.98973,394.640123 C137.021922,319.173192 160.122198,265.509523 184.273402,233.661494 C206.539916,204.298793 233.464629,188.514178 265.071946,186.277108 L265.570699,186.241807 L265.500098,185.244303 L265.001346,185.279603 C233.093403,187.537951 205.910352,203.474016 183.476598,233.057256 C159.236421,265.022614 136.093208,318.786028 114.029802,394.359877 L113.889679,394.839841 L114.849607,395.120087 L114.98973,394.640123 Z" fill="#000000" fill-rule="nonzero"></path>
        <path id="Line-2" d="M936.966119,315.319078 L926.947674,314.380597 L930.204267,322.770746 L936.966119,315.319078 Z M232.461905,426.998547 C233.791467,427.100142 235.12353,427.199324 236.458095,427.296093 L236.956786,427.332253 L237.029105,426.334871 L236.530415,426.298711 C235.197139,426.202036 233.866366,426.10295 232.538095,426.001453 L232.039549,425.963358 L231.963358,426.960451 L232.461905,426.998547 Z M240.440916,427.577212 C241.77038,427.668498 243.102307,427.757406 244.436699,427.843938 L244.935651,427.876294 L245.000362,426.87839 L244.50141,426.846034 C243.168281,426.759584 241.837617,426.67076 240.509418,426.579561 L240.010593,426.54531 L239.942091,427.542961 L240.440916,427.577212 Z M248.431869,428.095462 C249.759928,428.176572 251.090409,428.255344 252.423313,428.331779 L252.922492,428.360404 L252.979743,427.362044 L252.480563,427.333419 C251.148895,427.257055 249.81965,427.178356 248.492829,427.097322 L247.993759,427.066842 L247.932799,428.064982 L248.431869,428.095462 Z M256.424121,428.553795 C257.755392,428.625215 259.089062,428.69432 260.425132,428.76111 L260.924508,428.786074 L260.974436,427.787321 L260.47506,427.762357 C259.140203,427.695627 257.807747,427.626585 256.477691,427.555231 L255.978409,427.528446 L255.924839,428.52701 L256.424121,428.553795 Z M264.416422,428.953419 C265.749371,429.015242 267.084692,429.074777 268.422384,429.132025 L268.921927,429.153404 L268.964684,428.154318 L268.465141,428.13294 C267.128639,428.075743 265.79451,428.01626 264.462752,427.954493 L263.963289,427.931327 L263.916958,428.930253 L264.416422,428.953419 Z M272.407532,429.295532 C273.740615,429.347879 275.076038,429.397971 276.413798,429.445806 L276.913479,429.463674 L276.949214,428.464313 L276.449534,428.446445 C275.11294,428.398651 273.778685,428.348603 272.446769,428.296302 L271.947154,428.276683 L271.907917,429.275913 L272.407532,429.295532 Z M280.41582,429.581956 C281.747411,429.624952 283.081303,429.665727 284.417496,429.704283 L284.917288,429.718705 L284.946131,428.719121 L284.446339,428.704699 C283.111288,428.666176 281.778539,428.625436 280.448092,428.582477 L279.948352,428.566341 L279.91608,429.565821 L280.41582,429.581956 Z M288.420734,429.812981 C289.754676,429.846937 291.090895,429.878697 292.429392,429.908259 L292.92927,429.919299 L292.951351,428.919543 L292.451473,428.908503 C291.114097,428.878965 289.779,428.847232 288.446182,428.813305 L287.946343,428.800581 L287.920896,429.800257 L288.420734,429.812981 Z M296.421058,429.98978 C297.750237,430.014723 299.081646,430.037513 300.415287,430.058151 L300.915227,430.065888 L300.9307,429.066008 L300.43076,429.058271 C299.098215,429.03765 297.767901,429.014878 296.43982,428.989956 L295.939908,428.980575 L295.921146,429.980399 L296.421058,429.98978 Z M304.415584,430.113521 C305.74873,430.129803 307.084091,430.143949 308.421667,430.155959 L308.921647,430.160448 L308.930625,429.160489 L308.430645,429.156 C307.094147,429.143999 305.759864,429.129865 304.427796,429.113596 L303.927833,429.10749 L303.915621,430.107415 L304.415584,430.113521 Z M312.423249,430.185478 C313.753143,430.193165 315.085212,430.198754 316.419456,430.202246 L316.919454,430.203554 L316.922071,429.203558 L316.422073,429.202249 C315.088883,429.198761 313.757868,429.193176 312.429029,429.185495 L311.929037,429.182605 L311.923257,430.182588 L312.423249,430.185478 Z M320.422992,430.20643 C321.752667,430.205737 323.084489,430.202974 324.418456,430.198141 L324.918453,430.196329 L324.91483,429.196336 L324.414833,429.198147 C323.081899,429.202977 321.751111,429.205738 320.42247,429.20643 L319.92247,429.206691 L319.922992,430.206691 L320.422992,430.20643 Z M328.434026,430.177384 C329.76602,430.168446 331.10014,430.157457 332.436386,430.144418 L332.936362,430.13954 L332.926604,429.139587 L332.426628,429.144466 C331.091397,429.157495 329.758293,429.168475 328.427316,429.177406 L327.927327,429.180761 L327.934037,430.180739 L328.434026,430.177384 Z M336.435039,430.09936 C337.766934,430.082347 339.100928,430.063309 340.43702,430.042247 L340.936958,430.034366 L340.921196,429.03449 L340.421258,429.042371 C339.086161,429.063417 337.753164,429.082441 336.422266,429.099442 L335.922307,429.105828 L335.93508,430.105747 L336.435039,430.09936 Z M344.445519,429.973101 C345.774783,429.948203 347.106111,429.921314 348.439503,429.892433 L348.939386,429.881606 L348.917732,428.88184 L348.417849,428.892668 C347.085431,428.921527 345.755079,428.948397 344.426792,428.973276 L343.92688,428.98264 L343.945607,429.982465 L344.445519,429.973101 Z M352.423122,429.800377 C353.75614,429.767647 355.091208,429.732939 356.428327,429.696253 L356.928139,429.68254 L356.900713,428.682916 L356.400901,428.696629 C355.064741,428.733289 353.730633,428.767972 352.398576,428.800678 L351.898726,428.812951 L351.923272,429.81265 L352.423122,429.800377 Z M360.429047,429.58077 C361.758375,429.540505 363.089717,429.498297 364.423073,429.454146 L364.922799,429.437598 L364.889704,428.438146 L364.389978,428.454694 C363.057561,428.498814 361.727159,428.540992 360.398771,428.581229 L359.899001,428.596367 L359.929277,429.595908 L360.429047,429.58077 Z M368.441875,429.315408 C369.772822,429.26759 371.105763,429.217848 372.4407,429.166182 L372.940326,429.146845 L372.901651,428.147593 L372.402026,428.16693 C371.068012,428.218561 369.735993,428.268268 368.405971,428.316052 L367.906293,428.334005 L367.942198,429.33336 L368.441875,429.315408 Z M376.439678,429.005901 C377.768919,428.950799 379.100126,428.8938 380.4333,428.834905 L380.932813,428.812838 L380.888679,427.813813 L380.389166,427.835879 C379.056897,427.894735 377.726595,427.951695 376.39826,428.006759 L375.898689,428.027468 L375.940108,429.02661 L376.439678,429.005901 Z M384.421324,428.653345 C385.753144,428.59092 387.086914,428.526614 388.422635,428.460426 L388.922022,428.43568 L388.872531,427.436906 L388.373144,427.461651 C387.038312,427.527795 385.705432,427.592059 384.374504,427.654442 L383.875052,427.677852 L383.921873,428.676755 L384.421324,428.653345 Z M392.428518,428.256589 C393.758733,428.187136 395.09087,428.115827 396.424932,428.042663 L396.924181,428.015282 L396.869421,427.016783 L396.370171,427.044163 C395.036982,427.117279 393.705717,427.188542 392.376377,427.25795 L391.877057,427.28402 L391.929198,428.28266 L392.428518,428.256589 Z M400.41781,427.81847 C401.745997,427.742167 403.07608,427.664035 404.408058,427.584075 L404.90716,427.554114 L404.847237,426.555911 L404.348135,426.585872 C403.017012,426.665781 401.687785,426.743862 400.360455,426.820116 L399.861278,426.848794 L399.918633,427.847148 L400.41781,427.81847 Z M408.409747,427.338705 C409.738279,427.255542 411.068686,427.170569 412.400968,427.083788 L412.899911,427.051288 L412.834911,426.053403 L412.335969,426.085902 C411.004527,426.172629 409.674961,426.257548 408.347271,426.340659 L407.848248,426.371897 L407.910724,427.369944 L408.409747,427.338705 Z M416.381811,426.819481 C417.709082,426.729693 419.038203,426.63812 420.369175,426.544763 L420.86795,426.509777 L420.797979,425.512228 L420.299204,425.547213 C418.969057,425.640514 417.640761,425.732029 416.314317,425.821761 L415.815457,425.855508 L415.882951,426.853228 L416.381811,426.819481 Z M424.376713,426.258675 C425.706522,426.162093 427.038169,426.063738 428.371652,425.963612 L428.870249,425.926174 L428.795373,424.928981 L428.296777,424.966419 C426.964105,425.066484 425.633271,425.164779 424.304275,425.261302 L423.805589,425.297521 L423.878027,426.294894 L424.376713,426.258675 Z M432.350038,425.660054 C433.679266,425.557021 435.010309,425.452236 436.343169,425.345701 L436.841579,425.305863 L436.761903,424.309042 L436.263492,424.34888 C434.93143,424.455352 433.601185,424.560074 432.272756,424.663045 L431.774251,424.701686 L431.851533,425.698695 L432.350038,425.660054 Z M440.322845,425.022844 C441.650529,424.913551 442.980005,424.802529 444.311273,424.689779 L444.80949,424.647583 L444.725098,423.65115 L444.226882,423.693346 C442.896396,423.80603 441.567703,423.916986 440.240803,424.026216 L439.742489,424.067236 L439.82453,425.063865 L440.322845,425.022844 Z M448.294415,424.34774 C449.621318,424.232238 450.949992,424.115028 452.280436,423.99611 L452.778451,423.951597 L452.689424,422.955568 L452.191409,423.000081 C450.861734,423.11893 449.53383,423.236072 448.207697,423.351507 L447.70958,423.394866 L447.796299,424.391099 L448.294415,424.34774 Z M456.286417,423.633378 C457.611695,423.511837 458.938721,423.38861 460.267494,423.263697 L460.7653,423.2169 L460.671706,422.22129 L460.173901,422.268086 C458.845882,422.392928 457.519612,422.516085 456.19509,422.637557 L455.697179,422.683221 L455.788507,423.679042 L456.286417,423.633378 Z M464.25349,422.884439 C465.580044,422.75671 466.908331,422.627309 468.23835,422.496238 L468.735939,422.447202 L468.637866,421.452022 L468.140277,421.501059 C466.811,421.632057 465.483457,421.761385 464.157647,421.889042 L463.659949,421.936964 L463.755792,422.93236 L464.25349,422.884439 Z M472.217193,422.099666 C473.543196,421.966018 474.870913,421.830719 476.200344,421.693767 L476.697711,421.64253 L476.595238,420.647795 L476.09787,420.699031 C474.76917,420.835908 473.442184,420.971133 472.116911,421.104706 L471.619432,421.154847 L471.719713,422.149806 L472.217193,422.099666 Z M480.154086,421.28213 C481.478168,421.142826 482.803942,421.001891 484.131407,420.859325 L484.628548,420.805933 L484.521765,419.811651 L484.024624,419.865042 C482.697876,420.007531 481.37282,420.14839 480.049455,420.287619 L479.552199,420.339934 L479.65683,421.334445 L480.154086,421.28213 Z M488.108824,420.427835 C489.43245,420.282806 490.757749,420.136164 492.084721,419.987908 L492.581629,419.932392 L492.470595,418.938575 L491.973687,418.994092 C490.64742,419.142269 489.322826,419.288833 487.999906,419.433785 L487.502881,419.488244 L487.611799,420.482294 L488.108824,420.427835 Z M496.058094,419.539733 C497.380996,419.389104 498.705552,419.23688 500.031762,419.083061 L500.528433,419.025455 L500.413221,418.032114 L499.916551,418.08972 C498.591033,418.243459 497.267171,418.395603 495.944963,418.546153 L495.448173,418.602718 L495.561304,419.596298 L496.058094,419.539733 Z M504.024285,418.615763 C505.346394,418.459623 506.670139,418.301904 507.995519,418.142608 L508.491947,418.082943 L508.372617,417.090089 L507.876189,417.149754 C506.55149,417.308968 505.228427,417.466605 503.907,417.622665 L503.410451,417.681307 L503.527736,418.674406 L504.024285,418.615763 Z M511.960662,417.661933 C513.282738,417.500297 514.606434,417.337099 515.93175,417.172339 L516.42793,417.110655 L516.304562,416.118294 L515.808382,416.179978 C514.483737,416.344655 513.160711,416.50777 511.839307,416.669324 L511.343002,416.730002 L511.464358,417.722611 L511.960662,417.661933 Z M519.912817,416.673341 C521.233727,416.506423 522.556238,416.337961 523.88035,416.167955 L524.376279,416.104281 L524.248932,415.112423 L523.753003,415.176097 C522.42955,415.346018 521.107698,415.514396 519.787448,415.681231 L519.291393,415.743915 L519.416761,416.736025 L519.912817,416.673341 Z M527.833564,415.656425 C529.154464,415.484183 530.476949,415.310413 531.80102,415.135113 L532.296695,415.069488 L532.165446,414.078139 L531.669771,414.143763 C530.346348,414.318977 529.024512,414.492663 527.704262,414.66482 L527.208459,414.729471 L527.337762,415.721076 L527.833564,415.656425 Z M535.768959,414.605839 C537.088995,414.428455 538.4106,414.249558 539.733773,414.069149 L540.229189,414.001601 L540.094093,413.010769 L539.598677,413.078317 C538.276142,413.258639 536.955175,413.437449 535.635778,413.614747 L535.140232,413.681338 L535.273413,414.67243 L535.768959,414.605839 Z M543.695017,413.525179 C545.014575,413.342687 546.335685,413.158697 547.658348,412.97321 L548.153502,412.903771 L548.014624,411.913462 L547.519469,411.982901 C546.197434,412.1683 544.876952,412.352202 543.558023,412.534607 L543.062737,412.603104 L543.199732,413.593676 L543.695017,413.525179 Z M551.634828,412.411713 C552.953569,412.224228 554.273847,412.035262 555.595661,411.844814 L556.090551,411.77351 L555.947943,410.78373 L555.453053,410.855034 C554.131857,411.045393 552.812197,411.234271 551.494074,411.421668 L550.999051,411.492045 L551.139806,412.48209 L551.634828,412.411713 Z M559.540322,411.272732 C560.858491,411.080318 562.178181,410.886437 563.499392,410.69109 L563.994015,410.617958 L563.847751,409.628712 L563.353128,409.701844 C562.032524,409.897102 560.713442,410.090893 559.395882,410.283219 L558.901125,410.355439 L559.045565,411.344952 L559.540322,411.272732 Z M567.458459,410.102015 C568.775671,409.904795 570.094387,409.706123 571.414609,409.506001 L571.908961,409.431066 L571.759091,408.44236 L571.264738,408.517295 C569.945115,408.717327 568.626997,408.915908 567.310384,409.113039 L566.815896,409.187077 L566.963971,410.176053 L567.458459,410.102015 Z M575.364825,408.903576 C576.681406,408.701581 577.999477,408.49815 579.319037,408.293282 L579.813118,408.216573 L579.659701,407.228412 L579.16562,407.30512 C577.846649,407.509897 576.529167,407.713237 575.213175,407.915142 L574.718958,407.990967 L574.870608,408.979401 L575.364825,408.903576 Z M583.282958,407.674247 C583.714161,407.606515 584.145523,407.53863 584.577043,407.470592 C585.463983,407.330748 586.349528,407.190585 587.234509,407.049972 L587.728314,406.971512 L587.571395,405.983901 L587.077589,406.062361 C586.192999,406.202911 585.307845,406.343012 584.421297,406.482795 C583.989967,406.550803 583.558796,406.618658 583.127783,406.68636 L582.633839,406.763948 L582.789014,407.751835 L583.282958,407.674247 Z M591.194292,406.4172 C592.509443,406.205837 593.823112,405.993513 595.135299,405.780228 L595.628822,405.700009 L595.468385,404.712963 L594.974862,404.793181 C593.663262,405.006372 592.35018,405.218601 591.035615,405.429869 L590.54195,405.509208 L590.700627,406.496538 L591.194292,406.4172 Z M599.087056,405.134256 C600.406541,404.917347 601.72452,404.699462 603.040994,404.4806 L603.534225,404.398601 L603.370227,403.41214 L602.876996,403.494139 C601.561118,403.712902 600.243734,403.930689 598.924845,404.1475 L598.431467,404.228605 L598.593678,405.215361 L599.087056,405.134256 Z M606.967413,403.82419 C608.282115,403.603178 609.59531,403.381186 610.906996,403.158216 L611.399925,403.074424 L611.232342,402.088566 L610.739413,402.172358 C609.428327,402.395226 608.115733,402.617116 606.80163,402.838028 L606.308549,402.920919 L606.474331,403.907082 L606.967413,403.82419 Z M614.858265,402.482804 C616.173822,402.25668 617.487855,402.029566 618.800364,401.801463 L619.29298,401.71585 L619.121755,400.730618 L618.629139,400.816231 C617.317238,401.044228 616.003813,401.271237 614.688864,401.497257 L614.196091,401.581958 L614.365492,402.567505 L614.858265,402.482804 Z M622.75897,401.109679 C624.073509,400.878689 625.386512,400.646702 626.697979,400.413719 L627.190271,400.326263 L627.015358,399.341679 L626.523066,399.429135 C625.212215,399.662009 623.899826,399.893887 622.585902,400.124769 L622.093447,400.211303 L622.266515,401.196213 L622.75897,401.109679 Z M630.622865,399.712659 C631.934742,399.477059 633.245075,399.240457 634.553864,399.002854 L635.045823,398.913541 L634.867198,397.929624 L634.375239,398.018937 C633.067072,398.256427 631.75736,398.492917 630.446103,398.728405 L629.953977,398.816786 L630.130738,399.801039 L630.622865,399.712659 Z M638.495749,398.283338 C639.809675,398.042207 641.122036,397.800062 642.432834,397.556901 L642.924447,397.465704 L642.742053,396.482479 L642.25044,396.573676 C640.940272,396.816719 639.62854,397.058749 638.315245,397.299764 L637.823457,397.390016 L638.003962,398.37359 L638.495749,398.283338 Z M646.376971,396.821294 C647.69073,396.574952 649.00291,396.327585 650.313513,396.079193 L650.804768,395.986088 L650.618558,395.003578 L650.127303,395.096683 C648.817338,395.344954 647.505795,395.592201 646.192673,395.838424 L645.701238,395.930573 L645.885536,396.913443 L646.376971,396.821294 Z M654.243195,395.330446 C655.554702,395.079227 656.864621,394.826976 658.172952,394.573695 L658.663838,394.478664 L658.473776,393.496892 L657.98289,393.591923 C656.675203,393.845079 655.365928,394.097206 654.055065,394.348302 L653.563993,394.442367 L653.752123,395.424511 L654.243195,395.330446 Z M662.094093,393.810581 C663.407267,393.553669 664.718833,393.295713 666.028791,393.036714 L666.519296,392.939734 L666.325335,391.958724 L665.83483,392.055705 C664.525525,392.314575 663.214612,392.572402 661.902091,392.829186 L661.411393,392.925187 L661.603396,393.906582 L662.094093,393.810581 Z M669.929335,392.261483 C671.235961,392.000438 672.54098,391.738349 673.844391,391.475217 L674.334503,391.376274 L674.136616,390.396049 L673.646504,390.494992 C672.34375,390.757991 671.03939,391.019948 669.733421,391.280862 L669.24311,391.378819 L669.439025,392.35944 L669.929335,392.261483 Z M677.79329,390.673821 C679.102312,390.406771 680.409704,390.138665 681.715468,389.8695 L682.205172,389.768555 L682.003281,388.789147 L681.513577,388.890092 C680.208481,389.159119 678.901755,389.427089 677.5934,389.694002 L677.103491,389.793947 L677.30338,390.773766 L677.79329,390.673821 Z M685.618245,389.060839 C686.927034,388.788258 688.234178,388.514609 689.539677,388.239892 L690.028961,388.136932 L689.82304,387.158363 L689.333756,387.261324 C688.028933,387.535898 686.722464,387.809406 685.41435,388.081847 L684.924854,388.183794 L685.128749,389.162787 L685.618245,389.060839 Z M693.448454,387.413131 C694.754157,387.135538 696.058206,386.856872 697.360601,386.577132 L697.849452,386.472132 L697.639453,385.49443 L697.150602,385.59943 C695.848889,385.879023 694.545522,386.157544 693.240501,386.434992 L692.751431,386.538969 L692.959384,387.517108 L693.448454,387.413131 Z M701.283245,385.730261 C702.588077,385.447112 703.891241,385.162881 705.192736,384.877566 L705.681138,384.770498 L705.467002,383.793695 L704.9786,383.900762 C703.677796,384.185925 702.375323,384.470006 701.071181,384.753005 L700.582553,384.859037 L700.794617,385.836293 L701.283245,385.730261 Z M709.100045,384.01664 C710.405825,383.727466 711.709917,383.437195 713.012321,383.145829 L713.50026,383.036671 L713.281942,382.060793 L712.794003,382.169952 C711.4923,382.461161 710.188907,382.751275 708.883826,383.040295 L708.395653,383.148404 L708.611872,384.124749 L709.100045,384.01664 Z M716.898514,382.27205 C718.201866,381.977527 719.503518,381.681901 720.80347,381.385173 L721.290932,381.273904 L721.068395,380.29898 L720.580933,380.410249 C719.281688,380.706816 717.980743,381.002281 716.678098,381.296643 L716.190395,381.406851 L716.410811,382.382257 L716.898514,382.27205 Z M724.699989,380.491272 C726.001923,380.191095 727.302144,379.889806 728.60065,379.587405 L729.087619,379.473998 L728.860805,378.50006 L728.373836,378.613467 C727.076045,378.915701 725.77654,379.216824 724.475321,379.516836 L723.988103,379.62917 L724.212771,380.603606 L724.699989,380.491272 Z M732.503787,378.673864 C733.804797,378.367833 735.104077,378.06068 736.401627,377.752405 L736.888087,377.63683 L736.656938,376.663912 L736.170479,376.779486 C734.873653,377.087589 733.575097,377.394571 732.274811,377.700432 L731.788095,377.81492 L732.017071,378.788352 L732.503787,378.673864 Z M740.287779,376.824526 C741.587998,376.512536 742.886472,376.199413 744.1832,375.885157 L744.669134,375.767393 L744.433607,374.795525 L743.947673,374.913289 C742.651678,375.227368 741.353937,375.540314 740.05445,375.852128 L739.568251,375.968792 L739.80158,376.94119 L740.287779,376.824526 Z M748.051619,374.943035 C749.346738,374.626065 750.640106,374.307959 751.931722,373.988716 L752.417116,373.868744 L752.177171,372.897957 L751.691778,373.01793 C750.400901,373.336989 749.108273,373.654913 747.813893,373.971702 L747.328227,374.090565 L747.565953,375.061897 L748.051619,374.943035 Z M755.837394,373.018575 C757.134144,372.694875 758.429121,372.370023 759.722322,372.044019 L760.207154,371.921797 L759.962711,370.952134 L759.477879,371.074355 C758.185428,371.40017 756.891202,371.724834 755.595201,372.048347 L755.110087,372.169443 L755.352279,373.139671 L755.837394,373.018575 Z M763.580765,371.066584 C764.874026,370.737371 766.165502,370.407 767.455193,370.075471 L767.939449,369.950988 L767.690483,368.982476 L767.206227,369.106959 C765.917293,369.438293 764.626575,369.76847 763.334072,370.09749 L762.849525,370.220836 L763.096218,371.18993 L763.580765,371.066584 Z M771.34468,369.070721 C772.635713,368.735579 773.924947,368.39927 775.212382,368.061795 L775.696042,367.935013 L775.442478,366.967694 L774.958819,367.094476 C773.67215,367.431751 772.383682,367.767859 771.093416,368.102802 L770.609457,368.228434 L770.860721,369.196353 L771.34468,369.070721 Z M779.08636,367.041349 C780.37577,366.70005 781.663366,366.357574 782.949148,366.013921 L783.432192,365.884816 L783.173984,364.918727 L782.690939,365.047831 C781.405933,365.391277 780.119112,365.733547 778.830478,366.074641 L778.347124,366.202582 L778.603006,367.16929 L779.08636,367.041349 Z M786.805451,364.978241 C788.09594,364.62998 789.384591,364.280526 790.671405,363.92988 L791.153815,363.798427 L790.890909,362.833605 L790.408498,362.965058 C789.122472,363.31549 787.834607,363.664731 786.544905,364.01278 L786.062174,364.143053 L786.322721,365.108514 L786.805451,364.978241 Z M794.542862,362.869815 C795.829449,362.51582 797.114189,362.160626 798.397081,361.804233 L798.878836,361.670399 L798.611168,360.706888 L798.129413,360.840721 C796.847315,361.196894 795.56337,361.551868 794.277578,361.905645 L793.795493,362.038287 L794.060777,363.002457 L794.542862,362.869815 Z M802.235996,360.732639 C803.522037,360.371932 804.806212,360.010012 806.088518,359.646881 L806.5696,359.510645 L806.297129,358.548481 L805.816047,358.684717 C804.534545,359.04762 803.251175,359.409313 801.965938,359.769795 L801.484516,359.904823 L801.754574,360.867668 L802.235996,360.732639 Z M809.946027,358.549222 C811.229722,358.182188 812.511533,357.813932 813.791463,357.444454 L814.271848,357.305781 L813.994502,356.345011 L813.514117,356.483684 C812.235002,356.852927 810.954004,357.220949 809.671123,357.587751 L809.190387,357.725203 L809.465292,358.686674 L809.946027,358.549222 Z M817.631341,356.330684 C818.912262,355.957371 820.191286,355.582827 821.468414,355.207053 L821.948082,355.065919 L821.665813,354.106583 L821.186145,354.247718 C819.90984,354.62325 818.631639,354.997552 817.351541,355.370625 L816.871512,355.510525 L817.151312,356.470584 L817.631341,356.330684 Z M825.311728,354.070804 C826.591714,353.690575 827.869783,353.309103 829.145936,352.926388 L829.624862,352.782759 L829.337604,351.824905 L828.858677,351.968535 C827.583358,352.351 826.306122,352.732224 825.02697,353.112204 L824.54767,353.254583 L824.832429,354.213183 L825.311728,354.070804 Z M832.986468,351.769113 C834.264433,351.382184 835.540465,350.993999 836.814563,350.60456 L837.292725,350.458406 L837.000416,349.502082 L836.522254,349.648236 C835.248999,350.037417 833.973811,350.425345 832.696689,350.812019 L832.218142,350.956909 L832.507921,351.914003 L832.986468,351.769113 Z M840.634926,349.431284 C841.910943,349.037546 843.18501,348.642541 844.457125,348.24627 L844.9345,348.097566 L844.63709,347.142816 L844.159715,347.291521 C842.888453,347.687526 841.61524,348.082266 840.340076,348.475741 L839.862304,348.623166 L840.157154,349.578709 L840.634926,349.431284 Z M848.276525,347.050858 C849.549989,346.650394 850.821486,346.248653 852.091016,345.845636 L852.567579,345.694349 L852.265005,344.741223 L851.788442,344.89251 C850.519776,345.295253 849.249142,345.696721 847.97654,346.096914 L847.499568,346.246906 L847.799553,347.20085 L848.276525,347.050858 Z M855.910535,344.627358 C857.182234,344.219814 858.451947,343.81098 859.719673,343.400857 L860.195398,343.246955 L859.887594,342.295506 L859.411869,342.449408 C858.145016,342.859248 856.876177,343.2678 855.605351,343.675065 L855.129204,343.827657 L855.434388,344.77995 L855.910535,344.627358 Z M863.516678,342.166691 C864.786624,341.751967 866.054564,341.335942 867.320499,340.918614 L867.795361,340.762071 L867.482275,339.812346 L867.007413,339.968889 C865.742363,340.385925 864.475306,340.801661 863.206244,341.216096 L862.730946,341.371313 L863.04138,342.321908 L863.516678,342.166691 Z M871.114004,339.662153 C872.380668,339.240642 873.64531,338.81782 874.907932,338.393685 L875.381905,338.23447 L875.063475,337.286524 L874.589502,337.445739 C873.327774,337.869573 872.064025,338.292097 870.798255,338.71331 L870.323834,338.871185 L870.639583,339.820028 L871.114004,339.662153 Z M878.701774,337.113264 C879.966022,336.684571 881.228231,336.254554 882.488401,335.823214 L882.961457,335.661293 L882.637615,334.715182 L882.164559,334.877103 C880.905294,335.308134 879.643989,335.737842 878.380644,336.166229 L877.907127,336.326793 L878.228256,337.273829 L878.701774,337.113264 Z M886.260071,334.526163 C887.522037,334.090148 888.781945,333.652798 890.039794,333.214112 L890.511906,333.049458 L890.182599,332.105235 L889.710488,332.269889 C888.453554,332.708256 887.194561,333.145289 885.933509,333.580987 L885.460921,333.744268 L885.787483,334.689444 L886.260071,334.526163 Z M893.826614,331.887198 C895.086092,331.443795 896.343491,330.999045 897.598814,330.552946 L898.069949,330.38552 L897.735098,329.443249 L897.263963,329.610675 C896.009566,330.056445 894.753091,330.500868 893.494539,330.943945 L893.022913,331.109982 L893.354988,332.053235 L893.826614,331.887198 Z M901.362436,329.209209 C902.619641,328.758243 903.874748,328.305916 905.127757,327.852228 L905.597889,327.682003 L905.257439,326.74174 L904.787308,326.911965 C903.535235,327.365314 902.281064,327.817304 901.024796,328.267934 L900.554159,328.436754 L900.891799,329.378029 L901.362436,329.209209 Z M908.885954,326.485082 C910.140212,326.026675 911.392354,325.566895 912.64238,325.105742 L913.111476,324.932685 L912.765363,323.994492 L912.296266,324.167549 C911.047187,324.628353 909.795992,325.087786 908.542681,325.545847 L908.073063,325.717483 L908.416336,326.656719 L908.885954,326.485082 Z M916.396408,323.714326 C917.647731,323.248355 918.89692,322.780998 920.143973,322.312256 L920.612002,322.136334 L920.260157,321.200275 L919.792128,321.376198 C918.546032,321.84458 917.297802,322.311579 916.047436,322.777193 L915.57887,322.951679 L915.927842,323.888812 L916.396408,323.714326 Z M923.893038,320.896444 C925.141604,320.42272 926.388015,319.947598 927.632272,319.471077 L928.099201,319.292254 L927.741555,318.358397 L927.274627,318.53722 C926.031339,319.01337 924.785896,319.488123 923.538299,319.961479 L923.070816,320.138849 L923.425556,321.073814 L923.893038,320.896444 Z" fill="#000000" fill-rule="nonzero"></path>
        <path id="Line-2" d="M935.978903,315.356291 L926.065276,313.632923 L928.652031,322.253172 L935.978903,315.356291 Z M507.493178,385.999953 C508.827553,386.018162 510.162331,386.033906 511.497511,386.047185 L511.997486,386.052157 L512.007431,385.052206 L511.507456,385.047234 C510.173508,385.033968 508.839964,385.018239 507.506822,385.000047 L507.006869,384.993224 L506.993224,385.993131 L507.493178,385.999953 Z M515.498232,386.079587 C516.830147,386.087917 518.162462,386.093797 519.495177,386.097227 L519.995175,386.098514 L519.997749,385.098517 L519.49775,385.097231 C518.166262,385.093804 516.835174,385.087929 515.504487,385.079607 L515.004496,385.07648 L514.998242,386.07646 L515.498232,386.079587 Z M523.494829,386.100166 C524.827553,386.098696 526.160677,386.094779 527.494201,386.088414 L527.994195,386.086028 L527.989422,385.086039 L527.489428,385.088426 C526.157127,385.094784 524.825227,385.098698 523.493726,385.100167 L522.993726,385.100718 L522.994829,386.100718 L523.494829,386.100166 Z M531.501026,386.061936 C532.833206,386.050689 534.165785,386.037003 535.498763,386.020877 L535.998726,386.014828 L535.98663,385.014902 L535.486666,385.02095 C534.154907,385.037061 532.823546,385.050735 531.492583,385.061972 L530.992601,385.066193 L531.001043,386.066157 L531.501026,386.061936 Z M539.504725,385.965089 C540.837988,385.944085 542.17165,385.920644 543.50571,385.894765 L544.005616,385.885068 L543.986221,384.885256 L543.486315,384.894953 C542.153469,384.920808 540.821022,384.944228 539.488973,384.965213 L538.989035,384.973089 L539.004787,385.972965 L539.504725,385.965089 Z M547.505882,385.80989 C548.837675,385.77921 550.169864,385.746105 551.502449,385.710573 L552.002272,385.697245 L551.975617,384.697601 L551.475795,384.710928 C550.144417,384.746428 548.813436,384.779503 547.482852,384.810155 L546.982985,384.82167 L547.006015,385.821405 L547.505882,385.80989 Z M555.51658,385.596237 C556.849883,385.555836 558.183581,385.513009 559.517676,385.467756 L560.017389,385.450806 L559.983488,384.451381 L559.483775,384.468331 C558.150885,384.513543 556.818391,384.556332 555.486293,384.596696 L554.986522,384.61184 L555.01681,385.611381 L555.51658,385.596237 Z M563.512538,385.325043 C564.846191,385.274994 566.180241,385.222524 567.514685,385.167633 L568.014263,385.147083 L567.973163,384.147928 L567.473586,384.168477 C566.14034,384.22332 564.807491,384.275743 563.475037,384.325746 L562.975389,384.344496 L563.012889,385.343793 L563.512538,385.325043 Z M571.517977,384.995748 C572.849643,384.936174 574.181701,384.874192 575.514153,384.809801 L576.013571,384.785667 L575.965302,383.786833 L575.465885,383.810967 C574.134625,383.8753 572.803758,383.937227 571.473286,383.996747 L570.973785,384.019093 L571.018477,385.018094 L571.517977,384.995748 Z M579.508559,384.609617 C580.840326,384.540491 582.172485,384.46896 583.505037,384.395027 L584.004269,384.367328 L583.948871,383.368864 L583.449639,383.396563 C582.118274,383.47043 580.787302,383.541897 579.456723,383.610962 L578.957395,383.63688 L579.009232,384.635535 L579.508559,384.609617 Z M587.496382,384.166459 C588.828303,384.087811 590.160616,384.006765 591.49332,383.923321 L591.992343,383.892076 L591.929853,382.894031 L591.43083,382.925276 C590.099307,383.008646 588.768175,383.08962 587.437436,383.168198 L586.938306,383.19767 L586.997251,384.195932 L587.496382,384.166459 Z M595.4814,383.666536 C596.811602,383.578526 598.142192,383.48813 599.473173,383.395348 L599.971963,383.360577 L599.902421,382.362998 L599.403632,382.397769 C598.073825,382.490469 596.744409,382.580786 595.415382,382.668718 L594.916473,382.701727 L594.982491,383.699545 L595.4814,383.666536 Z M603.475785,383.109218 C604.806618,383.01172 606.137841,382.911839 607.469453,382.809576 L607.967985,382.77129 L607.891413,381.774226 L607.392881,381.812512 C606.062438,381.914686 604.732384,382.014479 603.40272,382.111891 L602.904056,382.148423 L602.977121,383.14575 L603.475785,383.109218 Z M611.455081,382.496468 C612.783878,382.389739 614.113062,382.28064 615.442633,382.16917 L615.940885,382.127397 L615.857339,381.130893 L615.359087,381.172666 C614.030677,381.284038 612.702654,381.393043 611.375019,381.499678 L610.876624,381.53971 L610.956686,382.536499 L611.455081,382.496468 Z M619.431444,381.827743 C620.759628,381.711723 622.088199,381.59334 623.417155,381.472594 L623.915104,381.427352 L623.82462,380.431454 L623.326671,380.476696 C621.998868,380.597337 620.671452,380.715617 619.344423,380.831536 L618.846319,380.875047 L618.93334,381.871253 L619.431444,381.827743 Z M627.40483,381.103304 C628.732248,380.978051 630.060051,380.850445 631.388239,380.720484 L631.885862,380.671792 L631.788479,379.676545 L631.290855,379.725237 C629.963815,379.855086 628.63716,379.982582 627.31089,380.107726 L626.813101,380.154696 L626.907041,381.150274 L627.40483,381.103304 Z M635.375197,380.323412 C636.701753,380.188984 638.028691,380.052211 639.356013,379.913091 L639.853289,379.86097 L639.749048,378.866418 L639.251772,378.918539 C637.92559,379.057539 636.599792,379.194195 635.274377,379.328507 L634.776925,379.378917 L634.877745,380.373822 L635.375197,380.323412 Z M643.317935,379.490989 C644.642818,379.347549 645.968083,379.201775 647.293729,379.053666 L647.790637,378.998149 L647.679602,378.004332 L647.182694,378.05985 C645.85818,378.207832 644.534048,378.353482 643.210298,378.496799 L642.713203,378.550618 L642.82084,379.544808 L643.317935,379.490989 Z M651.269808,378.602566 C652.593976,378.450048 653.918523,378.295204 655.24345,378.138033 L655.739969,378.079133 L655.622169,377.086096 L655.12565,377.144996 C653.801848,377.302033 652.478426,377.456746 651.155385,377.609134 L650.658669,377.666346 L650.773092,378.659778 L651.269808,378.602566 Z M659.218505,377.659646 C660.541445,377.498157 661.864764,377.334352 663.18846,377.16823 L663.684569,377.105969 L663.560047,376.113752 L663.063938,376.176013 C661.741359,376.341995 660.419159,376.505662 659.097337,376.667014 L658.601021,376.727598 L658.722189,377.72023 L659.218505,377.659646 Z M667.163984,376.662487 C668.485982,376.492044 669.808357,376.319292 671.131108,376.144232 L671.626786,376.078631 L671.495585,375.087275 L670.999907,375.152876 C669.678265,375.327789 668.357,375.500396 667.036113,375.670696 L666.540218,375.734632 L666.668088,376.726422 L667.163984,376.662487 Z M675.1062,375.611351 C676.427494,375.431967 677.749163,375.250283 679.071209,375.066298 L679.566436,374.997379 L679.428597,374.006924 L678.93337,374.075843 C677.612427,374.259675 676.291861,374.441207 674.971671,374.620441 L674.476216,374.687706 L674.610746,375.678615 L675.1062,375.611351 Z M683.032759,374.508255 C684.352421,374.320122 685.672457,374.129699 686.992867,373.936986 L687.487626,373.864777 L687.343206,372.87526 L686.848448,372.94747 C685.529133,373.140023 684.210191,373.330288 682.891625,373.518265 L682.39663,373.588832 L682.537764,374.578823 L683.032759,374.508255 Z M690.955944,373.35187 C692.27459,373.154952 693.593609,372.955752 694.913,372.754272 L695.407271,372.678793 L695.256313,371.690253 L694.762043,371.765732 C693.443738,371.967046 692.125807,372.166081 690.808248,372.362837 L690.313732,372.436685 L690.461428,373.425718 L690.955944,373.35187 Z M698.863331,372.144385 C700.18058,371.938803 701.4982,371.73095 702.816192,371.520825 L703.309956,371.442105 L703.152516,370.454576 L702.658752,370.533296 C701.341839,370.743249 700.025298,370.950932 698.709128,371.156346 L698.215108,371.233447 L698.369311,372.221487 L698.863331,372.144385 Z M706.76723,370.884296 C707.070503,370.83493 707.373796,370.785443 707.677108,370.735836 C708.690012,370.570174 709.703671,370.403088 710.719338,370.234372 L711.212579,370.152438 L711.048711,369.165956 L710.55547,369.24789 C709.540622,369.41647 708.527783,369.583421 707.515702,369.748948 C707.212637,369.798514 706.909592,369.847961 706.606566,369.897287 L706.113061,369.97762 L706.273726,370.964629 L706.76723,370.884296 Z M714.661926,369.572973 C715.973622,369.350779 717.288377,369.125935 718.606191,368.89844 L719.098904,368.813383 L718.928789,367.827959 L718.436077,367.913016 C717.119294,368.140333 715.805572,368.365 714.494912,368.587018 L714.001934,368.670526 L714.168949,369.65648 L714.661926,369.572973 Z M722.553664,368.210668 C723.864791,367.98014 725.178919,367.747012 726.496048,367.511285 L726.988228,367.423199 L726.812056,366.43884 L726.319876,366.526925 C725.003747,366.762474 723.69062,366.995424 722.380496,367.225776 L721.88805,367.31236 L722.061218,368.297252 L722.553664,368.210668 Z M730.43207,366.80074 C731.739313,366.562731 733.049487,366.322184 734.362589,366.079099 L734.854236,365.988085 L734.672206,365.004792 L734.180559,365.095806 C732.868424,365.338712 731.559219,365.579081 730.252945,365.816914 L729.761032,365.906476 L729.940156,366.890303 L730.43207,366.80074 Z M738.294802,365.34522 C739.601867,365.099314 740.911809,364.850916 742.224628,364.600025 L742.71574,364.50617 L742.528029,363.523945 L742.036916,363.617801 C740.725036,363.868512 739.416034,364.116733 738.109909,364.362462 L737.61853,364.454908 L737.803422,365.437667 L738.294802,365.34522 Z M746.164677,363.841242 C747.470929,363.587765 748.780003,363.331841 750.091902,363.073472 L750.582478,362.976856 L750.389247,361.995703 L749.89867,362.092319 C748.587682,362.350509 747.279519,362.606254 745.974181,362.859554 L745.483337,362.954802 L745.673833,363.93649 L746.164677,363.841242 Z M754.014704,362.295295 C755.319239,362.034653 756.626542,361.771614 757.936613,361.506176 L758.426656,361.406887 L758.228078,360.426802 L757.738035,360.526091 C756.428848,360.79135 755.122429,361.054211 753.81878,361.314676 L753.328471,361.412638 L753.524395,362.393257 L754.014704,362.295295 Z M761.855393,360.706724 C763.159929,360.438783 764.467186,360.168484 765.777165,359.895828 L766.266674,359.793942 L766.062903,358.814924 L765.573394,358.916809 C764.264273,359.189287 762.957876,359.459408 761.654201,359.727173 L761.164425,359.827769 L761.365617,360.80732 L761.855393,360.706724 Z M769.684814,359.077205 C770.987242,358.8026 772.292338,358.525683 773.600103,358.246454 L774.089081,358.14205 L773.880272,357.164093 L773.391294,357.268498 C772.084363,357.547549 770.780101,357.824288 769.478509,358.098717 L768.989265,358.20187 L769.19557,359.180358 L769.684814,359.077205 Z M777.51405,357.405585 C778.814575,357.124467 780.117717,356.841081 781.423477,356.555428 L781.911926,356.448573 L781.698216,355.471676 L781.209767,355.578531 C779.904817,355.864007 778.602485,356.147216 777.302772,356.428159 L776.814059,356.533798 L777.025337,357.511224 L777.51405,357.405585 Z M785.328425,355.696133 C786.626488,355.408825 787.927117,355.119293 789.230313,354.827537 L789.718235,354.718303 L789.499766,353.742459 L789.011844,353.851693 C787.709435,354.143273 786.409593,354.432629 785.112319,354.719764 L784.624134,354.827817 L784.84024,355.804187 L785.328425,355.696133 Z M793.139264,353.947489 C794.435907,353.653939 795.735072,353.358206 797.036757,353.060289 L797.524155,352.948739 L797.301053,351.973943 L796.813656,352.085494 C795.512735,352.383236 794.214336,352.678795 792.91846,352.972171 L792.4308,353.082573 L792.651604,354.057891 L793.139264,353.947489 Z M800.945016,352.160996 C802.242412,351.860874 803.542293,351.558599 804.844659,351.254171 L805.331535,351.140364 L805.103921,350.166613 L804.617045,350.28042 C803.315424,350.584673 802.016289,350.886775 800.71964,351.186724 L800.232504,351.299412 L800.457879,352.273684 L800.945016,352.160996 Z M808.744144,350.337989 C810.040413,350.031881 811.339125,349.723657 812.640281,349.413317 L813.126638,349.297315 L812.894635,348.3246 L812.408277,348.440602 C811.107847,348.750769 809.809861,349.058821 808.51432,349.364757 L808.027704,349.479669 L808.257528,350.452901 L808.744144,350.337989 Z M816.521617,348.483042 C817.815839,348.171339 819.11246,347.857557 820.41148,347.541696 L820.897324,347.423562 L820.661055,346.451874 L820.175211,346.570009 C818.876897,346.885697 817.580983,347.199308 816.28747,347.510841 L815.801369,347.627914 L816.035517,348.600116 L816.521617,348.483042 Z M824.289232,346.594386 C825.582604,346.276953 826.878338,345.957475 828.176433,345.635951 L828.661767,345.515739 L828.421343,344.545071 L827.936009,344.665283 C826.638602,344.986636 825.343558,345.305945 824.050875,345.623208 L823.565286,345.742387 L823.803643,346.713564 L824.289232,346.594386 Z M832.059196,344.669893 C833.350076,344.347276 834.643274,344.022651 835.938791,343.696017 L836.423619,343.57378 L836.179143,342.604124 L835.694316,342.726362 C834.399469,343.052826 833.106941,343.377283 831.816733,343.699733 L831.331653,343.820964 L831.574116,344.791125 L832.059196,344.669893 Z M839.816519,342.714105 C841.105894,342.386207 842.397549,342.056335 843.691484,341.724488 L844.17581,341.600276 L843.927386,340.631624 L843.443061,340.755836 C842.149778,341.087516 840.858777,341.417222 839.570057,341.744952 L839.08548,341.868184 L839.331943,342.837336 L839.816519,342.714105 Z M847.573629,340.724702 C848.862979,340.391274 850.154578,340.055899 851.448425,339.718576 L851.932252,339.592436 L851.679972,338.624782 L851.196145,338.750922 C849.902936,339.088078 848.611975,339.423288 847.323263,339.75655 L846.839188,339.881733 L847.089553,340.849885 L847.573629,340.724702 Z M855.315358,338.706378 C856.60237,338.368153 857.891591,338.028015 859.183021,337.685964 L859.666355,337.557947 L859.410321,336.591279 L858.926987,336.719296 C857.636178,337.061183 856.347579,337.401157 855.06119,337.739218 L854.57761,337.866302 L854.831778,338.833462 L855.315358,338.706378 Z M863.054352,336.656627 C864.340834,336.313255 865.629492,335.967997 866.920328,335.620853 L867.403173,335.491002 L867.14347,334.525313 L866.660626,334.655164 C865.370397,335.002145 864.082345,335.34724 862.796472,335.69045 L862.313384,335.81939 L862.571264,336.785567 L863.054352,336.656627 Z M870.775271,334.580291 C872.06054,334.23208 873.347953,333.88201 874.63751,333.530084 L875.11987,333.398445 L874.856593,332.433725 L874.374233,332.565364 C873.085268,332.917128 871.798448,333.267036 870.513773,333.615087 L870.031171,333.745837 L870.292669,334.71104 L870.775271,334.580291 Z M878.505255,332.470755 C879.788447,332.118048 881.073747,331.763513 882.361157,331.407151 L882.843036,331.273765 L882.576263,330.310005 L882.094383,330.443392 C880.807551,330.799594 879.52283,331.153969 878.240218,331.506517 L877.758099,331.639036 L878.023136,332.603274 L878.505255,332.470755 Z M886.2147,330.336771 C887.497237,329.979299 888.781854,329.620026 890.068551,329.258951 L890.549955,329.123859 L890.27977,328.16105 L889.798366,328.296143 C888.512234,328.657059 887.228183,329.016174 885.946212,329.373488 L885.46457,329.507732 L885.733059,330.471015 L886.2147,330.336771 Z M893.916671,328.175468 C895.197471,327.813643 896.480319,327.450044 897.765215,327.084672 L898.246149,326.947914 L897.972633,325.986047 L897.491699,326.122805 C896.207355,326.48802 894.925059,326.851462 893.644812,327.213131 L893.163643,327.34906 L893.435502,328.311397 L893.916671,328.175468 Z M901.610052,325.987813 C902.889806,325.621548 904.171579,325.253534 905.455369,324.883773 L905.935837,324.745387 L905.659065,323.784451 L905.178597,323.922837 C903.895346,324.292443 902.614113,324.660302 901.334899,325.026413 L900.854199,325.163989 L901.129352,326.12539 L901.610052,325.987813 Z M909.30839,323.77052 C910.587075,323.399915 911.867749,323.027586 913.150413,322.653534 L913.630419,322.513554 L913.350459,321.553542 L912.870453,321.693522 C911.588316,322.06742 910.308169,322.439596 909.030013,322.810048 L908.549777,322.949237 L908.828154,323.909708 L909.30839,323.77052 Z M916.98137,321.532956 C918.258738,321.158192 919.538066,320.781729 920.819356,320.403568 L921.298906,320.262033 L921.015836,319.302934 L920.536286,319.444468 C919.255512,319.822478 917.976699,320.198788 916.699849,320.573401 L916.220071,320.714162 L916.501593,321.673717 L916.98137,321.532956 Z M924.657299,319.267494 C925.770595,318.93698 926.885363,318.605192 928.001602,318.272129 L928.480729,318.129167 L928.194806,317.170914 L927.715679,317.313876 C926.59988,317.646808 925.485552,317.978465 924.372697,318.308848 L923.893374,318.451149 L924.177976,319.409794 L924.657299,319.267494 Z" fill="#000000" fill-rule="nonzero"></path>
        <path id="Line-2" d="M585,291.5 L576,287 L576,296 L585,291.5 Z M505.5,292 L509.5,292 L510,292 L510,291 L509.5,291 L505.5,291 L505,291 L505,292 L505.5,292 Z M513.5,292 L517.5,292 L518,292 L518,291 L517.5,291 L513.5,291 L513,291 L513,292 L513.5,292 Z M521.5,292 L525.5,292 L526,292 L526,291 L525.5,291 L521.5,291 L521,291 L521,292 L521.5,292 Z M529.5,292 L533.5,292 L534,292 L534,291 L533.5,291 L529.5,291 L529,291 L529,292 L529.5,292 Z M537.5,292 L541.5,292 L542,292 L542,291 L541.5,291 L537.5,291 L537,291 L537,292 L537.5,292 Z M545.5,292 L549.5,292 L550,292 L550,291 L549.5,291 L545.5,291 L545,291 L545,292 L545.5,292 Z M553.5,292 L557.5,292 L558,292 L558,291 L557.5,291 L553.5,291 L553,291 L553,292 L553.5,292 Z M561.5,292 L565.5,292 L566,292 L566,291 L565.5,291 L561.5,291 L561,291 L561,292 L561.5,292 Z M569.5,292 L573.5,292 L574,292 L574,291 L573.5,291 L569.5,291 L569,291 L569,292 L569.5,292 Z" fill="#000000" fill-rule="nonzero"></path>
    </g>
</svg>