<?xml version="1.0" encoding="UTF-8"?>
<svg width="529px" height="511px" viewBox="0 0 529 511" version="1.1" xmlns="http://www.w3.org/2000/svg" xmlns:xlink="http://www.w3.org/1999/xlink">
    <!-- Generator: Sketch 52.5 (67469) - http://www.bohemiancoding.com/sketch -->
    <title>Artboard</title>
    <desc>Created with Sketch.</desc>
    <g id="Artboard" stroke="none" stroke-width="1" fill="none" fill-rule="evenodd">
        <g id="Group" transform="translate(119.000000, 85.000000)">
            <rect id="Rectangle" stroke="#979797" fill="#B8E986" x="0.5" y="0.5" width="146" height="48" rx="8"></rect>
            <text id="AbstractEventExecuto" font-family="Arial-ItalicMT, Arial" font-size="12" font-style="italic" font-weight="normal" fill="#000000">
                <tspan x="9" y="28">AbstractEventExecutor</tspan>
            </text>
        </g>
        <g id="Group" transform="translate(97.000000, 164.000000)">
            <rect id="Rectangle" stroke="#979797" fill="#B8E986" x="0.5" y="0.5" width="191" height="48" rx="8"></rect>
            <text id="AbstractScheduleEven" font-family="Arial-ItalicMT, Arial" font-size="12" font-style="italic" font-weight="normal" fill="#000000">
                <tspan x="9" y="28">AbstractScheduleEventExecutor</tspan>
            </text>
        </g>
        <path id="Line" d="M193.5,142.5 L193.5,164 L193.5,164.5 L192.5,164.5 L192.5,164 L192.5,142.5 L188.5,142.5 L193,133.5 L197.5,142.5 L193.5,142.5 Z" fill="#979797" fill-rule="nonzero"></path>
        <g id="Group" transform="translate(110.000000, 242.000000)">
            <rect id="Rectangle" stroke="#979797" fill="#B8E986" x="0.5" y="0.5" width="166" height="48" rx="8"></rect>
            <text id="SingleThreadEventExe" font-family="Arial-ItalicMT, Arial" font-size="12" font-style="italic" font-weight="normal" fill="#000000">
                <tspan x="9" y="28">SingleThreadEventExecutor</tspan>
            </text>
        </g>
        <path id="Line" d="M193,221.5 L193,242 L193,242.5 L192,242.5 L192,242 L192,221.5 L188,221.5 L192.5,212.5 L197,221.5 L193,221.5 Z" fill="#979797" fill-rule="nonzero"></path>
        <g id="Group" transform="translate(118.000000, 320.000000)">
            <rect id="Rectangle" stroke="#979797" fill="#B8E986" x="0.5" y="0.5" width="147" height="48" rx="8"></rect>
            <text id="SingleThreadEventLoo" font-family="Arial-ItalicMT, Arial" font-size="12" font-style="italic" font-weight="normal" fill="#000000">
                <tspan x="9" y="28">SingleThreadEventLoop</tspan>
            </text>
        </g>
        <path id="Line" d="M193.853396,299.507356 L193.499926,320.008619 L193.491306,320.508545 L192.491455,320.491306 L192.500074,319.991381 L192.853544,299.490117 L188.854139,299.421162 L193.508619,290.500074 L197.852801,299.576312 L193.853396,299.507356 Z" fill="#979797" fill-rule="nonzero"></path>
        <g id="Group" transform="translate(144.000000, 398.000000)">
            <rect id="Rectangle" stroke="#979797" fill="#F5A623" x="0.5" y="0.5" width="95" height="48" rx="8"></rect>
            <text id="NioEventLoop" font-family="ArialMT, Arial" font-size="12" font-weight="normal" fill="#000000">
                <tspan x="9" y="28">NioEventLoop</tspan>
            </text>
        </g>
        <path id="Line" d="M194.853396,377.507356 L194.499926,398.008619 L194.491306,398.508545 L193.491455,398.491306 L193.500074,397.991381 L193.853544,377.490117 L189.854139,377.421162 L194.508619,368.500074 L198.852801,377.576312 L194.853396,377.507356 Z" fill="#979797" fill-rule="nonzero"></path>
        <g id="Group" transform="translate(361.000000, 242.000000)">
            <rect id="Rectangle" stroke="#979797" fill="#4A90E2" x="0.5" y="0.5" width="105" height="48" rx="8"></rect>
            <text id="EventLoop-&lt;&lt;interfac" font-family="ArialMT, Arial" font-size="12" font-weight="normal" fill="#000000">
                <tspan x="23.8095703" y="21">EventLoop</tspan>
                <tspan x="15.4716797" y="35">&lt;&lt;interface&gt;&gt;</tspan>
            </text>
        </g>
        <path id="Line" d="M415.5,299.5 L415.5,301 L415.5,301.5 L414.5,301.5 L414.5,301 L414.5,299.5 L410.5,299.5 L415,290.5 L419.5,299.5 L415.5,299.5 Z M266,344.5 L265.5,344.5 L265.5,343.5 L266,343.5 L269,343.5 L269.5,343.5 L269.5,344.5 L269,344.5 L266,344.5 Z M272,344.5 L271.5,344.5 L271.5,343.5 L272,343.5 L275,343.5 L275.5,343.5 L275.5,344.5 L275,344.5 L272,344.5 Z M278,344.5 L277.5,344.5 L277.5,343.5 L278,343.5 L281,343.5 L281.5,343.5 L281.5,344.5 L281,344.5 L278,344.5 Z M284,344.5 L283.5,344.5 L283.5,343.5 L284,343.5 L287,343.5 L287.5,343.5 L287.5,344.5 L287,344.5 L284,344.5 Z M290,344.5 L289.5,344.5 L289.5,343.5 L290,343.5 L293,343.5 L293.5,343.5 L293.5,344.5 L293,344.5 L290,344.5 Z M296,344.5 L295.5,344.5 L295.5,343.5 L296,343.5 L299,343.5 L299.5,343.5 L299.5,344.5 L299,344.5 L296,344.5 Z M302,344.5 L301.5,344.5 L301.5,343.5 L302,343.5 L305,343.5 L305.5,343.5 L305.5,344.5 L305,344.5 L302,344.5 Z M308,344.5 L307.5,344.5 L307.5,343.5 L308,343.5 L311,343.5 L311.5,343.5 L311.5,344.5 L311,344.5 L308,344.5 Z M314,344.5 L313.5,344.5 L313.5,343.5 L314,343.5 L317,343.5 L317.5,343.5 L317.5,344.5 L317,344.5 L314,344.5 Z M320,344.5 L319.5,344.5 L319.5,343.5 L320,343.5 L323,343.5 L323.5,343.5 L323.5,344.5 L323,344.5 L320,344.5 Z M326,344.5 L325.5,344.5 L325.5,343.5 L326,343.5 L329,343.5 L329.5,343.5 L329.5,344.5 L329,344.5 L326,344.5 Z M332,344.5 L331.5,344.5 L331.5,343.5 L332,343.5 L335,343.5 L335.5,343.5 L335.5,344.5 L335,344.5 L332,344.5 Z M338,344.5 L337.5,344.5 L337.5,343.5 L338,343.5 L341,343.5 L341.5,343.5 L341.5,344.5 L341,344.5 L338,344.5 Z M344,344.5 L343.5,344.5 L343.5,343.5 L344,343.5 L347,343.5 L347.5,343.5 L347.5,344.5 L347,344.5 L344,344.5 Z M350,344.5 L349.5,344.5 L349.5,343.5 L350,343.5 L353,343.5 L353.5,343.5 L353.5,344.5 L353,344.5 L350,344.5 Z M356,344.5 L355.5,344.5 L355.5,343.5 L356,343.5 L359,343.5 L359.5,343.5 L359.5,344.5 L359,344.5 L356,344.5 Z M362,344.5 L361.5,344.5 L361.5,343.5 L362,343.5 L365,343.5 L365.5,343.5 L365.5,344.5 L365,344.5 L362,344.5 Z M368,344.5 L367.5,344.5 L367.5,343.5 L368,343.5 L371,343.5 L371.5,343.5 L371.5,344.5 L371,344.5 L368,344.5 Z M374,344.5 L373.5,344.5 L373.5,343.5 L374,343.5 L377,343.5 L377.5,343.5 L377.5,344.5 L377,344.5 L374,344.5 Z M380,344.5 L379.5,344.5 L379.5,343.5 L380,343.5 L383,343.5 L383.5,343.5 L383.5,344.5 L383,344.5 L380,344.5 Z M386,344.5 L385.5,344.5 L385.5,343.5 L386,343.5 L389,343.5 L389.5,343.5 L389.5,344.5 L389,344.5 L386,344.5 Z M392,344.5 L391.5,344.5 L391.5,343.5 L392,343.5 L395,343.5 L395.5,343.5 L395.5,344.5 L395,344.5 L392,344.5 Z M398,344.5 L397.5,344.5 L397.5,343.5 L398,343.5 L401,343.5 L401.5,343.5 L401.5,344.5 L401,344.5 L398,344.5 Z M404,344.5 L403.5,344.5 L403.5,343.5 L404,343.5 L407,343.5 L407.5,343.5 L407.5,344.5 L407,344.5 L404,344.5 Z M410,344.5 L409.5,344.5 L409.5,343.5 L410,343.5 L413,343.5 L413.5,343.5 L413.5,344.5 L413,344.5 L410,344.5 Z M415.5,343 L415.5,343.5 L414.5,343.5 L414.5,343 L414.5,340 L414.5,339.5 L415.5,339.5 L415.5,340 L415.5,343 Z M415.5,337 L415.5,337.5 L414.5,337.5 L414.5,337 L414.5,334 L414.5,333.5 L415.5,333.5 L415.5,334 L415.5,337 Z M415.5,331 L415.5,331.5 L414.5,331.5 L414.5,331 L414.5,328 L414.5,327.5 L415.5,327.5 L415.5,328 L415.5,331 Z M415.5,325 L415.5,325.5 L414.5,325.5 L414.5,325 L414.5,322 L414.5,321.5 L415.5,321.5 L415.5,322 L415.5,325 Z M415.5,319 L415.5,319.5 L414.5,319.5 L414.5,319 L414.5,316 L414.5,315.5 L415.5,315.5 L415.5,316 L415.5,319 Z M415.5,313 L415.5,313.5 L414.5,313.5 L414.5,313 L414.5,310 L414.5,309.5 L415.5,309.5 L415.5,310 L415.5,313 Z M415.5,307 L415.5,307.5 L414.5,307.5 L414.5,307 L414.5,304 L414.5,303.5 L415.5,303.5 L415.5,304 L415.5,307 Z" fill="#979797" fill-rule="nonzero"></path>
        <g id="Group" transform="translate(361.000000, 24.000000)">
            <rect id="Rectangle" stroke="#979797" fill="#4A90E2" x="0.5" y="0.5" width="105" height="48" rx="8"></rect>
            <text id="EventLoop-&lt;&lt;interfac" font-family="ArialMT, Arial" font-size="12" font-weight="normal" fill="#000000">
                <tspan x="23.8095703" y="21">EventLoop</tspan>
                <tspan x="15.4716797" y="35">&lt;&lt;interface&gt;&gt;</tspan>
            </text>
        </g>
        <path id="Line" d="M414.5,81.5 L414.5,84 L414.5,84.5 L413.5,84.5 L413.5,84 L413.5,81.5 L409.5,81.5 L414,72.5 L418.5,81.5 L414.5,81.5 Z M265,109.5 L264.5,109.5 L264.5,108.5 L265,108.5 L268,108.5 L268.5,108.5 L268.5,109.5 L268,109.5 L265,109.5 Z M271,109.5 L270.5,109.5 L270.5,108.5 L271,108.5 L274,108.5 L274.5,108.5 L274.5,109.5 L274,109.5 L271,109.5 Z M277,109.5 L276.5,109.5 L276.5,108.5 L277,108.5 L280,108.5 L280.5,108.5 L280.5,109.5 L280,109.5 L277,109.5 Z M283,109.5 L282.5,109.5 L282.5,108.5 L283,108.5 L286,108.5 L286.5,108.5 L286.5,109.5 L286,109.5 L283,109.5 Z M289,109.5 L288.5,109.5 L288.5,108.5 L289,108.5 L292,108.5 L292.5,108.5 L292.5,109.5 L292,109.5 L289,109.5 Z M295,109.5 L294.5,109.5 L294.5,108.5 L295,108.5 L298,108.5 L298.5,108.5 L298.5,109.5 L298,109.5 L295,109.5 Z M301,109.5 L300.5,109.5 L300.5,108.5 L301,108.5 L304,108.5 L304.5,108.5 L304.5,109.5 L304,109.5 L301,109.5 Z M307,109.5 L306.5,109.5 L306.5,108.5 L307,108.5 L310,108.5 L310.5,108.5 L310.5,109.5 L310,109.5 L307,109.5 Z M313,109.5 L312.5,109.5 L312.5,108.5 L313,108.5 L316,108.5 L316.5,108.5 L316.5,109.5 L316,109.5 L313,109.5 Z M319,109.5 L318.5,109.5 L318.5,108.5 L319,108.5 L322,108.5 L322.5,108.5 L322.5,109.5 L322,109.5 L319,109.5 Z M325,109.5 L324.5,109.5 L324.5,108.5 L325,108.5 L328,108.5 L328.5,108.5 L328.5,109.5 L328,109.5 L325,109.5 Z M331,109.5 L330.5,109.5 L330.5,108.5 L331,108.5 L334,108.5 L334.5,108.5 L334.5,109.5 L334,109.5 L331,109.5 Z M337,109.5 L336.5,109.5 L336.5,108.5 L337,108.5 L340,108.5 L340.5,108.5 L340.5,109.5 L340,109.5 L337,109.5 Z M343,109.5 L342.5,109.5 L342.5,108.5 L343,108.5 L346,108.5 L346.5,108.5 L346.5,109.5 L346,109.5 L343,109.5 Z M349,109.5 L348.5,109.5 L348.5,108.5 L349,108.5 L352,108.5 L352.5,108.5 L352.5,109.5 L352,109.5 L349,109.5 Z M355,109.5 L354.5,109.5 L354.5,108.5 L355,108.5 L358,108.5 L358.5,108.5 L358.5,109.5 L358,109.5 L355,109.5 Z M361,109.5 L360.5,109.5 L360.5,108.5 L361,108.5 L364,108.5 L364.5,108.5 L364.5,109.5 L364,109.5 L361,109.5 Z M367,109.5 L366.5,109.5 L366.5,108.5 L367,108.5 L370,108.5 L370.5,108.5 L370.5,109.5 L370,109.5 L367,109.5 Z M373,109.5 L372.5,109.5 L372.5,108.5 L373,108.5 L376,108.5 L376.5,108.5 L376.5,109.5 L376,109.5 L373,109.5 Z M379,109.5 L378.5,109.5 L378.5,108.5 L379,108.5 L382,108.5 L382.5,108.5 L382.5,109.5 L382,109.5 L379,109.5 Z M385,109.5 L384.5,109.5 L384.5,108.5 L385,108.5 L388,108.5 L388.5,108.5 L388.5,109.5 L388,109.5 L385,109.5 Z M391,109.5 L390.5,109.5 L390.5,108.5 L391,108.5 L394,108.5 L394.5,108.5 L394.5,109.5 L394,109.5 L391,109.5 Z M397,109.5 L396.5,109.5 L396.5,108.5 L397,108.5 L400,108.5 L400.5,108.5 L400.5,109.5 L400,109.5 L397,109.5 Z M403,109.5 L402.5,109.5 L402.5,108.5 L403,108.5 L406,108.5 L406.5,108.5 L406.5,109.5 L406,109.5 L403,109.5 Z M409,109.5 L408.5,109.5 L408.5,108.5 L409,108.5 L412,108.5 L412.5,108.5 L412.5,109.5 L412,109.5 L409,109.5 Z M414.5,108 L414.5,108.5 L413.5,108.5 L413.5,108 L413.5,105 L413.5,104.5 L414.5,104.5 L414.5,105 L414.5,108 Z M414.5,102 L414.5,102.5 L413.5,102.5 L413.5,102 L413.5,99 L413.5,98.5 L414.5,98.5 L414.5,99 L414.5,102 Z M414.5,96 L414.5,96.5 L413.5,96.5 L413.5,96 L413.5,93 L413.5,92.5 L414.5,92.5 L414.5,93 L414.5,96 Z M414.5,90 L414.5,90.5 L413.5,90.5 L413.5,90 L413.5,87 L413.5,86.5 L414.5,86.5 L414.5,87 L414.5,90 Z" fill="#979797" fill-rule="nonzero"></path>
    </g>
</svg>