<?xml version="1.0" encoding="UTF-8"?>
<svg width="1088px" height="354px" viewBox="0 0 1088 354" version="1.1" xmlns="http://www.w3.org/2000/svg" xmlns:xlink="http://www.w3.org/1999/xlink">
    <!-- Generator: Sketch 51.2 (57519) - http://www.bohemiancoding.com/sketch -->
    <title>ServerBootstrap</title>
    <desc>Created with Sketch.</desc>
    <defs></defs>
    <g id="ServerBootstrap" stroke="none" stroke-width="1" fill="none" fill-rule="evenodd">
        <g id="Abstract" transform="translate(529.000000, 137.000000)">
            <rect id="Rectangle-3" stroke="#979797" fill="#D8D8D8" x="0.5" y="0.5" width="232" height="50" rx="8"></rect>
            <text id="AbstractBootstrap" font-family="Arial-BoldItalicMT, Arial" font-size="12" font-style="italic" font-weight="bold" fill="#000000">
                <tspan x="60.8271484" y="29">AbstractBootstrap</tspan>
            </text>
        </g>
        <g id="Class" transform="translate(529.000000, 237.000000)">
            <rect id="Rectangle-3" stroke="#979797" fill="#B8E986" x="0.5" y="0.5" width="232" height="50" rx="8"></rect>
            <text id="ServerBootstrap" font-family="Arial-BoldMT, Arial" font-size="12" font-weight="bold" fill="#000000">
                <tspan x="66.484375" y="29">ServerBootstrap</tspan>
            </text>
        </g>
        <path id="Line-5" d="M645.5,187 L641,196 L650,196 L645.5,187 Z M646,236.5 L646,195.5 L646,195 L645,195 L645,195.5 L645,236.5 L645,237 L646,237 L646,236.5 Z" fill="#000000" fill-rule="nonzero"></path>
        <g id="Class" transform="translate(232.000000, 136.000000)">
            <rect id="Rectangle-3" stroke="#979797" fill="#B8E986" x="0.5" y="0.5" width="232" height="50" rx="8"></rect>
            <text id="ReflectiveChannelFac" font-family="Arial-BoldMT, Arial" font-size="12" font-weight="bold" fill="#000000">
                <tspan x="39.8095703" y="29">ReflectiveChannelFactory</tspan>
            </text>
        </g>
        <path id="Line-7" d="M473.245131,167.314212 L465.245131,162.814212 L465.245131,163.685788 L473.245131,159.185788 L473.680918,158.940657 L473.190657,158.069082 L472.754869,158.314212 L464.754869,162.814212 L463.980136,163.25 L464.754869,163.685788 L472.754869,168.185788 L473.190657,168.430918 L473.680918,167.559343 L473.245131,167.314212 Z M526.5,162.75 L520.5,162.75 L520,162.75 L520,163.75 L520.5,163.75 L526.5,163.75 L527,163.75 L527,162.75 L526.5,162.75 Z M514.5,162.75 L508.5,162.75 L508,162.75 L508,163.75 L508.5,163.75 L514.5,163.75 L515,163.75 L515,162.75 L514.5,162.75 Z M502.5,162.75 L496.5,162.75 L496,162.75 L496,163.75 L496.5,163.75 L502.5,163.75 L503,163.75 L503,162.75 L502.5,162.75 Z M490.5,162.75 L484.5,162.75 L484,162.75 L484,163.75 L484.5,163.75 L490.5,163.75 L491,163.75 L491,162.75 L490.5,162.75 Z M478.5,162.75 L473,162.75 L472.5,162.75 L472,162.75 L472,163.75 L472.5,163.75 L473,163.75 L478.5,163.75 L479,163.75 L479,162.75 L478.5,162.75 Z M466.5,162.75 L466,162.75 L465.5,162.75 L465.5,163.75 L466,163.75 L466.5,163.75 L467,163.75 L467,162.75 L466.5,162.75 Z" fill="#000000" fill-rule="nonzero"></path>
        <g id="Interface" transform="translate(841.000000, 134.000000)">
            <rect id="Rectangle" stroke="#979797" fill="#4A90E2" x="0.5" y="0.5" width="172" height="53" rx="8"></rect>
            <text id="EventLoopGroup" font-family="Arial-BoldMT, Arial" font-size="12" font-weight="bold" fill="#000000">
                <tspan x="38.5039062" y="23">EventLoopGroup</tspan>
            </text>
            <text id="&lt;&lt;interface&gt;&gt;" font-family="ArialMT, Arial" font-size="12" font-weight="normal" fill="#000000">
                <tspan x="49.4716797" y="40">&lt;&lt;interface&gt;&gt;</tspan>
            </text>
        </g>
        <g id="Interface" transform="translate(846.000000, 234.000000)">
            <rect id="Rectangle" stroke="#979797" fill="#4A90E2" x="0.5" y="0.5" width="172" height="53" rx="8"></rect>
            <text id="ChannelHandler" font-family="Arial-BoldMT, Arial" font-size="12" font-weight="bold" fill="#000000">
                <tspan x="41.4921875" y="23">ChannelHandler</tspan>
            </text>
            <text id="&lt;&lt;interface&gt;&gt;" font-family="ArialMT, Arial" font-size="12" font-weight="normal" fill="#000000">
                <tspan x="49.4716797" y="40">&lt;&lt;interface&gt;&gt;</tspan>
            </text>
        </g>
        <path id="Line-7" d="M832.754869,157.185788 L840.754869,161.685788 L840.754869,160.814212 L832.754869,165.314212 L832.319082,165.559343 L832.809343,166.430918 L833.245131,166.185788 L841.245131,161.685788 L842.019864,161.25 L841.245131,160.814212 L833.245131,156.314212 L832.809343,156.069082 L832.319082,156.940657 L832.754869,157.185788 Z M761.5,161.75 L767.5,161.75 L768,161.75 L768,160.75 L767.5,160.75 L761.5,160.75 L761,160.75 L761,161.75 L761.5,161.75 Z M773.5,161.75 L779.5,161.75 L780,161.75 L780,160.75 L779.5,160.75 L773.5,160.75 L773,160.75 L773,161.75 L773.5,161.75 Z M785.5,161.75 L791.5,161.75 L792,161.75 L792,160.75 L791.5,160.75 L785.5,160.75 L785,160.75 L785,161.75 L785.5,161.75 Z M797.5,161.75 L803.5,161.75 L804,161.75 L804,160.75 L803.5,160.75 L797.5,160.75 L797,160.75 L797,161.75 L797.5,161.75 Z M809.5,161.75 L815.5,161.75 L816,161.75 L816,160.75 L815.5,160.75 L809.5,160.75 L809,160.75 L809,161.75 L809.5,161.75 Z M821.5,161.75 L827.5,161.75 L828,161.75 L828,160.75 L827.5,160.75 L821.5,160.75 L821,160.75 L821,161.75 L821.5,161.75 Z M833.5,161.75 L839.5,161.75 L840,161.75 L840,160.75 L839.5,160.75 L833.5,160.75 L833,160.75 L833,161.75 L833.5,161.75 Z" fill="#000000" fill-rule="nonzero"></path>
        <path id="Line-7" d="M909.666232,195.597587 L914.444472,187.760596 L913.573434,187.72998 L917.78964,195.883115 L918.019312,196.327244 L918.907571,195.867901 L918.6779,195.423772 L914.461693,187.270637 L914.053388,186.481074 L913.590655,187.240021 L908.812416,195.077012 L908.552129,195.503921 L909.405945,196.024495 L909.666232,195.597587 Z M763.498337,262.040743 C763.64748,260.216539 764.208964,258.366687 765.186305,256.489095 L765.417166,256.045583 L764.530141,255.583861 L764.29928,256.027373 C763.262451,258.01925 762.662073,259.997242 762.501663,261.959257 L762.46092,262.457594 L763.457594,262.53908 L763.498337,262.040743 Z M768.554528,251.673035 C769.753914,250.301362 771.165039,248.917236 772.78799,247.521126 L773.16704,247.195056 L772.514901,246.436957 L772.135851,246.763027 C770.478326,248.188878 769.033588,249.605975 767.801726,251.014788 L767.472603,251.391189 L768.225405,252.049436 L768.554528,251.673035 Z M777.476962,243.870268 C779.010203,242.778655 780.668874,241.680429 782.452942,240.575679 L782.878039,240.312446 L782.351572,239.46225 L781.926474,239.725484 C780.124654,240.841227 778.448166,241.951249 776.896977,243.05564 L776.489663,243.345633 L777.069648,244.16026 L777.476962,243.870268 Z M787.647113,237.536814 C789.322215,236.607551 791.084027,235.673889 792.932534,234.735849 L793.378409,234.509586 L792.925883,233.617835 L792.480007,233.844098 C790.620743,234.787597 788.848082,235.727009 787.162008,236.662357 L786.72478,236.90491 L787.209885,237.779366 L787.647113,237.536814 Z M798.367543,232.285896 C800.01021,231.704109 801.913999,231.15303 804.079831,230.628863 L804.565801,230.51125 L804.330575,229.539309 L803.844605,229.656922 C801.647364,230.188691 799.711235,230.749131 798.033691,231.34327 L797.562379,231.510196 L797.89623,232.452821 L798.367543,232.285896 Z M809.934221,229.392008 C811.765618,229.051438 813.730293,228.722076 815.834976,228.401533 L816.329277,228.326251 L816.178713,227.337651 L815.684413,227.412933 C813.569365,227.735055 811.594011,228.066207 809.751393,228.408863 L809.259821,228.500277 L809.442648,229.483422 L809.934221,229.392008 Z M821.762361,227.568791 C823.64419,227.323925 825.622645,227.082783 827.710922,226.843024 L828.207659,226.785992 L828.093596,225.792519 L827.596859,225.84955 C825.50376,226.089863 823.520343,226.33161 821.633328,226.577151 L821.137508,226.641667 L821.266541,227.633308 L821.762361,227.568791 Z M833.673027,226.192387 C835.562618,225.995708 837.54127,225.797741 839.640961,225.594753 L840.138641,225.54664 L840.042415,224.551281 L839.544735,224.599394 C837.442706,224.802608 835.46164,225.000816 833.569501,225.19776 L833.072187,225.249523 L833.175714,226.24415 L833.673027,226.192387 Z M845.622134,225.032187 C847.455831,224.863814 849.390703,224.689258 851.597721,224.492646 L852.095749,224.448279 L852.007015,223.452223 L851.508987,223.49659 C849.30113,223.693278 847.365385,223.867912 845.530698,224.036376 L845.032792,224.082094 L845.124229,225.077905 L845.622134,225.032187 Z M857.555647,223.965408 C860.618262,223.695308 861.878485,223.58392 863.533701,223.436602 L864.031733,223.392276 L863.943081,222.396214 L863.44505,222.440539 C861.790193,222.587825 860.530139,222.699199 857.467795,222.969274 L856.969728,223.0132 L857.05758,224.009334 L857.555647,223.965408 Z M869.509459,222.898165 C871.620152,222.705065 873.592606,222.520885 875.485781,222.339693 L875.983506,222.292056 L875.888233,221.296605 L875.390508,221.344241 C873.498802,221.525294 871.527721,221.709345 869.418353,221.902323 L868.920432,221.947876 L869.011538,222.943718 L869.509459,222.898165 Z M881.46745,221.749869 C883.536746,221.539133 885.521215,221.329342 887.438089,221.118194 L887.935083,221.06345 L887.825593,220.069462 L887.328599,220.124206 C885.414545,220.335043 883.432789,220.544548 881.366135,220.755015 L880.868707,220.805673 L880.970023,221.800527 L881.46745,221.749869 Z M893.409667,220.429126 C895.472753,220.179234 897.456399,219.925582 899.368315,219.66659 L899.863789,219.599472 L899.729553,218.608522 L899.234078,218.67564 C897.326964,218.933983 895.347966,219.18704 893.289421,219.436382 L892.793049,219.496505 L892.913295,220.489249 L893.409667,220.429126 Z M905.386641,218.624891 C907.186469,217.930962 908.713742,216.51105 909.969173,214.385259 L910.22343,213.954732 L909.362376,213.446218 L909.10812,213.876745 C907.960191,215.820504 906.599547,217.0855 905.0269,217.691839 L904.560374,217.871709 L904.920115,218.804761 L905.386641,218.624891 Z M912.264169,208.703952 C912.752939,206.948803 913.161432,204.970098 913.490131,202.767403 L913.563927,202.272879 L912.574879,202.125287 L912.501083,202.619811 C912.178185,204.78363 911.777937,206.722398 911.300825,208.435682 L911.16669,208.917353 L912.130034,209.185624 L912.264169,208.703952 Z M914.153059,196.698791 C914.182582,196.305954 914.210267,195.907905 914.236113,195.504646 L914.406196,190.677549 L914.423781,190.177859 L913.4244,190.142688 L913.406815,190.642379 L913.237446,195.455079 C913.212548,195.840305 913.185118,196.234693 913.155871,196.623848 L913.1184,197.122442 L914.115588,197.197385 L914.153059,196.698791 Z" fill="#000000" fill-rule="nonzero"></path>
        <path id="Line-7" d="M838.754869,259.185788 L846.754869,263.685788 L846.754869,262.814212 L838.754869,267.314212 L838.319082,267.559343 L838.809343,268.430918 L839.245131,268.185788 L847.245131,263.685788 L848.019864,263.25 L847.245131,262.814212 L839.245131,258.314212 L838.809343,258.069082 L838.319082,258.940657 L838.754869,259.185788 Z M762.5,263.75 L768.5,263.75 L769,263.75 L769,262.75 L768.5,262.75 L762.5,262.75 L762,262.75 L762,263.75 L762.5,263.75 Z M774.5,263.75 L780.5,263.75 L781,263.75 L781,262.75 L780.5,262.75 L774.5,262.75 L774,262.75 L774,263.75 L774.5,263.75 Z M786.5,263.75 L792.5,263.75 L793,263.75 L793,262.75 L792.5,262.75 L786.5,262.75 L786,262.75 L786,263.75 L786.5,263.75 Z M798.5,263.75 L804.5,263.75 L805,263.75 L805,262.75 L804.5,262.75 L798.5,262.75 L798,262.75 L798,263.75 L798.5,263.75 Z M810.5,263.75 L816.5,263.75 L817,263.75 L817,262.75 L816.5,262.75 L810.5,262.75 L810,262.75 L810,263.75 L810.5,263.75 Z M822.5,263.75 L828.5,263.75 L829,263.75 L829,262.75 L828.5,262.75 L822.5,262.75 L822,262.75 L822,263.75 L822.5,263.75 Z M834.5,263.75 L839,263.75 L840.5,263.75 L841,263.75 L841,262.75 L840.5,262.75 L839,262.75 L834.5,262.75 L834,262.75 L834,263.75 L834.5,263.75 Z" fill="#000000" fill-rule="nonzero"></path>
        <g id="Interface" transform="translate(262.000000, 28.000000)">
            <rect id="Rectangle" stroke="#979797" fill="#4A90E2" x="0.5" y="0.5" width="172" height="53" rx="8"></rect>
            <text id="ChannelFactory" font-family="Arial-BoldMT, Arial" font-size="12" font-weight="bold" fill="#000000">
                <tspan x="42.1572266" y="23">ChannelFactory</tspan>
            </text>
            <text id="&lt;&lt;interface&gt;&gt;" font-family="ArialMT, Arial" font-size="12" font-weight="normal" fill="#000000">
                <tspan x="49.4716797" y="40">&lt;&lt;interface&gt;&gt;</tspan>
            </text>
        </g>
        <g id="Interface" transform="translate(10.000000, 133.000000)">
            <rect id="Rectangle" stroke="#979797" fill="#4A90E2" x="0.5" y="0.5" width="172" height="53" rx="8"></rect>
            <text id="ChannelFactory" font-family="Arial-BoldMT, Arial" font-size="12" font-weight="bold" fill="#000000">
                <tspan x="42.1572266" y="23">ChannelFactory</tspan>
            </text>
            <text id="&lt;&lt;interface&gt;&gt;" font-family="ArialMT, Arial" font-size="12" font-weight="normal" fill="#000000">
                <tspan x="49.4716797" y="40">&lt;&lt;interface&gt;&gt;</tspan>
            </text>
        </g>
        <path id="Line-7" d="M190.265964,168.564212 L182.265964,164.064212 L182.265964,164.935788 L190.265964,160.435788 L190.701752,160.190657 L190.21149,159.319082 L189.775703,159.564212 L181.775703,164.064212 L181.000969,164.5 L181.775703,164.935788 L189.775703,169.435788 L190.21149,169.680918 L190.701752,168.809343 L190.265964,168.564212 Z M231.479167,164 L225.479167,164 L224.979167,164 L224.979167,165 L225.479167,165 L231.479167,165 L231.979167,165 L231.979167,164 L231.479167,164 Z M219.479167,164 L213.479167,164 L212.979167,164 L212.979167,165 L213.479167,165 L219.479167,165 L219.979167,165 L219.979167,164 L219.479167,164 Z M207.479167,164 L201.479167,164 L200.979167,164 L200.979167,165 L201.479167,165 L207.479167,165 L207.979167,165 L207.979167,164 L207.479167,164 Z M195.479167,164 L190.020833,164 L189.479167,164 L188.979167,164 L188.979167,165 L189.479167,165 L190.020833,165 L195.479167,165 L195.979167,165 L195.979167,164 L195.479167,164 Z M183.479167,164 L183.020833,164 L182.520833,164 L182.520833,165 L183.020833,165 L183.479167,165 L183.979167,165 L183.979167,164 L183.479167,164 Z" fill="#000000" fill-rule="nonzero"></path>
        <path id="Line-2" d="M349.25,80 L344.75,89 L353.75,89 L349.25,80 Z M349.75,136.5 L349.75,132.5 L349.75,132 L348.75,132 L348.75,132.5 L348.75,136.5 L348.75,137 L349.75,137 L349.75,136.5 Z M349.75,128.5 L349.75,124.5 L349.75,124 L348.75,124 L348.75,124.5 L348.75,128.5 L348.75,129 L349.75,129 L349.75,128.5 Z M349.75,120.5 L349.75,116.5 L349.75,116 L348.75,116 L348.75,116.5 L348.75,120.5 L348.75,121 L349.75,121 L349.75,120.5 Z M349.75,112.5 L349.75,108.5 L349.75,108 L348.75,108 L348.75,108.5 L348.75,112.5 L348.75,113 L349.75,113 L349.75,112.5 Z M349.75,104.5 L349.75,100.5 L349.75,100 L348.75,100 L348.75,100.5 L348.75,104.5 L348.75,105 L349.75,105 L349.75,104.5 Z M349.75,96.5 L349.75,92.5 L349.75,92 L348.75,92 L348.75,92.5 L348.75,96.5 L348.75,97 L349.75,97 L349.75,96.5 Z" fill="#000000" fill-rule="nonzero"></path>
    </g>
</svg>