<?xml version="1.0" encoding="UTF-8"?>
<svg width="986px" height="662px" viewBox="0 0 986 662" version="1.1" xmlns="http://www.w3.org/2000/svg" xmlns:xlink="http://www.w3.org/1999/xlink">
    <!-- Generator: Sketch 51.2 (57519) - http://www.bohemiancoding.com/sketch -->
    <title>Recycler</title>
    <desc>Created with Sketch.</desc>
    <defs></defs>
    <g id="Recycler" stroke="none" stroke-width="1" fill="none" fill-rule="evenodd">
        <g id="Class" transform="translate(0.000000, 1.000000)">
            <path d="M8,0.5 C3.85786438,0.5 0.5,3.85786438 0.5,8 L0.5,43 C0.5,47.1421356 3.85786438,50.5 8,50.5 L150,50.5 C154.142136,50.5 157.5,47.1421356 157.5,43 L157.5,8 C157.5,3.85786438 154.142136,0.5 150,0.5 L8,0.5 Z" id="Rectangle-3" stroke="#979797" fill="#9B9B9B"></path>
            <text id="Thread" font-family="Arial-BoldMT, Arial" font-size="12" font-weight="bold" fill="#000000">
                <tspan x="59.4960938" y="29">Thread</tspan>
            </text>
        </g>
        <path id="Line-3" d="M245.877188,25.9801233 C245.981085,25.9281747 246.06533,25.8439293 246.117279,25.7400322 C246.249877,25.474835 246.142385,25.1523577 245.877188,25.0197591 L237.951025,21.0566778 C237.876479,21.0194048 237.794279,21 237.710934,21 C237.414434,21 237.174074,21.2403604 237.174074,21.5368599 L237.174074,29.4630225 C237.174074,29.5463674 237.193479,29.6285676 237.230752,29.7031136 C237.36335,29.9683108 237.685828,30.0758032 237.951025,29.9432046 L245.877188,25.9801233 Z M158.325926,26 L237.674074,26 L238.174074,26 L238.174074,25 L237.674074,25 L158.325926,25 L157.825926,25 L157.825926,26 L158.325926,26 Z" fill="#000000" fill-rule="nonzero"></path>
        <text id="申请内存" font-family="PingFangSC-Semibold, PingFang SC" font-size="12" font-weight="500" fill="#000000">
            <tspan x="173" y="19">申请内存</tspan>
        </text>
        <g id="Class" transform="translate(247.000000, 0.000000)">
            <path d="M8,0.5 C3.85786438,0.5 0.5,3.85786438 0.5,8 L0.5,43 C0.5,47.1421356 3.85786438,50.5 8,50.5 L645,50.5 C649.142136,50.5 652.5,47.1421356 652.5,43 L652.5,8 C652.5,3.85786438 649.142136,0.5 645,0.5 L8,0.5 Z" id="Rectangle-3" stroke="#979797" fill="#9EC2EB"></path>
            <text id="PooledByteBufAllocat" font-family="Arial-BoldMT, Arial" font-size="12" font-weight="bold" fill="#000000">
                <tspan x="259.494141" y="29">PooledByteBufAllocator</tspan>
            </text>
        </g>
        <g id="Class" transform="translate(247.000000, 94.000000)">
            <path d="M8,0.5 C3.85786438,0.5 0.5,3.85786438 0.5,8 L0.5,43 C0.5,47.1421356 3.85786438,50.5 8,50.5 L150,50.5 C154.142136,50.5 157.5,47.1421356 157.5,43 L157.5,8 C157.5,3.85786438 154.142136,0.5 150,0.5 L8,0.5 Z" id="Rectangle-3" stroke="#979797" fill="#9B9B9B"></path>
            <text id="Thread01" font-family="Arial-BoldMT, Arial" font-size="12" font-weight="bold" fill="#000000">
                <tspan x="52.8222656" y="29">Thread01</tspan>
            </text>
        </g>
        <g id="Class" transform="translate(495.000000, 94.000000)">
            <path d="M8,0.5 C3.85786438,0.5 0.5,3.85786438 0.5,8 L0.5,43 C0.5,47.1421356 3.85786438,50.5 8,50.5 L150,50.5 C154.142136,50.5 157.5,47.1421356 157.5,43 L157.5,8 C157.5,3.85786438 154.142136,0.5 150,0.5 L8,0.5 Z" id="Rectangle-3" stroke="#979797" fill="#9B9B9B"></path>
            <text id="Thread02" font-family="Arial-BoldMT, Arial" font-size="12" font-weight="bold" fill="#000000">
                <tspan x="52.8222656" y="29">Thread02</tspan>
            </text>
        </g>
        <g id="Class" transform="translate(743.000000, 94.000000)">
            <path d="M8,0.5 C3.85786438,0.5 0.5,3.85786438 0.5,8 L0.5,43 C0.5,47.1421356 3.85786438,50.5 8,50.5 L150,50.5 C154.142136,50.5 157.5,47.1421356 157.5,43 L157.5,8 C157.5,3.85786438 154.142136,0.5 150,0.5 L8,0.5 Z" id="Rectangle-3" stroke="#979797" fill="#9B9B9B"></path>
            <text id="Thread03" font-family="Arial-BoldMT, Arial" font-size="12" font-weight="bold" fill="#000000">
                <tspan x="53.3222656" y="29">Thread03</tspan>
            </text>
        </g>
        <path id="Line-3" d="M325.769877,93.7031136 C325.821825,93.8070107 325.906071,93.891256 326.009968,93.9432046 C326.275165,94.0758032 326.597642,93.9683108 326.730241,93.7031136 L330.693322,85.7769509 C330.730595,85.702405 330.75,85.6202047 330.75,85.5368599 C330.75,85.2403604 330.50964,85 330.21314,85 L322.286977,85 C322.203633,85 322.121432,85.0194048 322.046886,85.0566778 C321.781689,85.1892764 321.674197,85.5117537 321.806795,85.7769509 L325.769877,93.7031136 Z M325.75,51.5 L325.75,85.5 L325.75,86 L326.75,86 L326.75,85.5 L326.75,51.5 L326.75,51 L325.75,51 L325.75,51.5 Z" fill="#000000" fill-rule="nonzero"></path>
        <path id="Line-3" d="M573.769877,94.7031136 C573.821825,94.8070107 573.906071,94.891256 574.009968,94.9432046 C574.275165,95.0758032 574.597642,94.9683108 574.730241,94.7031136 L578.693322,86.7769509 C578.730595,86.702405 578.75,86.6202047 578.75,86.5368599 C578.75,86.2403604 578.50964,86 578.21314,86 L570.286977,86 C570.203633,86 570.121432,86.0194048 570.046886,86.0566778 C569.781689,86.1892764 569.674197,86.5117537 569.806795,86.7769509 L573.769877,94.7031136 Z M573.75,51.5 L573.75,86.5 L573.75,87 L574.75,87 L574.75,86.5 L574.75,51.5 L574.75,51 L573.75,51 L573.75,51.5 Z" fill="#000000" fill-rule="nonzero"></path>
        <path id="Line-3" d="M821.019877,92.8588513 C821.071825,92.9627484 821.156071,93.0469937 821.259968,93.0989423 C821.525165,93.2315409 821.847642,93.1240485 821.980241,92.8588513 L825.943322,84.9326886 C825.980595,84.8581427 826,84.7759424 826,84.6925976 C826,84.3960981 825.75964,84.1557377 825.46314,84.1557377 L817.536977,84.1557377 C817.453633,84.1557377 817.371432,84.1751426 817.296886,84.2124155 C817.031689,84.3450141 816.924197,84.6674914 817.056795,84.9326886 L821.019877,92.8588513 Z M821,51.3442623 L821,84.6557377 L821,85.1557377 L822,85.1557377 L822,84.6557377 L822,51.3442623 L822,50.8442623 L821,50.8442623 L821,51.3442623 Z" fill="#000000" fill-rule="nonzero"></path>
        <g id="Class" transform="translate(247.000000, 193.000000)">
            <path d="M8,0.5 C3.85786438,0.5 0.5,3.85786438 0.5,8 L0.5,43 C0.5,47.1421356 3.85786438,50.5 8,50.5 L150,50.5 C154.142136,50.5 157.5,47.1421356 157.5,43 L157.5,8 C157.5,3.85786438 154.142136,0.5 150,0.5 L8,0.5 Z" id="Rectangle-3" stroke="#979797" fill="#8B572A"></path>
            <text id="PoolArena" font-family="Arial-BoldMT, Arial" font-size="12" font-weight="bold" fill="#000000">
                <tspan x="49.4941406" y="29">PoolArena</tspan>
            </text>
        </g>
        <g id="Class" transform="translate(495.000000, 193.000000)">
            <path d="M8,0.5 C3.85786438,0.5 0.5,3.85786438 0.5,8 L0.5,43 C0.5,47.1421356 3.85786438,50.5 8,50.5 L150,50.5 C154.142136,50.5 157.5,47.1421356 157.5,43 L157.5,8 C157.5,3.85786438 154.142136,0.5 150,0.5 L8,0.5 Z" id="Rectangle-3" stroke="#979797" fill="#8B572A"></path>
            <text id="PoolArena" font-family="Arial-BoldMT, Arial" font-size="12" font-weight="bold" fill="#000000">
                <tspan x="49.4941406" y="29">PoolArena</tspan>
            </text>
        </g>
        <g id="Class" transform="translate(742.000000, 193.000000)">
            <path d="M8,0.5 C3.85786438,0.5 0.5,3.85786438 0.5,8 L0.5,43 C0.5,47.1421356 3.85786438,50.5 8,50.5 L150,50.5 C154.142136,50.5 157.5,47.1421356 157.5,43 L157.5,8 C157.5,3.85786438 154.142136,0.5 150,0.5 L8,0.5 Z" id="Rectangle-3" stroke="#979797" fill="#8B572A"></path>
            <text id="PoolArena" font-family="Arial-BoldMT, Arial" font-size="12" font-weight="bold" fill="#000000">
                <tspan x="49.4941406" y="29">PoolArena</tspan>
            </text>
        </g>
        <path id="Line-3" d="M326.019877,192.801474 C326.071825,192.905371 326.156071,192.989617 326.259968,193.041565 C326.525165,193.174164 326.847642,193.066671 326.980241,192.801474 L330.943322,184.875312 C330.980595,184.800766 331,184.718565 331,184.635221 C331,184.338721 330.75964,184.098361 330.46314,184.098361 L322.536977,184.098361 C322.453633,184.098361 322.371432,184.117766 322.296886,184.155038 C322.031689,184.287637 321.924197,184.610114 322.056795,184.875312 L326.019877,192.801474 Z M326,144.401639 L326,184.598361 L326,185.098361 L327,185.098361 L327,184.598361 L327,144.401639 L327,143.901639 L326,143.901639 L326,144.401639 Z" fill="#000000" fill-rule="nonzero"></path>
        <path id="Line-3" d="M574.019877,192.809671 C574.071825,192.913568 574.156071,192.997813 574.259968,193.049762 C574.525165,193.182361 574.847642,193.074868 574.980241,192.809671 L578.943322,184.883508 C578.980595,184.808962 579,184.726762 579,184.643417 C579,184.346918 578.75964,184.106557 578.46314,184.106557 L570.536977,184.106557 C570.453633,184.106557 570.371432,184.125962 570.296886,184.163235 C570.031689,184.295834 569.924197,184.618311 570.056795,184.883508 L574.019877,192.809671 Z M574,145.393443 L574,184.606557 L574,185.106557 L575,185.106557 L575,184.606557 L575,145.393443 L575,144.893443 L574,144.893443 L574,145.393443 Z" fill="#000000" fill-rule="nonzero"></path>
        <path id="Line-3" d="M821.019877,191.817868 C821.071825,191.921765 821.156071,192.00601 821.259968,192.057959 C821.525165,192.190557 821.847642,192.083065 821.980241,191.817868 L825.943322,183.891705 C825.980595,183.817159 826,183.734959 826,183.651614 C826,183.355114 825.75964,183.114754 825.46314,183.114754 L817.536977,183.114754 C817.453633,183.114754 817.371432,183.134159 817.296886,183.171432 C817.031689,183.304031 816.924197,183.626508 817.056795,183.891705 L821.019877,191.817868 Z M821,145.385246 L821,183.614754 L821,184.114754 L822,184.114754 L822,183.614754 L822,145.385246 L822,144.885246 L821,144.885246 L821,145.385246 Z" fill="#000000" fill-rule="nonzero"></path>
        <g id="Class" transform="translate(248.000000, 299.000000)">
            <path d="M8,0.5 C3.85786438,0.5 0.5,3.85786438 0.5,8 L0.5,43 C0.5,47.1421356 3.85786438,50.5 8,50.5 L645,50.5 C649.142136,50.5 652.5,47.1421356 652.5,43 L652.5,8 C652.5,3.85786438 649.142136,0.5 645,0.5 L8,0.5 Z" id="Rectangle-3" stroke="#979797" fill="#F5A623"></path>
            <text id="Recycler" font-family="Arial-BoldMT, Arial" font-size="12" font-weight="bold" fill="#000000">
                <tspan x="303.480469" y="29">Recycler</tspan>
            </text>
        </g>
        <path id="Line-3" d="M326.019877,298.752294 C326.071825,298.856191 326.156071,298.940436 326.259968,298.992385 C326.525165,299.124984 326.847642,299.017491 326.980241,298.752294 L330.943322,290.826131 C330.980595,290.751585 331,290.669385 331,290.58604 C331,290.289541 330.75964,290.04918 330.46314,290.04918 L322.536977,290.04918 C322.453633,290.04918 322.371432,290.068585 322.296886,290.105858 C322.031689,290.238457 321.924197,290.560934 322.056795,290.826131 L326.019877,298.752294 Z M326,244.45082 L326,290.54918 L326,291.04918 L327,291.04918 L327,290.54918 L327,244.45082 L327,243.95082 L326,243.95082 L326,244.45082 Z" fill="#000000" fill-rule="nonzero"></path>
        <path id="Line-3" d="M574.019877,298.752294 C574.071825,298.856191 574.156071,298.940436 574.259968,298.992385 C574.525165,299.124984 574.847642,299.017491 574.980241,298.752294 L578.943322,290.826131 C578.980595,290.751585 579,290.669385 579,290.58604 C579,290.289541 578.75964,290.04918 578.46314,290.04918 L570.536977,290.04918 C570.453633,290.04918 570.371432,290.068585 570.296886,290.105858 C570.031689,290.238457 569.924197,290.560934 570.056795,290.826131 L574.019877,298.752294 Z M574,244.45082 L574,290.54918 L574,291.04918 L575,291.04918 L575,290.54918 L575,244.45082 L575,243.95082 L574,243.95082 L574,244.45082 Z" fill="#000000" fill-rule="nonzero"></path>
        <path id="Line-3" d="M821.019877,298.752294 C821.071825,298.856191 821.156071,298.940436 821.259968,298.992385 C821.525165,299.124984 821.847642,299.017491 821.980241,298.752294 L825.943322,290.826131 C825.980595,290.751585 826,290.669385 826,290.58604 C826,290.289541 825.75964,290.04918 825.46314,290.04918 L817.536977,290.04918 C817.453633,290.04918 817.371432,290.068585 817.296886,290.105858 C817.031689,290.238457 816.924197,290.560934 817.056795,290.826131 L821.019877,298.752294 Z M821,244.45082 L821,290.54918 L821,291.04918 L822,291.04918 L822,290.54918 L822,244.45082 L822,243.95082 L821,243.95082 L821,244.45082 Z" fill="#000000" fill-rule="nonzero"></path>
        <g id="Class" transform="translate(248.000000, 406.000000)">
            <path d="M8,0.5 C3.85786438,0.5 0.5,3.85786438 0.5,8 L0.5,43 C0.5,47.1421356 3.85786438,50.5 8,50.5 L150,50.5 C154.142136,50.5 157.5,47.1421356 157.5,43 L157.5,8 C157.5,3.85786438 154.142136,0.5 150,0.5 L8,0.5 Z" id="Rectangle-3" stroke="#979797" fill="#9B9B9B"></path>
            <text id="Thread01" font-family="Arial-BoldMT, Arial" font-size="12" font-weight="bold" fill="#000000">
                <tspan x="52.8222656" y="29">Thread01</tspan>
            </text>
        </g>
        <g id="Class" transform="translate(496.000000, 406.000000)">
            <path d="M8,0.5 C3.85786438,0.5 0.5,3.85786438 0.5,8 L0.5,43 C0.5,47.1421356 3.85786438,50.5 8,50.5 L150,50.5 C154.142136,50.5 157.5,47.1421356 157.5,43 L157.5,8 C157.5,3.85786438 154.142136,0.5 150,0.5 L8,0.5 Z" id="Rectangle-3" stroke="#979797" fill="#9B9B9B"></path>
            <text id="Thread02" font-family="Arial-BoldMT, Arial" font-size="12" font-weight="bold" fill="#000000">
                <tspan x="52.8222656" y="29">Thread02</tspan>
            </text>
        </g>
        <g id="Class" transform="translate(742.000000, 406.000000)">
            <path d="M8,0.5 C3.85786438,0.5 0.5,3.85786438 0.5,8 L0.5,43 C0.5,47.1421356 3.85786438,50.5 8,50.5 L150,50.5 C154.142136,50.5 157.5,47.1421356 157.5,43 L157.5,8 C157.5,3.85786438 154.142136,0.5 150,0.5 L8,0.5 Z" id="Rectangle-3" stroke="#979797" fill="#9B9B9B"></path>
            <text id="Thread03" font-family="Arial-BoldMT, Arial" font-size="12" font-weight="bold" fill="#000000">
                <tspan x="52.8222656" y="29">Thread03</tspan>
            </text>
        </g>
        <path id="Line-3" d="M326.769877,404.752294 C326.821825,404.856191 326.906071,404.940436 327.009968,404.992385 C327.275165,405.124984 327.597642,405.017491 327.730241,404.752294 L331.693322,396.826131 C331.730595,396.751585 331.75,396.669385 331.75,396.58604 C331.75,396.289541 331.50964,396.04918 331.21314,396.04918 L323.286977,396.04918 C323.203633,396.04918 323.121432,396.068585 323.046886,396.105858 C322.781689,396.238457 322.674197,396.560934 322.806795,396.826131 L326.769877,404.752294 Z M326.75,350.45082 L326.75,396.54918 L326.75,397.04918 L327.75,397.04918 L327.75,396.54918 L327.75,350.45082 L327.75,349.95082 L326.75,349.95082 L326.75,350.45082 Z" fill="#000000" fill-rule="nonzero"></path>
        <path id="Line-3" d="M574.769877,404.752294 C574.821825,404.856191 574.906071,404.940436 575.009968,404.992385 C575.275165,405.124984 575.597642,405.017491 575.730241,404.752294 L579.693322,396.826131 C579.730595,396.751585 579.75,396.669385 579.75,396.58604 C579.75,396.289541 579.50964,396.04918 579.21314,396.04918 L571.286977,396.04918 C571.203633,396.04918 571.121432,396.068585 571.046886,396.105858 C570.781689,396.238457 570.674197,396.560934 570.806795,396.826131 L574.769877,404.752294 Z M574.75,350.45082 L574.75,396.54918 L574.75,397.04918 L575.75,397.04918 L575.75,396.54918 L575.75,350.45082 L575.75,349.95082 L574.75,349.95082 L574.75,350.45082 Z" fill="#000000" fill-rule="nonzero"></path>
        <path id="Line-3" d="M821.769877,404.752294 C821.821825,404.856191 821.906071,404.940436 822.009968,404.992385 C822.275165,405.124984 822.597642,405.017491 822.730241,404.752294 L826.693322,396.826131 C826.730595,396.751585 826.75,396.669385 826.75,396.58604 C826.75,396.289541 826.50964,396.04918 826.21314,396.04918 L818.286977,396.04918 C818.203633,396.04918 818.121432,396.068585 818.046886,396.105858 C817.781689,396.238457 817.674197,396.560934 817.806795,396.826131 L821.769877,404.752294 Z M821.75,350.45082 L821.75,396.54918 L821.75,397.04918 L822.75,397.04918 L822.75,396.54918 L822.75,350.45082 L822.75,349.95082 L821.75,349.95082 L821.75,350.45082 Z" fill="#000000" fill-rule="nonzero"></path>
        <path id="Line-3" d="M330.564212,491.90241 L326.064212,499.90241 L326.935788,499.90241 L322.435788,491.90241 L321.564212,492.392672 L326.064212,500.392672 C326.255364,500.732497 326.744636,500.732497 326.935788,500.392672 L331.435788,492.392672 L330.564212,491.90241 Z M326,457.352459 L326,461.352459 L327,461.352459 L327,457.352459 L326,457.352459 Z M326,462.352459 L326,466.352459 L327,466.352459 L327,462.352459 L326,462.352459 Z M326,467.352459 L326,471.352459 L327,471.352459 L327,467.352459 L326,467.352459 Z M326,472.352459 L326,476.352459 L327,476.352459 L327,472.352459 L326,472.352459 Z M326,477.352459 L326,481.352459 L327,481.352459 L327,477.352459 L326,477.352459 Z M326,482.352459 L326,486.352459 L327,486.352459 L327,482.352459 L326,482.352459 Z M326,487.352459 L326,491.352459 L327,491.352459 L327,487.352459 L326,487.352459 Z M326,492.352459 L326,496.352459 L327,496.352459 L327,492.352459 L326,492.352459 Z M326,497.352459 L326,499.647541 L327,499.647541 L327,497.352459 L326,497.352459 Z" fill="#000000" fill-rule="nonzero"></path>
        <g id="Class" transform="translate(298.000000, 500.000000)">
            <path d="M8,0.5 C3.85786438,0.5 0.5,3.85786438 0.5,8 L0.5,27 C0.5,31.1421356 3.85786438,34.5 8,34.5 L51,34.5 C55.1421356,34.5 58.5,31.1421356 58.5,27 L58.5,8 C58.5,3.85786438 55.1421356,0.5 51,0.5 L8,0.5 Z" id="Rectangle-3" stroke="#979797" fill="#B8E986"></path>
            <text id="Stack" font-family="Arial-BoldMT, Arial" font-size="12" font-weight="bold" fill="#000000">
                <tspan x="13.4892578" y="21">Stack</tspan>
            </text>
        </g>
        <g id="Class" transform="translate(253.000000, 561.000000)">
            <path d="M8,0.5 C3.85786438,0.5 0.5,3.85786438 0.5,8 L0.5,32 C0.5,36.1421356 3.85786438,39.5 8,39.5 L137,39.5 C141.142136,39.5 144.5,36.1421356 144.5,32 L144.5,8 C144.5,3.85786438 141.142136,0.5 137,0.5 L8,0.5 Z" id="Rectangle-3" stroke="#979797" fill="#B8E986"></path>
            <text id="WeakOrderQueue-head" font-family="Arial-BoldMT, Arial" font-size="12" font-weight="bold" fill="#000000">
                <tspan x="22.4248047" y="19">WeakOrderQueue</tspan>
                <tspan x="58.9960938" y="33">head</tspan>
            </text>
        </g>
        <g id="Class" transform="translate(271.000000, 627.000000)">
            <path d="M8,0.5 C3.85786438,0.5 0.5,3.85786438 0.5,8 L0.5,27 C0.5,31.1421356 3.85786438,34.5 8,34.5 L100,34.5 C104.142136,34.5 107.5,31.1421356 107.5,27 L107.5,8 C107.5,3.85786438 104.142136,0.5 100,0.5 L8,0.5 Z" id="Rectangle-3" stroke="#979797" fill="#B8E986"></path>
            <text id="DefaultHandle" font-family="Arial-BoldMT, Arial" font-size="12" font-weight="bold" fill="#000000">
                <tspan x="14.1611328" y="21">DefaultHandle</tspan>
            </text>
        </g>
        <g id="Class" transform="translate(380.000000, 500.000000)">
            <path d="M8,0.5 C3.85786438,0.5 0.5,3.85786438 0.5,8 L0.5,27 C0.5,31.1421356 3.85786438,34.5 8,34.5 L100,34.5 C104.142136,34.5 107.5,31.1421356 107.5,27 L107.5,8 C107.5,3.85786438 104.142136,0.5 100,0.5 L8,0.5 Z" id="Rectangle-3" stroke="#979797" fill="#B8E986"></path>
            <text id="DefaultHandle" font-family="Arial-BoldMT, Arial" font-size="12" font-weight="bold" fill="#000000">
                <tspan x="14.1611328" y="21">DefaultHandle</tspan>
            </text>
        </g>
        <path id="Line-3" d="M371.754869,514.185788 L379.754869,518.685788 L379.754869,517.814212 L371.754869,522.314212 L372.245131,523.185788 L380.245131,518.685788 C380.584956,518.494636 380.584956,518.005364 380.245131,517.814212 L372.245131,513.314212 L371.754869,514.185788 Z M357.5,518.75 L361.5,518.75 L361.5,517.75 L357.5,517.75 L357.5,518.75 Z M362.5,518.75 L366.5,518.75 L366.5,517.75 L362.5,517.75 L362.5,518.75 Z M367.5,518.75 L371.5,518.75 L371.5,517.75 L367.5,517.75 L367.5,518.75 Z M372.5,518.75 L376.5,518.75 L376.5,517.75 L372.5,517.75 L372.5,518.75 Z M377.5,518.75 L379.5,518.75 L379.5,517.75 L377.5,517.75 L377.5,518.75 Z" fill="#000000" fill-rule="nonzero"></path>
        <path id="Line-3" d="M331.564212,552.049951 L327.064212,560.049951 L327.935788,560.049951 L323.435788,552.049951 L322.564212,552.540213 L327.064212,560.540213 C327.255364,560.880038 327.744636,560.880038 327.935788,560.540213 L332.435788,552.540213 L331.564212,552.049951 Z M327,535.204918 L327,539.204918 L328,539.204918 L328,535.204918 L327,535.204918 Z M327,540.204918 L327,544.204918 L328,544.204918 L328,540.204918 L327,540.204918 Z M327,545.204918 L327,549.204918 L328,549.204918 L328,545.204918 L327,545.204918 Z M327,550.204918 L327,552.295082 L327,554.204918 L328,554.204918 L328,552.295082 L328,550.204918 L327,550.204918 Z M327,555.204918 L327,559.204918 L328,559.204918 L328,555.204918 L327,555.204918 Z" fill="#000000" fill-rule="nonzero"></path>
        <path id="Line-3" d="M329.564212,618.049951 L325.064212,626.049951 L325.935788,626.049951 L321.435788,618.049951 L320.564212,618.540213 L325.064212,626.540213 C325.255364,626.880038 325.744636,626.880038 325.935788,626.540213 L330.435788,618.540213 L329.564212,618.049951 Z M325,601.204918 L325,605.204918 L326,605.204918 L326,601.204918 L325,601.204918 Z M325,606.204918 L325,610.204918 L326,610.204918 L326,606.204918 L325,606.204918 Z M325,611.204918 L325,615.204918 L326,615.204918 L326,611.204918 L325,611.204918 Z M325,616.204918 L325,618.295082 L325,620.204918 L326,620.204918 L326,618.295082 L326,616.204918 L325,616.204918 Z M325,621.204918 L325,625.204918 L326,625.204918 L326,621.204918 L325,621.204918 Z" fill="#000000" fill-rule="nonzero"></path>
        <path id="Line-3" d="M577.564212,491.90241 L573.064212,499.90241 L573.935788,499.90241 L569.435788,491.90241 L568.564212,492.392672 L573.064212,500.392672 C573.255364,500.732497 573.744636,500.732497 573.935788,500.392672 L578.435788,492.392672 L577.564212,491.90241 Z M573,457.352459 L573,461.352459 L574,461.352459 L574,457.352459 L573,457.352459 Z M573,462.352459 L573,466.352459 L574,466.352459 L574,462.352459 L573,462.352459 Z M573,467.352459 L573,471.352459 L574,471.352459 L574,467.352459 L573,467.352459 Z M573,472.352459 L573,476.352459 L574,476.352459 L574,472.352459 L573,472.352459 Z M573,477.352459 L573,481.352459 L574,481.352459 L574,477.352459 L573,477.352459 Z M573,482.352459 L573,486.352459 L574,486.352459 L574,482.352459 L573,482.352459 Z M573,487.352459 L573,491.352459 L574,491.352459 L574,487.352459 L573,487.352459 Z M573,492.352459 L573,496.352459 L574,496.352459 L574,492.352459 L573,492.352459 Z M573,497.352459 L573,499.647541 L574,499.647541 L574,497.352459 L573,497.352459 Z" fill="#000000" fill-rule="nonzero"></path>
        <g id="Class" transform="translate(545.000000, 500.000000)">
            <path d="M8,0.5 C3.85786438,0.5 0.5,3.85786438 0.5,8 L0.5,27 C0.5,31.1421356 3.85786438,34.5 8,34.5 L51,34.5 C55.1421356,34.5 58.5,31.1421356 58.5,27 L58.5,8 C58.5,3.85786438 55.1421356,0.5 51,0.5 L8,0.5 Z" id="Rectangle-3" stroke="#979797" fill="#B8E986"></path>
            <text id="Stack" font-family="Arial-BoldMT, Arial" font-size="12" font-weight="bold" fill="#000000">
                <tspan x="13.4892578" y="21">Stack</tspan>
            </text>
        </g>
        <g id="Class" transform="translate(500.000000, 561.000000)">
            <path d="M8,0.5 C3.85786438,0.5 0.5,3.85786438 0.5,8 L0.5,32 C0.5,36.1421356 3.85786438,39.5 8,39.5 L137,39.5 C141.142136,39.5 144.5,36.1421356 144.5,32 L144.5,8 C144.5,3.85786438 141.142136,0.5 137,0.5 L8,0.5 Z" id="Rectangle-3" stroke="#979797" fill="#B8E986"></path>
            <text id="WeakOrderQueue-head" font-family="Arial-BoldMT, Arial" font-size="12" font-weight="bold" fill="#000000">
                <tspan x="22.4248047" y="19">WeakOrderQueue</tspan>
                <tspan x="58.9960938" y="33">head</tspan>
            </text>
        </g>
        <g id="Class" transform="translate(627.000000, 500.000000)">
            <path d="M8,0.5 C3.85786438,0.5 0.5,3.85786438 0.5,8 L0.5,27 C0.5,31.1421356 3.85786438,34.5 8,34.5 L100,34.5 C104.142136,34.5 107.5,31.1421356 107.5,27 L107.5,8 C107.5,3.85786438 104.142136,0.5 100,0.5 L8,0.5 Z" id="Rectangle-3" stroke="#979797" fill="#B8E986"></path>
            <text id="DefaultHandle" font-family="Arial-BoldMT, Arial" font-size="12" font-weight="bold" fill="#000000">
                <tspan x="14.1611328" y="21">DefaultHandle</tspan>
            </text>
        </g>
        <path id="Line-3" d="M618.754869,514.185788 L626.754869,518.685788 L626.754869,517.814212 L618.754869,522.314212 L619.245131,523.185788 L627.245131,518.685788 C627.584956,518.494636 627.584956,518.005364 627.245131,517.814212 L619.245131,513.314212 L618.754869,514.185788 Z M604.5,518.75 L608.5,518.75 L608.5,517.75 L604.5,517.75 L604.5,518.75 Z M609.5,518.75 L613.5,518.75 L613.5,517.75 L609.5,517.75 L609.5,518.75 Z M614.5,518.75 L618.5,518.75 L618.5,517.75 L614.5,517.75 L614.5,518.75 Z M619.5,518.75 L623.5,518.75 L623.5,517.75 L619.5,517.75 L619.5,518.75 Z M624.5,518.75 L626.5,518.75 L626.5,517.75 L624.5,517.75 L624.5,518.75 Z" fill="#000000" fill-rule="nonzero"></path>
        <path id="Line-3" d="M578.564212,552.049951 L574.064212,560.049951 L574.935788,560.049951 L570.435788,552.049951 L569.564212,552.540213 L574.064212,560.540213 C574.255364,560.880038 574.744636,560.880038 574.935788,560.540213 L579.435788,552.540213 L578.564212,552.049951 Z M574,535.204918 L574,539.204918 L575,539.204918 L575,535.204918 L574,535.204918 Z M574,540.204918 L574,544.204918 L575,544.204918 L575,540.204918 L574,540.204918 Z M574,545.204918 L574,549.204918 L575,549.204918 L575,545.204918 L574,545.204918 Z M574,550.204918 L574,552.295082 L574,554.204918 L575,554.204918 L575,552.295082 L575,550.204918 L574,550.204918 Z M574,555.204918 L574,559.204918 L575,559.204918 L575,555.204918 L574,555.204918 Z" fill="#000000" fill-rule="nonzero"></path>
        <path id="Line-3" d="M576.564212,618.049951 L572.064212,626.049951 L572.935788,626.049951 L568.435788,618.049951 L567.564212,618.540213 L572.064212,626.540213 C572.255364,626.880038 572.744636,626.880038 572.935788,626.540213 L577.435788,618.540213 L576.564212,618.049951 Z M572,601.204918 L572,605.204918 L573,605.204918 L573,601.204918 L572,601.204918 Z M572,606.204918 L572,610.204918 L573,610.204918 L573,606.204918 L572,606.204918 Z M572,611.204918 L572,615.204918 L573,615.204918 L573,611.204918 L572,611.204918 Z M572,616.204918 L572,618.295082 L572,620.204918 L573,620.204918 L573,618.295082 L573,616.204918 L572,616.204918 Z M572,621.204918 L572,625.204918 L573,625.204918 L573,621.204918 L572,621.204918 Z" fill="#000000" fill-rule="nonzero"></path>
        <g id="Class" transform="translate(518.000000, 627.000000)">
            <path d="M8,0.5 C3.85786438,0.5 0.5,3.85786438 0.5,8 L0.5,27 C0.5,31.1421356 3.85786438,34.5 8,34.5 L100,34.5 C104.142136,34.5 107.5,31.1421356 107.5,27 L107.5,8 C107.5,3.85786438 104.142136,0.5 100,0.5 L8,0.5 Z" id="Rectangle-3" stroke="#979797" fill="#B8E986"></path>
            <text id="DefaultHandle" font-family="Arial-BoldMT, Arial" font-size="12" font-weight="bold" fill="#000000">
                <tspan x="14.1611328" y="21">DefaultHandle</tspan>
            </text>
        </g>
        <path id="Line-3" d="M828.564212,491.90241 L824.064212,499.90241 L824.935788,499.90241 L820.435788,491.90241 L819.564212,492.392672 L824.064212,500.392672 C824.255364,500.732497 824.744636,500.732497 824.935788,500.392672 L829.435788,492.392672 L828.564212,491.90241 Z M824,457.352459 L824,461.352459 L825,461.352459 L825,457.352459 L824,457.352459 Z M824,462.352459 L824,466.352459 L825,466.352459 L825,462.352459 L824,462.352459 Z M824,467.352459 L824,471.352459 L825,471.352459 L825,467.352459 L824,467.352459 Z M824,472.352459 L824,476.352459 L825,476.352459 L825,472.352459 L824,472.352459 Z M824,477.352459 L824,481.352459 L825,481.352459 L825,477.352459 L824,477.352459 Z M824,482.352459 L824,486.352459 L825,486.352459 L825,482.352459 L824,482.352459 Z M824,487.352459 L824,491.352459 L825,491.352459 L825,487.352459 L824,487.352459 Z M824,492.352459 L824,496.352459 L825,496.352459 L825,492.352459 L824,492.352459 Z M824,497.352459 L824,499.647541 L825,499.647541 L825,497.352459 L824,497.352459 Z" fill="#000000" fill-rule="nonzero"></path>
        <g id="Class" transform="translate(796.000000, 500.000000)">
            <path d="M8,0.5 C3.85786438,0.5 0.5,3.85786438 0.5,8 L0.5,27 C0.5,31.1421356 3.85786438,34.5 8,34.5 L51,34.5 C55.1421356,34.5 58.5,31.1421356 58.5,27 L58.5,8 C58.5,3.85786438 55.1421356,0.5 51,0.5 L8,0.5 Z" id="Rectangle-3" stroke="#979797" fill="#B8E986"></path>
            <text id="Stack" font-family="Arial-BoldMT, Arial" font-size="12" font-weight="bold" fill="#000000">
                <tspan x="13.4892578" y="21">Stack</tspan>
            </text>
        </g>
        <g id="Class" transform="translate(751.000000, 561.000000)">
            <path d="M8,0.5 C3.85786438,0.5 0.5,3.85786438 0.5,8 L0.5,32 C0.5,36.1421356 3.85786438,39.5 8,39.5 L137,39.5 C141.142136,39.5 144.5,36.1421356 144.5,32 L144.5,8 C144.5,3.85786438 141.142136,0.5 137,0.5 L8,0.5 Z" id="Rectangle-3" stroke="#979797" fill="#B8E986"></path>
            <text id="WeakOrderQueue-head" font-family="Arial-BoldMT, Arial" font-size="12" font-weight="bold" fill="#000000">
                <tspan x="22.4248047" y="19">WeakOrderQueue</tspan>
                <tspan x="58.9960938" y="33">head</tspan>
            </text>
        </g>
        <g id="Class" transform="translate(769.000000, 627.000000)">
            <path d="M8,0.5 C3.85786438,0.5 0.5,3.85786438 0.5,8 L0.5,27 C0.5,31.1421356 3.85786438,34.5 8,34.5 L100,34.5 C104.142136,34.5 107.5,31.1421356 107.5,27 L107.5,8 C107.5,3.85786438 104.142136,0.5 100,0.5 L8,0.5 Z" id="Rectangle-3" stroke="#979797" fill="#B8E986"></path>
            <text id="DefaultHandle" font-family="Arial-BoldMT, Arial" font-size="12" font-weight="bold" fill="#000000">
                <tspan x="14.1611328" y="21">DefaultHandle</tspan>
            </text>
        </g>
        <g id="Class" transform="translate(878.000000, 500.000000)">
            <path d="M8,0.5 C3.85786438,0.5 0.5,3.85786438 0.5,8 L0.5,27 C0.5,31.1421356 3.85786438,34.5 8,34.5 L100,34.5 C104.142136,34.5 107.5,31.1421356 107.5,27 L107.5,8 C107.5,3.85786438 104.142136,0.5 100,0.5 L8,0.5 Z" id="Rectangle-3" stroke="#979797" fill="#B8E986"></path>
            <text id="DefaultHandle" font-family="Arial-BoldMT, Arial" font-size="12" font-weight="bold" fill="#000000">
                <tspan x="14.1611328" y="21">DefaultHandle</tspan>
            </text>
        </g>
        <path id="Line-3" d="M869.754869,514.185788 L877.754869,518.685788 L877.754869,517.814212 L869.754869,522.314212 L870.245131,523.185788 L878.245131,518.685788 C878.584956,518.494636 878.584956,518.005364 878.245131,517.814212 L870.245131,513.314212 L869.754869,514.185788 Z M855.5,518.75 L859.5,518.75 L859.5,517.75 L855.5,517.75 L855.5,518.75 Z M860.5,518.75 L864.5,518.75 L864.5,517.75 L860.5,517.75 L860.5,518.75 Z M865.5,518.75 L869.5,518.75 L869.5,517.75 L865.5,517.75 L865.5,518.75 Z M870.5,518.75 L874.5,518.75 L874.5,517.75 L870.5,517.75 L870.5,518.75 Z M875.5,518.75 L877.5,518.75 L877.5,517.75 L875.5,517.75 L875.5,518.75 Z" fill="#000000" fill-rule="nonzero"></path>
        <path id="Line-3" d="M829.564212,552.049951 L825.064212,560.049951 L825.935788,560.049951 L821.435788,552.049951 L820.564212,552.540213 L825.064212,560.540213 C825.255364,560.880038 825.744636,560.880038 825.935788,560.540213 L830.435788,552.540213 L829.564212,552.049951 Z M825,535.204918 L825,539.204918 L826,539.204918 L826,535.204918 L825,535.204918 Z M825,540.204918 L825,544.204918 L826,544.204918 L826,540.204918 L825,540.204918 Z M825,545.204918 L825,549.204918 L826,549.204918 L826,545.204918 L825,545.204918 Z M825,550.204918 L825,552.295082 L825,554.204918 L826,554.204918 L826,552.295082 L826,550.204918 L825,550.204918 Z M825,555.204918 L825,559.204918 L826,559.204918 L826,555.204918 L825,555.204918 Z" fill="#000000" fill-rule="nonzero"></path>
        <path id="Line-3" d="M827.564212,618.049951 L823.064212,626.049951 L823.935788,626.049951 L819.435788,618.049951 L818.564212,618.540213 L823.064212,626.540213 C823.255364,626.880038 823.744636,626.880038 823.935788,626.540213 L828.435788,618.540213 L827.564212,618.049951 Z M823,601.204918 L823,605.204918 L824,605.204918 L824,601.204918 L823,601.204918 Z M823,606.204918 L823,610.204918 L824,610.204918 L824,606.204918 L823,606.204918 Z M823,611.204918 L823,615.204918 L824,615.204918 L824,611.204918 L823,611.204918 Z M823,616.204918 L823,618.295082 L823,620.204918 L824,620.204918 L824,618.295082 L824,616.204918 L823,616.204918 Z M823,621.204918 L823,625.204918 L824,625.204918 L824,621.204918 L823,621.204918 Z" fill="#000000" fill-rule="nonzero"></path>
        <text id="n" font-family="Arial-BoldMT, Arial" font-size="12" font-weight="bold" fill="#000000">
            <tspan x="369.334961" y="511">n</tspan>
        </text>
        <text id="n" font-family="Arial-BoldMT, Arial" font-size="12" font-weight="bold" fill="#000000">
            <tspan x="616.334961" y="511">n</tspan>
        </text>
        <text id="n" font-family="Arial-BoldMT, Arial" font-size="12" font-weight="bold" fill="#000000">
            <tspan x="867.334961" y="511">n</tspan>
        </text>
    </g>
</svg>